%TF.GenerationSoftware,KiCad,Pcbnew,7.0.11*%
%TF.CreationDate,2025-03-07T22:39:12-08:00*%
%TF.ProjectId,enderman,656e6465-726d-4616-9e2e-6b696361645f,0.2*%
%TF.SameCoordinates,PX6ed1240PY84f1340*%
%TF.FileFunction,Legend,Top*%
%TF.FilePolarity,Positive*%
%FSLAX46Y46*%
G04 Gerber Fmt 4.6, Leading zero omitted, Abs format (unit mm)*
G04 Created by KiCad (PCBNEW 7.0.11) date 2025-03-07 22:39:12*
%MOMM*%
%LPD*%
G01*
G04 APERTURE LIST*
%ADD10C,0.120000*%
G04 APERTURE END LIST*
D10*
%TO.C,D1*%
X18285000Y91240000D02*
X18285000Y93160000D01*
X18285000Y93160000D02*
X15600000Y93160000D01*
X15600000Y91240000D02*
X18285000Y91240000D01*
%TO.C,C3*%
X21140580Y55090000D02*
X20859420Y55090000D01*
X21140580Y56110000D02*
X20859420Y56110000D01*
%TO.C,C5*%
X26991920Y66385000D02*
X27273080Y66385000D01*
X26991920Y65365000D02*
X27273080Y65365000D01*
%TO.C,R2*%
X21200000Y50172936D02*
X21200000Y51627064D01*
X23875000Y50172936D02*
X23875000Y51627064D01*
%TO.C,C4*%
X23172500Y66534420D02*
X23172500Y66815580D01*
X24192500Y66534420D02*
X24192500Y66815580D01*
%TO.C,R3*%
X27972936Y75330000D02*
X29427064Y75330000D01*
X27972936Y72655000D02*
X29427064Y72655000D01*
%TO.C,C1*%
X29490000Y60959420D02*
X29490000Y61240580D01*
X30510000Y60959420D02*
X30510000Y61240580D01*
%TO.C,R1*%
X24537258Y55077500D02*
X24062742Y55077500D01*
X24537258Y56122500D02*
X24062742Y56122500D01*
%TO.C,U1*%
X26135000Y60925000D02*
X26135000Y62875000D01*
X26135000Y60925000D02*
X26135000Y58975000D01*
X17265000Y60925000D02*
X17265000Y62875000D01*
X17265000Y60925000D02*
X17265000Y58975000D01*
X26400000Y63385000D02*
X26070000Y63625000D01*
X26400000Y63865000D01*
X26400000Y63385000D01*
G36*
X26400000Y63385000D02*
G01*
X26070000Y63625000D01*
X26400000Y63865000D01*
X26400000Y63385000D01*
G37*
%TO.C,R5*%
X18277500Y66462742D02*
X18277500Y66937258D01*
X19322500Y66462742D02*
X19322500Y66937258D01*
%TO.C,D2*%
X26515000Y93160000D02*
X26515000Y91240000D01*
X26515000Y91240000D02*
X29200000Y91240000D01*
X29200000Y93160000D02*
X26515000Y93160000D01*
%TO.C,R6*%
X20177500Y66437742D02*
X20177500Y66912258D01*
X21222500Y66437742D02*
X21222500Y66912258D01*
%TO.C,C6*%
X28510000Y61240580D02*
X28510000Y60959420D01*
X27490000Y61240580D02*
X27490000Y60959420D01*
%TO.C,C2*%
X17640580Y55090000D02*
X17359420Y55090000D01*
X17640580Y56110000D02*
X17359420Y56110000D01*
%TD*%
M02*
