%TF.GenerationSoftware,KiCad,Pcbnew,7.0.11*%
%TF.CreationDate,2025-02-23T17:02:07-08:00*%
%TF.ProjectId,enderman,656e6465-726d-4616-9e2e-6b696361645f,rev?*%
%TF.SameCoordinates,PX6ed1240PY84f1340*%
%TF.FileFunction,Copper,L2,Bot*%
%TF.FilePolarity,Positive*%
%FSLAX46Y46*%
G04 Gerber Fmt 4.6, Leading zero omitted, Abs format (unit mm)*
G04 Created by KiCad (PCBNEW 7.0.11) date 2025-02-23 17:02:07*
%MOMM*%
%LPD*%
G01*
G04 APERTURE LIST*
%TA.AperFunction,SMDPad,CuDef*%
%ADD10R,2.600000X3.400000*%
%TD*%
%TA.AperFunction,SMDPad,CuDef*%
%ADD11R,3.200000X3.200000*%
%TD*%
%TA.AperFunction,SMDPad,CuDef*%
%ADD12R,3.960000X3.960000*%
%TD*%
%TA.AperFunction,SMDPad,CuDef*%
%ADD13R,2.000000X2.000000*%
%TD*%
%TA.AperFunction,ViaPad*%
%ADD14C,0.800000*%
%TD*%
%TA.AperFunction,Conductor*%
%ADD15C,0.400000*%
%TD*%
G04 APERTURE END LIST*
D10*
%TO.P,LS1,1,1*%
%TO.N,Net-(LS1-Pad1)*%
X23550000Y71600000D03*
%TO.P,LS1,2,2*%
%TO.N,GND*%
X13550000Y71600000D03*
%TD*%
D11*
%TO.P,BT2,1,+*%
%TO.N,+6V*%
X29787500Y50050000D03*
X29787500Y64450000D03*
D12*
%TO.P,BT2,2,-*%
%TO.N,Net-(BT2--)*%
X29787500Y57250000D03*
%TD*%
D11*
%TO.P,BT3,1,+*%
%TO.N,Net-(BT2--)*%
X22587500Y78850000D03*
X22587500Y93250000D03*
D12*
%TO.P,BT3,2,-*%
%TO.N,Net-(BT1-+)*%
X22587500Y86050000D03*
%TD*%
D13*
%TO.P,TP1,1,1*%
%TO.N,unconnected-(TP1-Pad1)*%
X28600000Y97400000D03*
%TD*%
D11*
%TO.P,BT1,1,+*%
%TO.N,Net-(BT1-+)*%
X15175000Y64400000D03*
X15175000Y50000000D03*
D12*
%TO.P,BT1,2,-*%
%TO.N,GND*%
X15175000Y57200000D03*
%TD*%
D13*
%TO.P,TP2,1,1*%
%TO.N,unconnected-(TP2-Pad1)*%
X16400000Y97400000D03*
%TD*%
D14*
%TO.N,GND*%
X19200000Y50400000D03*
X25800000Y49200000D03*
X23200000Y62000000D03*
X28800000Y53000000D03*
X26200000Y83000000D03*
X23000000Y81600000D03*
X13600000Y68600000D03*
X26800000Y69400000D03*
X20000000Y80800000D03*
X19200000Y69400000D03*
X18200000Y57200000D03*
X22800000Y49200000D03*
%TO.N,+6V*%
X30200000Y52400000D03*
X29800000Y61600000D03*
%TO.N,Net-(U2A-Q)*%
X24400000Y68000000D03*
%TO.N,Net-(LS1-Pad1)*%
X23200000Y74400000D03*
%TO.N,Net-(U2A-Q)*%
X24600000Y57000000D03*
%TD*%
D15*
%TO.N,GND*%
X22800000Y49200000D02*
X20400000Y49200000D01*
X20400000Y49200000D02*
X15175000Y54425000D01*
X15175000Y54425000D02*
X15175000Y57200000D01*
X18200000Y57200000D02*
X18400000Y57200000D01*
X18400000Y57200000D02*
X23200000Y62000000D01*
X15175000Y57200000D02*
X18200000Y57200000D01*
X22800000Y49200000D02*
X25800000Y49200000D01*
X26200000Y83000000D02*
X24800000Y81600000D01*
X24800000Y81600000D02*
X23000000Y81600000D01*
%TO.N,Net-(BT2--)*%
X22587500Y93250000D02*
X22750000Y93250000D01*
X27200000Y88800000D02*
X27200000Y82400000D01*
X22750000Y93250000D02*
X27200000Y88800000D01*
X27200000Y82400000D02*
X23650000Y78850000D01*
X23650000Y78850000D02*
X22587500Y78850000D01*
%TO.N,GND*%
X23000000Y81600000D02*
X20800000Y81600000D01*
X20800000Y81600000D02*
X20000000Y80800000D01*
X13550000Y68650000D02*
X13600000Y68600000D01*
X13550000Y71600000D02*
X13550000Y68650000D01*
X19200000Y69400000D02*
X26800000Y69400000D01*
%TO.N,Net-(U2A-Q)*%
X24400000Y68000000D02*
X24400000Y57200000D01*
X24400000Y57200000D02*
X24600000Y57000000D01*
%TO.N,GND*%
X13550000Y74350000D02*
X20000000Y80800000D01*
X13550000Y71600000D02*
X13550000Y74350000D01*
X13550000Y71600000D02*
X15750000Y69400000D01*
X15750000Y69400000D02*
X19200000Y69400000D01*
%TO.N,Net-(BT1-+)*%
X15175000Y64425000D02*
X10400000Y69200000D01*
X15175000Y64400000D02*
X15175000Y64425000D01*
X10400000Y69200000D02*
X10400000Y73862500D01*
X10400000Y73862500D02*
X22587500Y86050000D01*
%TO.N,GND*%
X19200000Y61225000D02*
X19200000Y69400000D01*
X15175000Y57200000D02*
X19200000Y61225000D01*
%TO.N,+6V*%
X29787500Y64450000D02*
X29787500Y61612500D01*
X29787500Y61612500D02*
X29800000Y61600000D01*
X30200000Y50462500D02*
X29787500Y50050000D01*
X30200000Y52400000D02*
X30200000Y50462500D01*
%TO.N,Net-(BT2--)*%
X29787500Y57387500D02*
X33200000Y60800000D01*
X33200000Y60800000D02*
X33200000Y68237500D01*
X29787500Y57250000D02*
X29787500Y57387500D01*
X33200000Y68237500D02*
X22587500Y78850000D01*
%TO.N,Net-(LS1-Pad1)*%
X23200000Y71950000D02*
X23550000Y71600000D01*
X23200000Y74400000D02*
X23200000Y71950000D01*
%TO.N,Net-(BT1-+)*%
X15000000Y50000000D02*
X10200000Y54800000D01*
X15175000Y50000000D02*
X15000000Y50000000D01*
X10200000Y54800000D02*
X10200000Y59425000D01*
X10200000Y59425000D02*
X15175000Y64400000D01*
%TD*%
%TA.AperFunction,Conductor*%
%TO.N,GND*%
G36*
X14962189Y98872003D02*
G01*
X15007944Y98819199D01*
X15017888Y98750041D01*
X14994417Y98693377D01*
X14956204Y98642331D01*
X14956202Y98642329D01*
X14905908Y98507483D01*
X14899501Y98447884D01*
X14899501Y98447877D01*
X14899500Y98447865D01*
X14899500Y96352130D01*
X14899501Y96352124D01*
X14905908Y96292517D01*
X14956202Y96157672D01*
X14956206Y96157665D01*
X15042452Y96042456D01*
X15042455Y96042453D01*
X15157664Y95956207D01*
X15157671Y95956203D01*
X15292517Y95905909D01*
X15292516Y95905909D01*
X15299444Y95905165D01*
X15352127Y95899500D01*
X17447872Y95899501D01*
X17507483Y95905909D01*
X17642331Y95956204D01*
X17757546Y96042454D01*
X17843796Y96157669D01*
X17894091Y96292517D01*
X17900500Y96352127D01*
X17900499Y98447872D01*
X17894091Y98507483D01*
X17843796Y98642331D01*
X17805583Y98693377D01*
X17781166Y98758841D01*
X17796018Y98827114D01*
X17845423Y98876520D01*
X17904850Y98891688D01*
X27095150Y98891688D01*
X27162189Y98872003D01*
X27207944Y98819199D01*
X27217888Y98750041D01*
X27194417Y98693377D01*
X27156204Y98642331D01*
X27156202Y98642329D01*
X27105908Y98507483D01*
X27099501Y98447884D01*
X27099501Y98447877D01*
X27099500Y98447865D01*
X27099500Y96352130D01*
X27099501Y96352124D01*
X27105908Y96292517D01*
X27156202Y96157672D01*
X27156206Y96157665D01*
X27242452Y96042456D01*
X27242455Y96042453D01*
X27357664Y95956207D01*
X27357671Y95956203D01*
X27492517Y95905909D01*
X27492516Y95905909D01*
X27499444Y95905165D01*
X27552127Y95899500D01*
X29647872Y95899501D01*
X29707483Y95905909D01*
X29842331Y95956204D01*
X29957546Y96042454D01*
X30043796Y96157669D01*
X30094091Y96292517D01*
X30100500Y96352127D01*
X30100499Y98447872D01*
X30094091Y98507483D01*
X30043796Y98642331D01*
X30005583Y98693377D01*
X29981166Y98758841D01*
X29996018Y98827114D01*
X30045423Y98876520D01*
X30104850Y98891688D01*
X30365731Y98891688D01*
X30432770Y98872003D01*
X30478525Y98819199D01*
X30489731Y98767688D01*
X30489731Y81820225D01*
X30497421Y81794034D01*
X30501178Y81776765D01*
X30505066Y81749731D01*
X30516400Y81724912D01*
X30516404Y81724905D01*
X30522586Y81708330D01*
X30530277Y81682137D01*
X30530278Y81682135D01*
X30545037Y81659169D01*
X30553513Y81643647D01*
X30564854Y81618815D01*
X30576668Y81605181D01*
X30582727Y81598188D01*
X30593326Y81584028D01*
X30608084Y81561065D01*
X30608088Y81561060D01*
X30628719Y81543182D01*
X30641223Y81530678D01*
X30659101Y81510047D01*
X30659103Y81510045D01*
X30682075Y81495283D01*
X30696227Y81484688D01*
X30716858Y81466811D01*
X30740130Y81456183D01*
X30741682Y81455474D01*
X30757209Y81446996D01*
X30780178Y81432235D01*
X30806367Y81424545D01*
X30822944Y81418362D01*
X30847769Y81407025D01*
X30847770Y81407025D01*
X30847774Y81407023D01*
X30874774Y81403141D01*
X30874795Y81403138D01*
X30892077Y81399379D01*
X30918270Y81391688D01*
X30954432Y81391688D01*
X35865731Y81391688D01*
X35932770Y81372003D01*
X35978525Y81319199D01*
X35989731Y81267688D01*
X35989731Y46857338D01*
X35994708Y46840388D01*
X35999731Y46805452D01*
X35999731Y16473724D01*
X35980046Y16406685D01*
X35927242Y16360930D01*
X35875731Y16349724D01*
X33544651Y16349724D01*
X33477612Y16369409D01*
X33431857Y16422213D01*
X33420651Y16473724D01*
X33420651Y46901649D01*
X33420650Y46901654D01*
X33412959Y46927846D01*
X33409201Y46945124D01*
X33405316Y46972142D01*
X33405316Y46972144D01*
X33405316Y46972145D01*
X33401832Y46979774D01*
X33393977Y46996975D01*
X33387794Y47013552D01*
X33380104Y47039740D01*
X33380104Y47039742D01*
X33365343Y47062710D01*
X33356865Y47078237D01*
X33356156Y47079789D01*
X33345528Y47103061D01*
X33327651Y47123692D01*
X33317054Y47137848D01*
X33302294Y47160816D01*
X33302293Y47160817D01*
X33281661Y47178696D01*
X33269157Y47191200D01*
X33251279Y47211831D01*
X33251274Y47211835D01*
X33228311Y47226593D01*
X33214151Y47237192D01*
X33207158Y47243251D01*
X33193524Y47255065D01*
X33168692Y47266406D01*
X33153170Y47274882D01*
X33153168Y47274883D01*
X33130204Y47289641D01*
X33130202Y47289642D01*
X33104009Y47297333D01*
X33087439Y47303514D01*
X33062608Y47314853D01*
X33035574Y47318741D01*
X33018305Y47322498D01*
X32992114Y47330188D01*
X32992112Y47330188D01*
X32955950Y47330188D01*
X28865160Y47330188D01*
X28721238Y47330188D01*
X28721235Y47330188D01*
X28721233Y47330187D01*
X28695041Y47322498D01*
X28677767Y47318740D01*
X28650743Y47314854D01*
X28650740Y47314853D01*
X28625909Y47303513D01*
X28609340Y47297333D01*
X28596370Y47293525D01*
X28583146Y47289641D01*
X28583144Y47289641D01*
X28583144Y47289640D01*
X28560181Y47274883D01*
X28544660Y47266408D01*
X28519827Y47255067D01*
X28519824Y47255065D01*
X28499199Y47237193D01*
X28485039Y47226593D01*
X28462075Y47211835D01*
X28462070Y47211831D01*
X28444192Y47191199D01*
X28431688Y47178695D01*
X28411056Y47160817D01*
X28411052Y47160812D01*
X28396294Y47137848D01*
X28385694Y47123688D01*
X28367822Y47103063D01*
X28367820Y47103060D01*
X28356479Y47078227D01*
X28348004Y47062706D01*
X28333247Y47039743D01*
X28325554Y47013547D01*
X28319374Y46996978D01*
X28308034Y46972147D01*
X28308033Y46972144D01*
X28304147Y46945120D01*
X28300389Y46927846D01*
X28292700Y46901654D01*
X28292699Y46901646D01*
X28292699Y2991294D01*
X28273014Y2924255D01*
X28220210Y2878500D01*
X28168699Y2867294D01*
X25917699Y2867294D01*
X25850660Y2886979D01*
X25804905Y2939783D01*
X25793699Y2991294D01*
X25793699Y46901649D01*
X25793698Y46901654D01*
X25786007Y46927846D01*
X25782249Y46945124D01*
X25778364Y46972142D01*
X25778364Y46972144D01*
X25778364Y46972145D01*
X25774880Y46979774D01*
X25767025Y46996975D01*
X25760842Y47013552D01*
X25753152Y47039740D01*
X25753152Y47039742D01*
X25738391Y47062710D01*
X25729913Y47078237D01*
X25729204Y47079789D01*
X25718576Y47103061D01*
X25700699Y47123692D01*
X25690102Y47137848D01*
X25675342Y47160816D01*
X25675341Y47160817D01*
X25654709Y47178696D01*
X25642205Y47191200D01*
X25624327Y47211831D01*
X25624322Y47211835D01*
X25601359Y47226593D01*
X25587199Y47237192D01*
X25580206Y47243251D01*
X25566572Y47255065D01*
X25541740Y47266406D01*
X25526218Y47274882D01*
X25526216Y47274883D01*
X25503252Y47289641D01*
X25503250Y47289642D01*
X25477057Y47297333D01*
X25460487Y47303514D01*
X25435656Y47314853D01*
X25408622Y47318741D01*
X25391353Y47322498D01*
X25365162Y47330188D01*
X25365160Y47330188D01*
X25328998Y47330188D01*
X19699144Y47330188D01*
X19555222Y47330188D01*
X19555219Y47330188D01*
X19555217Y47330187D01*
X19529025Y47322498D01*
X19511751Y47318740D01*
X19484727Y47314854D01*
X19484724Y47314853D01*
X19459893Y47303513D01*
X19443324Y47297333D01*
X19430354Y47293525D01*
X19417130Y47289641D01*
X19417128Y47289641D01*
X19417128Y47289640D01*
X19394165Y47274883D01*
X19378644Y47266408D01*
X19353811Y47255067D01*
X19353808Y47255065D01*
X19333183Y47237193D01*
X19319023Y47226593D01*
X19296059Y47211835D01*
X19296054Y47211831D01*
X19278176Y47191199D01*
X19265672Y47178695D01*
X19245040Y47160817D01*
X19245036Y47160812D01*
X19230278Y47137848D01*
X19219678Y47123688D01*
X19201806Y47103063D01*
X19201804Y47103060D01*
X19190463Y47078227D01*
X19181988Y47062706D01*
X19167231Y47039743D01*
X19159538Y47013547D01*
X19153358Y46996978D01*
X19142018Y46972147D01*
X19142017Y46972144D01*
X19138131Y46945120D01*
X19134373Y46927846D01*
X19126684Y46901654D01*
X19126683Y46901646D01*
X19126683Y2977624D01*
X19106998Y2910585D01*
X19054194Y2864830D01*
X19002683Y2853624D01*
X16751683Y2853624D01*
X16684644Y2873309D01*
X16638889Y2926113D01*
X16627683Y2977624D01*
X16627683Y46901649D01*
X16627682Y46901654D01*
X16619991Y46927846D01*
X16616233Y46945124D01*
X16612348Y46972142D01*
X16612348Y46972144D01*
X16612348Y46972145D01*
X16608864Y46979774D01*
X16601009Y46996975D01*
X16594826Y47013552D01*
X16587136Y47039740D01*
X16587136Y47039742D01*
X16572375Y47062710D01*
X16563897Y47078237D01*
X16563188Y47079789D01*
X16552560Y47103061D01*
X16534683Y47123692D01*
X16524086Y47137848D01*
X16509326Y47160816D01*
X16509325Y47160817D01*
X16488693Y47178696D01*
X16476189Y47191200D01*
X16458311Y47211831D01*
X16458306Y47211835D01*
X16435343Y47226593D01*
X16421183Y47237192D01*
X16414190Y47243251D01*
X16400556Y47255065D01*
X16375724Y47266406D01*
X16360202Y47274882D01*
X16360200Y47274883D01*
X16337236Y47289641D01*
X16337234Y47289642D01*
X16311041Y47297333D01*
X16294471Y47303514D01*
X16269640Y47314853D01*
X16242606Y47318741D01*
X16225337Y47322498D01*
X16199146Y47330188D01*
X16199144Y47330188D01*
X16162982Y47330188D01*
X12071961Y47330188D01*
X11928039Y47330188D01*
X11928036Y47330188D01*
X11928034Y47330187D01*
X11901842Y47322498D01*
X11884568Y47318740D01*
X11857544Y47314854D01*
X11857541Y47314853D01*
X11832710Y47303513D01*
X11816141Y47297333D01*
X11803171Y47293525D01*
X11789947Y47289641D01*
X11789945Y47289641D01*
X11789945Y47289640D01*
X11766982Y47274883D01*
X11751461Y47266408D01*
X11726628Y47255067D01*
X11726625Y47255065D01*
X11706000Y47237193D01*
X11691840Y47226593D01*
X11668876Y47211835D01*
X11668871Y47211831D01*
X11650993Y47191199D01*
X11638489Y47178695D01*
X11617857Y47160817D01*
X11617853Y47160812D01*
X11603095Y47137848D01*
X11592495Y47123688D01*
X11574623Y47103063D01*
X11574621Y47103060D01*
X11563280Y47078227D01*
X11554805Y47062706D01*
X11540048Y47039743D01*
X11532355Y47013547D01*
X11526175Y46996978D01*
X11514835Y46972147D01*
X11514834Y46972144D01*
X11510948Y46945120D01*
X11507190Y46927846D01*
X11499501Y46901654D01*
X11499500Y46901646D01*
X11499500Y16450284D01*
X11479815Y16383245D01*
X11427011Y16337490D01*
X11375500Y16326284D01*
X9044422Y16326284D01*
X8977383Y16345969D01*
X8931628Y16398773D01*
X8920422Y16450284D01*
X8920422Y46784648D01*
X8925445Y46819584D01*
X8926531Y46823280D01*
X8930222Y46835852D01*
X8930222Y46979774D01*
X8930222Y54757395D01*
X9495642Y54757395D01*
X9506483Y54698230D01*
X9507610Y54690829D01*
X9514859Y54631129D01*
X9514860Y54631126D01*
X9518451Y54621657D01*
X9524474Y54600054D01*
X9526304Y54590070D01*
X9550991Y54535218D01*
X9553854Y54528306D01*
X9575182Y54472070D01*
X9575183Y54472069D01*
X9580936Y54463734D01*
X9591961Y54444187D01*
X9596120Y54434945D01*
X9596124Y54434940D01*
X9633215Y54387597D01*
X9637655Y54381562D01*
X9671812Y54332076D01*
X9671816Y54332071D01*
X9716828Y54292195D01*
X9722283Y54287060D01*
X13038181Y50971162D01*
X13071666Y50909839D01*
X13074500Y50883481D01*
X13074500Y48352130D01*
X13074501Y48352124D01*
X13080908Y48292517D01*
X13131202Y48157672D01*
X13131206Y48157665D01*
X13217452Y48042456D01*
X13217455Y48042453D01*
X13332664Y47956207D01*
X13332671Y47956203D01*
X13467517Y47905909D01*
X13467516Y47905909D01*
X13474444Y47905165D01*
X13527127Y47899500D01*
X16822872Y47899501D01*
X16882483Y47905909D01*
X17017331Y47956204D01*
X17132546Y48042454D01*
X17218796Y48157669D01*
X17269091Y48292517D01*
X17275500Y48352127D01*
X17275500Y48402130D01*
X27687000Y48402130D01*
X27687001Y48402124D01*
X27693408Y48342517D01*
X27743702Y48207672D01*
X27743706Y48207665D01*
X27829952Y48092456D01*
X27829955Y48092453D01*
X27945164Y48006207D01*
X27945171Y48006203D01*
X28080017Y47955909D01*
X28080016Y47955909D01*
X28086944Y47955165D01*
X28139627Y47949500D01*
X31435372Y47949501D01*
X31494983Y47955909D01*
X31629831Y48006204D01*
X31745046Y48092454D01*
X31831296Y48207669D01*
X31881591Y48342517D01*
X31888000Y48402127D01*
X31887999Y51697872D01*
X31881591Y51757483D01*
X31831296Y51892331D01*
X31831295Y51892332D01*
X31831293Y51892336D01*
X31745047Y52007545D01*
X31745044Y52007548D01*
X31629835Y52093794D01*
X31629828Y52093798D01*
X31494982Y52144092D01*
X31494983Y52144092D01*
X31435383Y52150499D01*
X31435381Y52150500D01*
X31435373Y52150500D01*
X31435365Y52150500D01*
X31216952Y52150500D01*
X31149913Y52170185D01*
X31104158Y52222989D01*
X31093631Y52287458D01*
X31105460Y52400000D01*
X31085674Y52588256D01*
X31027179Y52768284D01*
X30932533Y52932216D01*
X30805871Y53072888D01*
X30805870Y53072889D01*
X30652734Y53184149D01*
X30652729Y53184152D01*
X30479807Y53261143D01*
X30479802Y53261145D01*
X30334001Y53292135D01*
X30294646Y53300500D01*
X30105354Y53300500D01*
X30072897Y53293602D01*
X29920197Y53261145D01*
X29920192Y53261143D01*
X29747270Y53184152D01*
X29747265Y53184149D01*
X29594129Y53072889D01*
X29467466Y52932215D01*
X29372821Y52768285D01*
X29372818Y52768278D01*
X29314327Y52588260D01*
X29314326Y52588256D01*
X29294540Y52400001D01*
X29294540Y52400000D01*
X29306368Y52287461D01*
X29293798Y52218731D01*
X29246066Y52167708D01*
X29183047Y52150500D01*
X28139629Y52150500D01*
X28139623Y52150499D01*
X28080016Y52144092D01*
X27945171Y52093798D01*
X27945164Y52093794D01*
X27829955Y52007548D01*
X27829952Y52007545D01*
X27743706Y51892336D01*
X27743702Y51892329D01*
X27693408Y51757483D01*
X27688033Y51707484D01*
X27687001Y51697877D01*
X27687000Y51697865D01*
X27687000Y48402130D01*
X17275500Y48402130D01*
X17275499Y51647872D01*
X17269091Y51707483D01*
X17250442Y51757483D01*
X17218797Y51842329D01*
X17218793Y51842336D01*
X17132547Y51957545D01*
X17132544Y51957548D01*
X17017335Y52043794D01*
X17017328Y52043798D01*
X16882482Y52094092D01*
X16882483Y52094092D01*
X16822883Y52100499D01*
X16822881Y52100500D01*
X16822873Y52100500D01*
X16822865Y52100500D01*
X13941519Y52100500D01*
X13874480Y52120185D01*
X13853838Y52136819D01*
X10936819Y55053838D01*
X10903334Y55115161D01*
X10900500Y55141519D01*
X10900500Y56950000D01*
X12695000Y56950000D01*
X12695000Y55172156D01*
X12701401Y55112628D01*
X12701403Y55112621D01*
X12751645Y54977914D01*
X12751649Y54977907D01*
X12837809Y54862813D01*
X12837812Y54862810D01*
X12952906Y54776650D01*
X12952913Y54776646D01*
X13087620Y54726404D01*
X13087627Y54726402D01*
X13147155Y54720001D01*
X13147172Y54720000D01*
X14925000Y54720000D01*
X14925000Y56950000D01*
X15425000Y56950000D01*
X15425000Y54720000D01*
X17202828Y54720000D01*
X17202844Y54720001D01*
X17262372Y54726402D01*
X17262379Y54726404D01*
X17397086Y54776646D01*
X17397093Y54776650D01*
X17512187Y54862810D01*
X17512190Y54862813D01*
X17598350Y54977907D01*
X17598354Y54977914D01*
X17648596Y55112621D01*
X17648598Y55112628D01*
X17654999Y55172156D01*
X17655000Y55172173D01*
X17655000Y56950000D01*
X15425000Y56950000D01*
X14925000Y56950000D01*
X12695000Y56950000D01*
X10900500Y56950000D01*
X10900500Y57450000D01*
X12695000Y57450000D01*
X14925000Y57450000D01*
X14925000Y59680000D01*
X15425000Y59680000D01*
X15425000Y57450000D01*
X17655000Y57450000D01*
X17655000Y59227828D01*
X17654999Y59227845D01*
X17648598Y59287373D01*
X17648596Y59287380D01*
X17598354Y59422087D01*
X17598350Y59422094D01*
X17512190Y59537188D01*
X17512187Y59537191D01*
X17397093Y59623351D01*
X17397086Y59623355D01*
X17262379Y59673597D01*
X17262372Y59673599D01*
X17202844Y59680000D01*
X15425000Y59680000D01*
X14925000Y59680000D01*
X13147155Y59680000D01*
X13087627Y59673599D01*
X13087620Y59673597D01*
X12952913Y59623355D01*
X12952906Y59623351D01*
X12837812Y59537191D01*
X12837809Y59537188D01*
X12751649Y59422094D01*
X12751645Y59422087D01*
X12701403Y59287380D01*
X12701401Y59287373D01*
X12695000Y59227845D01*
X12695000Y57450000D01*
X10900500Y57450000D01*
X10900500Y59083483D01*
X10920185Y59150522D01*
X10936814Y59171159D01*
X14028837Y62263183D01*
X14090160Y62296667D01*
X14116518Y62299501D01*
X16822871Y62299501D01*
X16822872Y62299501D01*
X16882483Y62305909D01*
X17017331Y62356204D01*
X17132546Y62442454D01*
X17218796Y62557669D01*
X17269091Y62692517D01*
X17275500Y62752127D01*
X17275499Y66047872D01*
X17269091Y66107483D01*
X17250442Y66157483D01*
X17218797Y66242329D01*
X17218793Y66242336D01*
X17132547Y66357545D01*
X17132544Y66357548D01*
X17017335Y66443794D01*
X17017328Y66443798D01*
X16882482Y66494092D01*
X16882483Y66494092D01*
X16822883Y66500499D01*
X16822881Y66500500D01*
X16822873Y66500500D01*
X16822865Y66500500D01*
X14141519Y66500500D01*
X14074480Y66520185D01*
X14053838Y66536819D01*
X12590657Y68000000D01*
X23494540Y68000000D01*
X23514326Y67811744D01*
X23514327Y67811741D01*
X23572818Y67631723D01*
X23572821Y67631716D01*
X23667466Y67467785D01*
X23667648Y67467583D01*
X23667716Y67467441D01*
X23671285Y67462529D01*
X23670386Y67461877D01*
X23697879Y67404592D01*
X23699500Y67384609D01*
X23699500Y57224922D01*
X23699274Y57217434D01*
X23695642Y57157397D01*
X23695642Y57157395D01*
X23702236Y57121407D01*
X23703588Y57086097D01*
X23694540Y57000000D01*
X23714326Y56811744D01*
X23714327Y56811741D01*
X23772818Y56631723D01*
X23772821Y56631716D01*
X23867467Y56467784D01*
X23994129Y56327112D01*
X24147265Y56215852D01*
X24147270Y56215849D01*
X24320192Y56138858D01*
X24320197Y56138856D01*
X24505354Y56099500D01*
X24505355Y56099500D01*
X24694644Y56099500D01*
X24694646Y56099500D01*
X24879803Y56138856D01*
X25052730Y56215849D01*
X25205871Y56327112D01*
X25332533Y56467784D01*
X25427179Y56631716D01*
X25485674Y56811744D01*
X25505460Y57000000D01*
X25485674Y57188256D01*
X25427179Y57368284D01*
X25332533Y57532216D01*
X25282922Y57587314D01*
X25205876Y57672884D01*
X25205871Y57672888D01*
X25151613Y57712310D01*
X25108948Y57767641D01*
X25100500Y57812627D01*
X25100500Y62802130D01*
X27687000Y62802130D01*
X27687001Y62802124D01*
X27693408Y62742517D01*
X27743702Y62607672D01*
X27743706Y62607665D01*
X27829952Y62492456D01*
X27829955Y62492453D01*
X27945164Y62406207D01*
X27945171Y62406203D01*
X28080017Y62355909D01*
X28080016Y62355909D01*
X28086944Y62355165D01*
X28139627Y62349500D01*
X28963000Y62349501D01*
X29030039Y62329817D01*
X29075794Y62277013D01*
X29087000Y62225501D01*
X29087000Y62199275D01*
X29070388Y62137276D01*
X28972820Y61968282D01*
X28972818Y61968278D01*
X28914327Y61788260D01*
X28914326Y61788256D01*
X28894540Y61600000D01*
X28914326Y61411744D01*
X28914327Y61411741D01*
X28972818Y61231723D01*
X28972821Y61231716D01*
X29067467Y61067784D01*
X29194129Y60927112D01*
X29347265Y60815852D01*
X29347270Y60815849D01*
X29520192Y60738858D01*
X29520197Y60738856D01*
X29705354Y60699500D01*
X29705355Y60699500D01*
X29894644Y60699500D01*
X29894646Y60699500D01*
X30079803Y60738856D01*
X30252730Y60815849D01*
X30405871Y60927112D01*
X30532533Y61067784D01*
X30627179Y61231716D01*
X30685674Y61411744D01*
X30705460Y61600000D01*
X30685674Y61788256D01*
X30627179Y61968284D01*
X30532533Y62132216D01*
X30523246Y62142530D01*
X30493017Y62205520D01*
X30501642Y62274855D01*
X30546383Y62328521D01*
X30613036Y62349479D01*
X30615397Y62349501D01*
X31435371Y62349501D01*
X31435372Y62349501D01*
X31494983Y62355909D01*
X31629831Y62406204D01*
X31745046Y62492454D01*
X31831296Y62607669D01*
X31881591Y62742517D01*
X31888000Y62802127D01*
X31887999Y66097872D01*
X31881591Y66157483D01*
X31831296Y66292331D01*
X31831295Y66292332D01*
X31831293Y66292336D01*
X31745047Y66407545D01*
X31745044Y66407548D01*
X31629835Y66493794D01*
X31629828Y66493798D01*
X31494982Y66544092D01*
X31494983Y66544092D01*
X31435383Y66550499D01*
X31435381Y66550500D01*
X31435373Y66550500D01*
X31435364Y66550500D01*
X28139629Y66550500D01*
X28139623Y66550499D01*
X28080016Y66544092D01*
X27945171Y66493798D01*
X27945164Y66493794D01*
X27829955Y66407548D01*
X27829952Y66407545D01*
X27743706Y66292336D01*
X27743702Y66292329D01*
X27693408Y66157483D01*
X27688033Y66107484D01*
X27687001Y66097877D01*
X27687000Y66097865D01*
X27687000Y62802130D01*
X25100500Y62802130D01*
X25100500Y67384609D01*
X25120185Y67451648D01*
X25132352Y67467583D01*
X25132533Y67467784D01*
X25227179Y67631716D01*
X25285674Y67811744D01*
X25305460Y68000000D01*
X25285674Y68188256D01*
X25227179Y68368284D01*
X25132533Y68532216D01*
X25005871Y68672888D01*
X24982719Y68689709D01*
X24852734Y68784149D01*
X24852729Y68784152D01*
X24679807Y68861143D01*
X24679802Y68861145D01*
X24534001Y68892135D01*
X24494646Y68900500D01*
X24305354Y68900500D01*
X24272897Y68893602D01*
X24120197Y68861145D01*
X24120192Y68861143D01*
X23947270Y68784152D01*
X23947265Y68784149D01*
X23794129Y68672889D01*
X23667466Y68532215D01*
X23572821Y68368285D01*
X23572818Y68368278D01*
X23522233Y68212592D01*
X23514326Y68188256D01*
X23494540Y68000000D01*
X12590657Y68000000D01*
X11136819Y69453838D01*
X11103334Y69515161D01*
X11100500Y69541519D01*
X11100500Y71350000D01*
X11750000Y71350000D01*
X11750000Y69852156D01*
X11756401Y69792628D01*
X11756403Y69792621D01*
X11806645Y69657914D01*
X11806649Y69657907D01*
X11892809Y69542813D01*
X11892812Y69542810D01*
X12007906Y69456650D01*
X12007913Y69456646D01*
X12142620Y69406404D01*
X12142627Y69406402D01*
X12202155Y69400001D01*
X12202172Y69400000D01*
X13300000Y69400000D01*
X13300000Y71350000D01*
X13800000Y71350000D01*
X13800000Y69400000D01*
X14897828Y69400000D01*
X14897844Y69400001D01*
X14957372Y69406402D01*
X14957379Y69406404D01*
X15092086Y69456646D01*
X15092093Y69456650D01*
X15207187Y69542810D01*
X15207190Y69542813D01*
X15293350Y69657907D01*
X15293354Y69657914D01*
X15343596Y69792621D01*
X15343598Y69792628D01*
X15349996Y69852130D01*
X21749500Y69852130D01*
X21749501Y69852124D01*
X21755908Y69792517D01*
X21806202Y69657672D01*
X21806206Y69657665D01*
X21892452Y69542456D01*
X21892455Y69542453D01*
X22007664Y69456207D01*
X22007671Y69456203D01*
X22142517Y69405909D01*
X22142516Y69405909D01*
X22149444Y69405165D01*
X22202127Y69399500D01*
X24897872Y69399501D01*
X24957483Y69405909D01*
X25092331Y69456204D01*
X25207546Y69542454D01*
X25293796Y69657669D01*
X25344091Y69792517D01*
X25350500Y69852127D01*
X25350499Y73347872D01*
X25344091Y73407483D01*
X25293884Y73542094D01*
X25293797Y73542329D01*
X25293793Y73542336D01*
X25207547Y73657545D01*
X25207544Y73657548D01*
X25092335Y73743794D01*
X25092328Y73743798D01*
X24957482Y73794092D01*
X24957483Y73794092D01*
X24897883Y73800499D01*
X24897881Y73800500D01*
X24897873Y73800500D01*
X24897865Y73800500D01*
X24108460Y73800500D01*
X24041421Y73820185D01*
X23995666Y73872989D01*
X23985722Y73942147D01*
X24001073Y73986499D01*
X24027179Y74031716D01*
X24085674Y74211744D01*
X24105460Y74400000D01*
X24085674Y74588256D01*
X24027179Y74768284D01*
X23932533Y74932216D01*
X23805871Y75072888D01*
X23805870Y75072889D01*
X23652734Y75184149D01*
X23652729Y75184152D01*
X23479807Y75261143D01*
X23479802Y75261145D01*
X23334001Y75292135D01*
X23294646Y75300500D01*
X23105354Y75300500D01*
X23072897Y75293602D01*
X22920197Y75261145D01*
X22920192Y75261143D01*
X22747270Y75184152D01*
X22747265Y75184149D01*
X22594129Y75072889D01*
X22467466Y74932215D01*
X22372821Y74768285D01*
X22372818Y74768278D01*
X22314327Y74588260D01*
X22314326Y74588256D01*
X22294540Y74400000D01*
X22314326Y74211744D01*
X22314327Y74211741D01*
X22372818Y74031723D01*
X22372820Y74031719D01*
X22372821Y74031716D01*
X22373020Y74031372D01*
X22398927Y73986499D01*
X22415398Y73918598D01*
X22392546Y73852572D01*
X22337624Y73809382D01*
X22291540Y73800500D01*
X22202130Y73800500D01*
X22202123Y73800499D01*
X22142516Y73794092D01*
X22007671Y73743798D01*
X22007664Y73743794D01*
X21892455Y73657548D01*
X21892452Y73657545D01*
X21806206Y73542336D01*
X21806202Y73542329D01*
X21755908Y73407483D01*
X21749501Y73347884D01*
X21749501Y73347877D01*
X21749500Y73347865D01*
X21749500Y69852130D01*
X15349996Y69852130D01*
X15349999Y69852156D01*
X15350000Y69852173D01*
X15350000Y71350000D01*
X13800000Y71350000D01*
X13300000Y71350000D01*
X11750000Y71350000D01*
X11100500Y71350000D01*
X11100500Y71850000D01*
X11750000Y71850000D01*
X13300000Y71850000D01*
X13300000Y73800000D01*
X13800000Y73800000D01*
X13800000Y71850000D01*
X15350000Y71850000D01*
X15350000Y73347828D01*
X15349999Y73347845D01*
X15343598Y73407373D01*
X15343596Y73407380D01*
X15293354Y73542087D01*
X15293350Y73542094D01*
X15207190Y73657188D01*
X15207187Y73657191D01*
X15092093Y73743351D01*
X15092086Y73743355D01*
X14957379Y73793597D01*
X14957372Y73793599D01*
X14897844Y73800000D01*
X13800000Y73800000D01*
X13300000Y73800000D01*
X12202155Y73800000D01*
X12142627Y73793599D01*
X12142620Y73793597D01*
X12007913Y73743355D01*
X12007906Y73743351D01*
X11892812Y73657191D01*
X11892809Y73657188D01*
X11806649Y73542094D01*
X11806645Y73542087D01*
X11756403Y73407380D01*
X11756401Y73407373D01*
X11750000Y73347845D01*
X11750000Y71850000D01*
X11100500Y71850000D01*
X11100500Y73520982D01*
X11120185Y73588021D01*
X11136814Y73608658D01*
X14730286Y77202130D01*
X20487000Y77202130D01*
X20487001Y77202124D01*
X20493408Y77142517D01*
X20543702Y77007672D01*
X20543706Y77007665D01*
X20629952Y76892456D01*
X20629955Y76892453D01*
X20745164Y76806207D01*
X20745171Y76806203D01*
X20880017Y76755909D01*
X20880016Y76755909D01*
X20886944Y76755165D01*
X20939627Y76749500D01*
X23645980Y76749501D01*
X23713019Y76729816D01*
X23733661Y76713182D01*
X32463181Y67983662D01*
X32496666Y67922339D01*
X32499500Y67895981D01*
X32499500Y61141520D01*
X32479815Y61074481D01*
X32463181Y61053839D01*
X31176161Y59766819D01*
X31114838Y59733334D01*
X31088480Y59730500D01*
X27759629Y59730500D01*
X27759623Y59730499D01*
X27700016Y59724092D01*
X27565171Y59673798D01*
X27565164Y59673794D01*
X27449955Y59587548D01*
X27449952Y59587545D01*
X27363706Y59472336D01*
X27363702Y59472329D01*
X27313408Y59337483D01*
X27307001Y59277884D01*
X27307000Y59277865D01*
X27307000Y55222130D01*
X27307001Y55222124D01*
X27313408Y55162517D01*
X27363702Y55027672D01*
X27363706Y55027665D01*
X27449952Y54912456D01*
X27449955Y54912453D01*
X27565164Y54826207D01*
X27565171Y54826203D01*
X27700017Y54775909D01*
X27700016Y54775909D01*
X27706944Y54775165D01*
X27759627Y54769500D01*
X31815372Y54769501D01*
X31874983Y54775909D01*
X32009831Y54826204D01*
X32125046Y54912454D01*
X32211296Y55027669D01*
X32261591Y55162517D01*
X32268000Y55222127D01*
X32267999Y58825983D01*
X32287684Y58893021D01*
X32304313Y58913658D01*
X33677731Y60287076D01*
X33683151Y60292178D01*
X33728183Y60332071D01*
X33762362Y60381589D01*
X33766789Y60387604D01*
X33803878Y60434944D01*
X33808037Y60444187D01*
X33819061Y60463732D01*
X33824818Y60472070D01*
X33846145Y60528306D01*
X33849013Y60535230D01*
X33873693Y60590064D01*
X33873693Y60590066D01*
X33873695Y60590069D01*
X33875522Y60600041D01*
X33881546Y60621653D01*
X33885140Y60631128D01*
X33892387Y60690816D01*
X33893514Y60698223D01*
X33893748Y60699500D01*
X33904358Y60757394D01*
X33900726Y60817435D01*
X33900500Y60824922D01*
X33900500Y68212592D01*
X33900726Y68220079D01*
X33904357Y68280106D01*
X33904356Y68280109D01*
X33893516Y68339265D01*
X33892389Y68346670D01*
X33885140Y68406371D01*
X33885139Y68406375D01*
X33881546Y68415849D01*
X33875519Y68437471D01*
X33873694Y68447430D01*
X33873694Y68447432D01*
X33849012Y68502272D01*
X33846151Y68509178D01*
X33824818Y68565430D01*
X33819059Y68573773D01*
X33808030Y68593328D01*
X33803877Y68602557D01*
X33803874Y68602562D01*
X33766788Y68649899D01*
X33762349Y68655931D01*
X33740862Y68687060D01*
X33728183Y68705429D01*
X33683153Y68745322D01*
X33677715Y68750442D01*
X24724318Y77703839D01*
X24690833Y77765162D01*
X24687999Y77791520D01*
X24687999Y78845981D01*
X24707684Y78913020D01*
X24724318Y78933662D01*
X27677731Y81887076D01*
X27683151Y81892178D01*
X27728183Y81932071D01*
X27762366Y81981596D01*
X27766775Y81987587D01*
X27803878Y82034943D01*
X27808037Y82044185D01*
X27819062Y82063732D01*
X27824818Y82072070D01*
X27846146Y82128312D01*
X27849002Y82135209D01*
X27873694Y82190068D01*
X27875520Y82200035D01*
X27881548Y82221660D01*
X27885140Y82231128D01*
X27892389Y82290831D01*
X27893516Y82298238D01*
X27904357Y82357394D01*
X27900726Y82417423D01*
X27900500Y82424910D01*
X27900500Y88775092D01*
X27900726Y88782579D01*
X27904357Y88842606D01*
X27904356Y88842609D01*
X27893516Y88901765D01*
X27892389Y88909170D01*
X27885140Y88968871D01*
X27885139Y88968875D01*
X27881546Y88978349D01*
X27875519Y88999971D01*
X27873694Y89009930D01*
X27873694Y89009932D01*
X27849012Y89064772D01*
X27846151Y89071678D01*
X27824818Y89127930D01*
X27819059Y89136273D01*
X27808030Y89155828D01*
X27803877Y89165057D01*
X27803874Y89165062D01*
X27766788Y89212399D01*
X27762349Y89218431D01*
X27757827Y89224982D01*
X27728183Y89267929D01*
X27683153Y89307822D01*
X27677715Y89312942D01*
X24724318Y92266339D01*
X24690833Y92327662D01*
X24687999Y92354020D01*
X24687999Y94897871D01*
X24687998Y94897877D01*
X24687997Y94897884D01*
X24681591Y94957483D01*
X24631296Y95092331D01*
X24631295Y95092332D01*
X24631293Y95092336D01*
X24545047Y95207545D01*
X24545044Y95207548D01*
X24429835Y95293794D01*
X24429828Y95293798D01*
X24294982Y95344092D01*
X24294983Y95344092D01*
X24235383Y95350499D01*
X24235381Y95350500D01*
X24235373Y95350500D01*
X24235364Y95350500D01*
X20939629Y95350500D01*
X20939623Y95350499D01*
X20880016Y95344092D01*
X20745171Y95293798D01*
X20745164Y95293794D01*
X20629955Y95207548D01*
X20629952Y95207545D01*
X20543706Y95092336D01*
X20543702Y95092329D01*
X20493408Y94957483D01*
X20487001Y94897884D01*
X20487001Y94897877D01*
X20487000Y94897865D01*
X20487000Y91602130D01*
X20487001Y91602124D01*
X20493408Y91542517D01*
X20543702Y91407672D01*
X20543706Y91407665D01*
X20629952Y91292456D01*
X20629955Y91292453D01*
X20745164Y91206207D01*
X20745171Y91206203D01*
X20880017Y91155909D01*
X20880016Y91155909D01*
X20886944Y91155165D01*
X20939627Y91149500D01*
X23808480Y91149501D01*
X23875519Y91129816D01*
X23896161Y91113182D01*
X26463181Y88546162D01*
X26496666Y88484839D01*
X26499500Y88458481D01*
X26499500Y82741520D01*
X26479815Y82674481D01*
X26463181Y82653839D01*
X24662108Y80852767D01*
X24600785Y80819282D01*
X24531093Y80824266D01*
X24500116Y80841181D01*
X24429831Y80893796D01*
X24429828Y80893798D01*
X24294982Y80944092D01*
X24294983Y80944092D01*
X24235383Y80950499D01*
X24235381Y80950500D01*
X24235373Y80950500D01*
X24235364Y80950500D01*
X20939629Y80950500D01*
X20939623Y80950499D01*
X20880016Y80944092D01*
X20745171Y80893798D01*
X20745164Y80893794D01*
X20629955Y80807548D01*
X20629952Y80807545D01*
X20543706Y80692336D01*
X20543702Y80692329D01*
X20493408Y80557483D01*
X20487001Y80497884D01*
X20487000Y80497865D01*
X20487000Y77202130D01*
X14730286Y77202130D01*
X21061338Y83533183D01*
X21122661Y83566667D01*
X21149019Y83569501D01*
X24615371Y83569501D01*
X24615372Y83569501D01*
X24674983Y83575909D01*
X24809831Y83626204D01*
X24925046Y83712454D01*
X25011296Y83827669D01*
X25061591Y83962517D01*
X25068000Y84022127D01*
X25067999Y88077872D01*
X25061591Y88137483D01*
X25011296Y88272331D01*
X25011295Y88272332D01*
X25011293Y88272336D01*
X24925047Y88387545D01*
X24925044Y88387548D01*
X24809835Y88473794D01*
X24809828Y88473798D01*
X24674982Y88524092D01*
X24674983Y88524092D01*
X24615383Y88530499D01*
X24615381Y88530500D01*
X24615373Y88530500D01*
X24615364Y88530500D01*
X20559629Y88530500D01*
X20559623Y88530499D01*
X20500016Y88524092D01*
X20365171Y88473798D01*
X20365164Y88473794D01*
X20249955Y88387548D01*
X20249952Y88387545D01*
X20163706Y88272336D01*
X20163702Y88272329D01*
X20113408Y88137483D01*
X20107001Y88077884D01*
X20107001Y88077877D01*
X20107000Y88077865D01*
X20107000Y84611520D01*
X20087315Y84544481D01*
X20070681Y84523839D01*
X9922290Y74375449D01*
X9916838Y74370317D01*
X9871819Y74330432D01*
X9837649Y74280931D01*
X9833213Y74274903D01*
X9796124Y74227562D01*
X9796119Y74227552D01*
X9791960Y74218312D01*
X9780942Y74198777D01*
X9775187Y74190439D01*
X9775179Y74190424D01*
X9753853Y74134195D01*
X9750989Y74127280D01*
X9726305Y74072432D01*
X9724477Y74062458D01*
X9718453Y74040847D01*
X9714860Y74031373D01*
X9714860Y74031372D01*
X9707610Y73971673D01*
X9706483Y73964273D01*
X9695642Y73905111D01*
X9695642Y73905105D01*
X9699274Y73845068D01*
X9699500Y73837580D01*
X9699500Y69224922D01*
X9699274Y69217434D01*
X9695642Y69157397D01*
X9695642Y69157395D01*
X9706483Y69098230D01*
X9707610Y69090829D01*
X9714859Y69031129D01*
X9714860Y69031126D01*
X9718451Y69021657D01*
X9724474Y69000054D01*
X9726304Y68990070D01*
X9750991Y68935218D01*
X9753854Y68928306D01*
X9775182Y68872070D01*
X9775183Y68872069D01*
X9780936Y68863734D01*
X9791961Y68844187D01*
X9796120Y68834945D01*
X9796124Y68834940D01*
X9833215Y68787597D01*
X9837655Y68781562D01*
X9871812Y68732076D01*
X9871816Y68732071D01*
X9916828Y68692195D01*
X9922283Y68687060D01*
X13038181Y65571162D01*
X13071666Y65509839D01*
X13074500Y65483481D01*
X13074500Y63341520D01*
X13054815Y63274481D01*
X13038181Y63253839D01*
X9722290Y59937949D01*
X9716838Y59932817D01*
X9671819Y59892932D01*
X9637649Y59843431D01*
X9633213Y59837403D01*
X9596124Y59790062D01*
X9596119Y59790052D01*
X9591960Y59780812D01*
X9580942Y59761277D01*
X9575187Y59752939D01*
X9575179Y59752924D01*
X9553853Y59696695D01*
X9550989Y59689780D01*
X9526305Y59634932D01*
X9524477Y59624958D01*
X9518453Y59603347D01*
X9514860Y59593873D01*
X9514860Y59593872D01*
X9507610Y59534173D01*
X9506483Y59526773D01*
X9495642Y59467611D01*
X9495642Y59467605D01*
X9499274Y59407568D01*
X9499500Y59400080D01*
X9499500Y54824922D01*
X9499274Y54817434D01*
X9495642Y54757397D01*
X9495642Y54757395D01*
X8930222Y54757395D01*
X8930222Y81267688D01*
X8949907Y81334727D01*
X9002711Y81380482D01*
X9054222Y81391688D01*
X13999730Y81391688D01*
X13999731Y81391688D01*
X14025928Y81399381D01*
X14043193Y81403137D01*
X14070226Y81407023D01*
X14095056Y81418364D01*
X14111624Y81424544D01*
X14137823Y81432235D01*
X14160793Y81446998D01*
X14176304Y81455469D01*
X14201142Y81466811D01*
X14221772Y81484688D01*
X14235923Y81495282D01*
X14258898Y81510046D01*
X14276775Y81530678D01*
X14289281Y81543185D01*
X14309912Y81561060D01*
X14324676Y81584035D01*
X14335262Y81598177D01*
X14353147Y81618816D01*
X14364486Y81643645D01*
X14372967Y81659177D01*
X14387722Y81682135D01*
X14395413Y81708332D01*
X14401594Y81724903D01*
X14412934Y81749732D01*
X14416820Y81776765D01*
X14420577Y81794034D01*
X14428269Y81820227D01*
X14428269Y81964149D01*
X14428269Y81988586D01*
X14428267Y81988707D01*
X14428236Y98767689D01*
X14447920Y98834727D01*
X14500724Y98880482D01*
X14552236Y98891688D01*
X14895150Y98891688D01*
X14962189Y98872003D01*
G37*
%TD.AperFunction*%
%TD*%
M02*
