%TF.GenerationSoftware,KiCad,Pcbnew,7.0.11*%
%TF.CreationDate,2025-02-10T21:59:36-08:00*%
%TF.ProjectId,enderman,656e6465-726d-4616-9e2e-6b696361645f,rev?*%
%TF.SameCoordinates,PX6ed1240PY84f1340*%
%TF.FileFunction,Copper,L2,Bot*%
%TF.FilePolarity,Positive*%
%FSLAX46Y46*%
G04 Gerber Fmt 4.6, Leading zero omitted, Abs format (unit mm)*
G04 Created by KiCad (PCBNEW 7.0.11) date 2025-02-10 21:59:36*
%MOMM*%
%LPD*%
G01*
G04 APERTURE LIST*
%TA.AperFunction,SMDPad,CuDef*%
%ADD10R,3.200000X3.200000*%
%TD*%
%TA.AperFunction,SMDPad,CuDef*%
%ADD11R,3.960000X3.960000*%
%TD*%
%TA.AperFunction,SMDPad,CuDef*%
%ADD12R,2.000000X2.000000*%
%TD*%
%TA.AperFunction,ViaPad*%
%ADD13C,0.600000*%
%TD*%
%TA.AperFunction,Conductor*%
%ADD14C,0.400000*%
%TD*%
G04 APERTURE END LIST*
D10*
%TO.P,BT2,1,+*%
%TO.N,+6V*%
X22387500Y79000000D03*
X22387500Y93400000D03*
D11*
%TO.P,BT2,2,-*%
%TO.N,Net-(BT2--)*%
X22387500Y86200000D03*
%TD*%
D10*
%TO.P,BT3,1,+*%
%TO.N,Net-(BT2--)*%
X31800000Y50000000D03*
X31800000Y64400000D03*
D11*
%TO.P,BT3,2,-*%
%TO.N,Net-(BT1-+)*%
X31800000Y57200000D03*
%TD*%
D12*
%TO.P,TP1,1,1*%
%TO.N,unconnected-(TP1-Pad1)*%
X29000000Y96600000D03*
%TD*%
D10*
%TO.P,BT1,1,+*%
%TO.N,Net-(BT1-+)*%
X15175000Y50000000D03*
X15175000Y64400000D03*
D11*
%TO.P,BT1,2,-*%
%TO.N,GND*%
X15175000Y57200000D03*
%TD*%
D12*
%TO.P,TP2,1,1*%
%TO.N,unconnected-(TP2-Pad1)*%
X16000000Y96600000D03*
%TD*%
D13*
%TO.N,Net-(D2-K)*%
X29600000Y90600000D03*
%TO.N,Net-(D1-K)*%
X15600000Y90800000D03*
%TO.N,GND*%
X26400000Y48000000D03*
X25800000Y64200000D03*
X28410000Y64200000D03*
X22810000Y49010000D03*
X17600000Y61200000D03*
%TO.N,+6V*%
X21410000Y49467500D03*
X18600000Y80800000D03*
X23410000Y53267500D03*
%TO.N,Net-(D1-K)*%
X21200000Y73800000D03*
%TO.N,Net-(D2-K)*%
X25900000Y69700000D03*
%TO.N,Net-(U2B-Q)*%
X19210000Y70067500D03*
X25810000Y62867500D03*
%TO.N,Net-(U2A-Q)*%
X19610000Y67467500D03*
X24010000Y56667500D03*
%TD*%
D14*
%TO.N,Net-(D2-K)*%
X29600000Y90600000D02*
X29600000Y73400000D01*
X29600000Y73400000D02*
X25900000Y69700000D01*
%TO.N,Net-(D1-K)*%
X15600000Y90800000D02*
X15600000Y79400000D01*
X15600000Y79400000D02*
X21200000Y73800000D01*
%TO.N,Net-(BT1-+)*%
X17386096Y47788904D02*
X23988904Y47788904D01*
X15175000Y50000000D02*
X17386096Y47788904D01*
X11600000Y60825000D02*
X15175000Y64400000D01*
X31800000Y55600000D02*
X31800000Y57200000D01*
X11600000Y53575000D02*
X11600000Y60825000D01*
X15175000Y50000000D02*
X11600000Y53575000D01*
X23988904Y47788904D02*
X31800000Y55600000D01*
%TO.N,GND*%
X22567500Y48767500D02*
X20432500Y48767500D01*
X28410000Y64200000D02*
X25800000Y64200000D01*
X20432500Y48767500D02*
X15175000Y54025000D01*
X15175000Y58775000D02*
X17600000Y61200000D01*
X22810000Y49010000D02*
X22567500Y48767500D01*
X15175000Y54025000D02*
X15175000Y57200000D01*
X15175000Y57200000D02*
X15175000Y58775000D01*
%TO.N,+6V*%
X18600000Y89612500D02*
X22387500Y93400000D01*
X23410000Y53267500D02*
X21410000Y51267500D01*
X20587500Y80800000D02*
X22387500Y79000000D01*
X18600000Y80800000D02*
X18600000Y89612500D01*
X18600000Y80800000D02*
X20587500Y80800000D01*
X21410000Y51267500D02*
X21410000Y49467500D01*
%TO.N,Net-(BT2--)*%
X31800000Y64400000D02*
X30000000Y64400000D01*
X35200000Y53400000D02*
X35200000Y61000000D01*
X35200000Y61000000D02*
X31800000Y64400000D01*
X31800000Y50000000D02*
X35200000Y53400000D01*
X24800000Y83787500D02*
X22387500Y86200000D01*
X30000000Y64400000D02*
X24800000Y69600000D01*
X24800000Y69600000D02*
X24800000Y83787500D01*
%TO.N,Net-(U2B-Q)*%
X19210000Y69467500D02*
X19210000Y70067500D01*
X25810000Y62867500D02*
X19210000Y69467500D01*
%TO.N,Net-(U2A-Q)*%
X24010000Y56667500D02*
X24010000Y62867500D01*
X19610000Y67267500D02*
X19610000Y67467500D01*
X24010000Y62867500D02*
X19610000Y67267500D01*
%TD*%
%TA.AperFunction,Conductor*%
%TO.N,GND*%
G36*
X30432770Y98872003D02*
G01*
X30478525Y98819199D01*
X30489731Y98767688D01*
X30489731Y98106315D01*
X30470046Y98039276D01*
X30417242Y97993521D01*
X30348084Y97983577D01*
X30291420Y98007048D01*
X30288512Y98009225D01*
X30242331Y98043796D01*
X30242329Y98043797D01*
X30242328Y98043798D01*
X30107482Y98094092D01*
X30107483Y98094092D01*
X30047883Y98100499D01*
X30047881Y98100500D01*
X30047873Y98100500D01*
X30047864Y98100500D01*
X27952129Y98100500D01*
X27952123Y98100499D01*
X27892516Y98094092D01*
X27757671Y98043798D01*
X27757664Y98043794D01*
X27642455Y97957548D01*
X27642452Y97957545D01*
X27556206Y97842336D01*
X27556202Y97842329D01*
X27505908Y97707483D01*
X27499501Y97647884D01*
X27499501Y97647877D01*
X27499500Y97647865D01*
X27499500Y95552130D01*
X27499501Y95552124D01*
X27505908Y95492517D01*
X27556202Y95357672D01*
X27556206Y95357665D01*
X27642452Y95242456D01*
X27642455Y95242453D01*
X27757664Y95156207D01*
X27757671Y95156203D01*
X27892517Y95105909D01*
X27892516Y95105909D01*
X27899444Y95105165D01*
X27952127Y95099500D01*
X30047872Y95099501D01*
X30107483Y95105909D01*
X30242331Y95156204D01*
X30291420Y95192953D01*
X30356883Y95217370D01*
X30425156Y95202519D01*
X30474562Y95153115D01*
X30489731Y95093686D01*
X30489731Y91119024D01*
X30470046Y91051985D01*
X30417242Y91006230D01*
X30348084Y90996286D01*
X30284528Y91025311D01*
X30260738Y91053051D01*
X30229817Y91102261D01*
X30102262Y91229816D01*
X29949523Y91325789D01*
X29779254Y91385369D01*
X29779249Y91385370D01*
X29600004Y91405565D01*
X29599996Y91405565D01*
X29420750Y91385370D01*
X29420745Y91385369D01*
X29250476Y91325789D01*
X29097737Y91229816D01*
X28970184Y91102263D01*
X28874211Y90949524D01*
X28814631Y90779255D01*
X28814630Y90779250D01*
X28794435Y90600004D01*
X28794435Y90599997D01*
X28814630Y90420751D01*
X28814631Y90420746D01*
X28874212Y90250475D01*
X28880492Y90240481D01*
X28899500Y90174507D01*
X28899500Y73741520D01*
X28879815Y73674481D01*
X28863181Y73653839D01*
X25712181Y70502839D01*
X25650858Y70469354D01*
X25581166Y70474338D01*
X25525233Y70516210D01*
X25500816Y70581674D01*
X25500500Y70590520D01*
X25500500Y83762592D01*
X25500726Y83770079D01*
X25501097Y83776204D01*
X25504357Y83830106D01*
X25493516Y83889265D01*
X25492389Y83896670D01*
X25485140Y83956371D01*
X25485139Y83956375D01*
X25481546Y83965849D01*
X25475519Y83987471D01*
X25473694Y83997430D01*
X25473694Y83997432D01*
X25449010Y84052277D01*
X25446149Y84059183D01*
X25424818Y84115430D01*
X25419058Y84123774D01*
X25408035Y84143320D01*
X25403878Y84152557D01*
X25366763Y84199931D01*
X25362345Y84205937D01*
X25328185Y84255427D01*
X25328183Y84255429D01*
X25283153Y84295322D01*
X25277715Y84300442D01*
X24904318Y84673839D01*
X24870833Y84735162D01*
X24867999Y84761520D01*
X24867999Y88227871D01*
X24867998Y88227877D01*
X24867997Y88227884D01*
X24861591Y88287483D01*
X24811296Y88422331D01*
X24811295Y88422332D01*
X24811293Y88422336D01*
X24725047Y88537545D01*
X24725044Y88537548D01*
X24609835Y88623794D01*
X24609828Y88623798D01*
X24474982Y88674092D01*
X24474983Y88674092D01*
X24415383Y88680499D01*
X24415381Y88680500D01*
X24415373Y88680500D01*
X24415364Y88680500D01*
X20359629Y88680500D01*
X20359623Y88680499D01*
X20300016Y88674092D01*
X20165171Y88623798D01*
X20165164Y88623794D01*
X20049955Y88537548D01*
X20049952Y88537545D01*
X19963706Y88422336D01*
X19963702Y88422329D01*
X19913408Y88287483D01*
X19907001Y88227884D01*
X19907001Y88227877D01*
X19907000Y88227865D01*
X19907000Y84172130D01*
X19907001Y84172124D01*
X19913408Y84112517D01*
X19963702Y83977672D01*
X19963706Y83977665D01*
X20049952Y83862456D01*
X20049955Y83862453D01*
X20165164Y83776207D01*
X20165171Y83776203D01*
X20300017Y83725909D01*
X20300016Y83725909D01*
X20306944Y83725165D01*
X20359627Y83719500D01*
X23825980Y83719501D01*
X23893019Y83699816D01*
X23913661Y83683182D01*
X24063181Y83533662D01*
X24096666Y83472339D01*
X24099500Y83445981D01*
X24099500Y81224500D01*
X24079815Y81157461D01*
X24027011Y81111706D01*
X23975500Y81100500D01*
X21329019Y81100500D01*
X21261980Y81120185D01*
X21241338Y81136819D01*
X21100440Y81277717D01*
X21095305Y81283172D01*
X21055429Y81328184D01*
X21055424Y81328188D01*
X21005938Y81362345D01*
X20999903Y81366785D01*
X20952560Y81403876D01*
X20952555Y81403880D01*
X20943313Y81408039D01*
X20923766Y81419064D01*
X20915431Y81424817D01*
X20915432Y81424817D01*
X20915430Y81424818D01*
X20859194Y81446146D01*
X20852290Y81449006D01*
X20797432Y81473695D01*
X20797430Y81473696D01*
X20787446Y81475526D01*
X20765843Y81481549D01*
X20756374Y81485140D01*
X20756371Y81485141D01*
X20696671Y81492390D01*
X20689270Y81493517D01*
X20630109Y81504358D01*
X20630103Y81504358D01*
X20570067Y81500726D01*
X20562579Y81500500D01*
X19424500Y81500500D01*
X19357461Y81520185D01*
X19311706Y81572989D01*
X19300500Y81624500D01*
X19300500Y89270982D01*
X19320185Y89338021D01*
X19336814Y89358658D01*
X21241338Y91263183D01*
X21302661Y91296667D01*
X21329019Y91299501D01*
X24035371Y91299501D01*
X24035372Y91299501D01*
X24094983Y91305909D01*
X24229831Y91356204D01*
X24345046Y91442454D01*
X24431296Y91557669D01*
X24481591Y91692517D01*
X24488000Y91752127D01*
X24487999Y95047872D01*
X24481591Y95107483D01*
X24464571Y95153115D01*
X24431297Y95242329D01*
X24431293Y95242336D01*
X24345047Y95357545D01*
X24345044Y95357548D01*
X24229835Y95443794D01*
X24229828Y95443798D01*
X24094982Y95494092D01*
X24094983Y95494092D01*
X24035383Y95500499D01*
X24035381Y95500500D01*
X24035373Y95500500D01*
X24035364Y95500500D01*
X20739629Y95500500D01*
X20739623Y95500499D01*
X20680016Y95494092D01*
X20545171Y95443798D01*
X20545164Y95443794D01*
X20429955Y95357548D01*
X20429952Y95357545D01*
X20343706Y95242336D01*
X20343702Y95242329D01*
X20293408Y95107483D01*
X20287001Y95047884D01*
X20287001Y95047877D01*
X20287000Y95047865D01*
X20287000Y92341520D01*
X20267315Y92274481D01*
X20250681Y92253839D01*
X18122290Y90125449D01*
X18116838Y90120317D01*
X18071819Y90080432D01*
X18037649Y90030931D01*
X18033213Y90024903D01*
X17996124Y89977562D01*
X17996119Y89977552D01*
X17991960Y89968312D01*
X17980942Y89948777D01*
X17975187Y89940439D01*
X17975179Y89940424D01*
X17953853Y89884195D01*
X17950989Y89877280D01*
X17926305Y89822432D01*
X17924477Y89812458D01*
X17918453Y89790847D01*
X17914860Y89781373D01*
X17914860Y89781372D01*
X17907610Y89721673D01*
X17906483Y89714273D01*
X17895642Y89655111D01*
X17895642Y89655105D01*
X17899274Y89595068D01*
X17899500Y89587580D01*
X17899500Y81225493D01*
X17880494Y81159522D01*
X17874209Y81149521D01*
X17814633Y80979263D01*
X17814630Y80979250D01*
X17794435Y80800004D01*
X17794435Y80799997D01*
X17814630Y80620751D01*
X17814631Y80620746D01*
X17874211Y80450477D01*
X17970184Y80297738D01*
X18097738Y80170184D01*
X18188080Y80113418D01*
X18250474Y80074213D01*
X18250478Y80074211D01*
X18385368Y80027011D01*
X18420745Y80014632D01*
X18420750Y80014631D01*
X18599996Y79994435D01*
X18600000Y79994435D01*
X18600004Y79994435D01*
X18779249Y80014631D01*
X18779252Y80014632D01*
X18779255Y80014632D01*
X18949522Y80074211D01*
X18950488Y80074819D01*
X18959523Y80080494D01*
X19025494Y80099500D01*
X20163000Y80099500D01*
X20230039Y80079815D01*
X20275794Y80027011D01*
X20287000Y79975500D01*
X20287000Y77352130D01*
X20287001Y77352124D01*
X20293408Y77292517D01*
X20343702Y77157672D01*
X20343706Y77157665D01*
X20429952Y77042456D01*
X20429955Y77042453D01*
X20545164Y76956207D01*
X20545171Y76956203D01*
X20680017Y76905909D01*
X20680016Y76905909D01*
X20686944Y76905165D01*
X20739627Y76899500D01*
X23975500Y76899501D01*
X24042539Y76879816D01*
X24088294Y76827012D01*
X24099500Y76775501D01*
X24099500Y69624922D01*
X24099274Y69617434D01*
X24095642Y69557397D01*
X24095642Y69557395D01*
X24106483Y69498230D01*
X24107610Y69490829D01*
X24114859Y69431129D01*
X24114860Y69431126D01*
X24118451Y69421657D01*
X24124474Y69400054D01*
X24126304Y69390070D01*
X24126305Y69390068D01*
X24144122Y69350479D01*
X24150991Y69335218D01*
X24153854Y69328306D01*
X24175182Y69272070D01*
X24175183Y69272069D01*
X24180936Y69263734D01*
X24191961Y69244187D01*
X24196120Y69234945D01*
X24196124Y69234940D01*
X24233215Y69187597D01*
X24237655Y69181562D01*
X24271812Y69132076D01*
X24271816Y69132071D01*
X24316828Y69092195D01*
X24322283Y69087060D01*
X29487051Y63922293D01*
X29492171Y63916855D01*
X29532071Y63871817D01*
X29581574Y63837648D01*
X29587603Y63833212D01*
X29634944Y63796122D01*
X29634949Y63796120D01*
X29639648Y63793279D01*
X29686836Y63741752D01*
X29699500Y63687161D01*
X29699500Y62752130D01*
X29699501Y62752124D01*
X29705908Y62692517D01*
X29756202Y62557672D01*
X29756206Y62557665D01*
X29842452Y62442456D01*
X29842455Y62442453D01*
X29957664Y62356207D01*
X29957671Y62356203D01*
X30092517Y62305909D01*
X30092516Y62305909D01*
X30099444Y62305165D01*
X30152127Y62299500D01*
X32858480Y62299501D01*
X32925519Y62279816D01*
X32946161Y62263182D01*
X34463181Y60746162D01*
X34496666Y60684839D01*
X34499500Y60658481D01*
X34499500Y59370426D01*
X34479815Y59303387D01*
X34427011Y59257632D01*
X34357853Y59247688D01*
X34294297Y59276713D01*
X34259318Y59327093D01*
X34223797Y59422329D01*
X34223793Y59422336D01*
X34137547Y59537545D01*
X34137544Y59537548D01*
X34022335Y59623794D01*
X34022328Y59623798D01*
X33887482Y59674092D01*
X33887483Y59674092D01*
X33827883Y59680499D01*
X33827881Y59680500D01*
X33827873Y59680500D01*
X33827864Y59680500D01*
X29772129Y59680500D01*
X29772123Y59680499D01*
X29712516Y59674092D01*
X29577671Y59623798D01*
X29577664Y59623794D01*
X29462455Y59537548D01*
X29462452Y59537545D01*
X29376206Y59422336D01*
X29376202Y59422329D01*
X29325908Y59287483D01*
X29319501Y59227884D01*
X29319500Y59227865D01*
X29319500Y55172130D01*
X29319501Y55172124D01*
X29325908Y55112517D01*
X29376202Y54977672D01*
X29376206Y54977665D01*
X29462452Y54862456D01*
X29462455Y54862453D01*
X29577664Y54776207D01*
X29577671Y54776203D01*
X29693960Y54732830D01*
X29749894Y54690959D01*
X29774311Y54625495D01*
X29759460Y54557222D01*
X29738308Y54528967D01*
X23735066Y48525723D01*
X23673743Y48492238D01*
X23647385Y48489404D01*
X21768283Y48489404D01*
X21701244Y48509089D01*
X21655489Y48561893D01*
X21645545Y48631051D01*
X21674570Y48694607D01*
X21727329Y48730446D01*
X21738348Y48734303D01*
X21759522Y48741711D01*
X21912262Y48837684D01*
X22039816Y48965238D01*
X22135789Y49117978D01*
X22195368Y49288245D01*
X22215565Y49467500D01*
X22195368Y49646755D01*
X22195367Y49646757D01*
X22195366Y49646763D01*
X22135790Y49817021D01*
X22129506Y49827022D01*
X22110500Y49892993D01*
X22110500Y50925982D01*
X22130185Y50993021D01*
X22146814Y51013658D01*
X23609290Y52476135D01*
X23656013Y52505493D01*
X23759522Y52541711D01*
X23912262Y52637684D01*
X24039816Y52765238D01*
X24135789Y52917978D01*
X24195368Y53088245D01*
X24197490Y53107076D01*
X24215565Y53267497D01*
X24215565Y53267504D01*
X24195369Y53446750D01*
X24195368Y53446755D01*
X24172007Y53513516D01*
X24135789Y53617022D01*
X24039816Y53769762D01*
X23912262Y53897316D01*
X23881701Y53916519D01*
X23759523Y53993289D01*
X23589254Y54052869D01*
X23589249Y54052870D01*
X23410004Y54073065D01*
X23409996Y54073065D01*
X23230750Y54052870D01*
X23230745Y54052869D01*
X23060476Y53993289D01*
X22907737Y53897316D01*
X22780184Y53769763D01*
X22684212Y53617025D01*
X22684211Y53617024D01*
X22647992Y53513516D01*
X22618632Y53466791D01*
X20932290Y51780449D01*
X20926838Y51775317D01*
X20881819Y51735432D01*
X20847649Y51685931D01*
X20843213Y51679903D01*
X20806124Y51632562D01*
X20806119Y51632552D01*
X20801960Y51623312D01*
X20790942Y51603777D01*
X20785187Y51595439D01*
X20785179Y51595424D01*
X20763853Y51539195D01*
X20760989Y51532280D01*
X20736305Y51477432D01*
X20734477Y51467458D01*
X20728453Y51445847D01*
X20724860Y51436373D01*
X20724860Y51436372D01*
X20717610Y51376673D01*
X20716483Y51369273D01*
X20705642Y51310111D01*
X20705642Y51310105D01*
X20709274Y51250068D01*
X20709500Y51242580D01*
X20709500Y49892993D01*
X20690494Y49827022D01*
X20684209Y49817021D01*
X20624633Y49646763D01*
X20624630Y49646750D01*
X20604435Y49467504D01*
X20604435Y49467497D01*
X20624630Y49288251D01*
X20624631Y49288246D01*
X20684211Y49117977D01*
X20780184Y48965238D01*
X20907738Y48837684D01*
X21060478Y48741711D01*
X21092671Y48730446D01*
X21149447Y48689724D01*
X21175195Y48624772D01*
X21161739Y48556210D01*
X21113352Y48505807D01*
X21051717Y48489404D01*
X17727615Y48489404D01*
X17660576Y48509089D01*
X17639934Y48525723D01*
X17311818Y48853839D01*
X17278333Y48915162D01*
X17275499Y48941520D01*
X17275499Y51647871D01*
X17275498Y51647877D01*
X17275497Y51647884D01*
X17269091Y51707483D01*
X17242867Y51777792D01*
X17218797Y51842329D01*
X17218793Y51842336D01*
X17132547Y51957545D01*
X17132544Y51957548D01*
X17017335Y52043794D01*
X17017328Y52043798D01*
X16882482Y52094092D01*
X16882483Y52094092D01*
X16822883Y52100499D01*
X16822881Y52100500D01*
X16822873Y52100500D01*
X16822865Y52100500D01*
X14116519Y52100500D01*
X14049480Y52120185D01*
X14028838Y52136819D01*
X12336819Y53828838D01*
X12303334Y53890161D01*
X12300500Y53916519D01*
X12300500Y56950000D01*
X12695000Y56950000D01*
X12695000Y55172156D01*
X12701401Y55112628D01*
X12701403Y55112621D01*
X12751645Y54977914D01*
X12751649Y54977907D01*
X12837809Y54862813D01*
X12837812Y54862810D01*
X12952906Y54776650D01*
X12952913Y54776646D01*
X13087620Y54726404D01*
X13087627Y54726402D01*
X13147155Y54720001D01*
X13147172Y54720000D01*
X14925000Y54720000D01*
X14925000Y56950000D01*
X15425000Y56950000D01*
X15425000Y54720000D01*
X17202828Y54720000D01*
X17202844Y54720001D01*
X17262372Y54726402D01*
X17262379Y54726404D01*
X17397086Y54776646D01*
X17397093Y54776650D01*
X17512187Y54862810D01*
X17512190Y54862813D01*
X17598350Y54977907D01*
X17598354Y54977914D01*
X17648596Y55112621D01*
X17648598Y55112628D01*
X17654999Y55172156D01*
X17655000Y55172173D01*
X17655000Y56950000D01*
X15425000Y56950000D01*
X14925000Y56950000D01*
X12695000Y56950000D01*
X12300500Y56950000D01*
X12300500Y57450000D01*
X12695000Y57450000D01*
X14925000Y57450000D01*
X14925000Y59680000D01*
X15425000Y59680000D01*
X15425000Y57450000D01*
X17655000Y57450000D01*
X17655000Y59227828D01*
X17654999Y59227845D01*
X17648598Y59287373D01*
X17648596Y59287380D01*
X17598354Y59422087D01*
X17598350Y59422094D01*
X17512190Y59537188D01*
X17512187Y59537191D01*
X17397093Y59623351D01*
X17397086Y59623355D01*
X17262379Y59673597D01*
X17262372Y59673599D01*
X17202844Y59680000D01*
X15425000Y59680000D01*
X14925000Y59680000D01*
X13147155Y59680000D01*
X13087627Y59673599D01*
X13087620Y59673597D01*
X12952913Y59623355D01*
X12952906Y59623351D01*
X12837812Y59537191D01*
X12837809Y59537188D01*
X12751649Y59422094D01*
X12751645Y59422087D01*
X12701403Y59287380D01*
X12701401Y59287373D01*
X12695000Y59227845D01*
X12695000Y57450000D01*
X12300500Y57450000D01*
X12300500Y60483483D01*
X12320185Y60550522D01*
X12336814Y60571159D01*
X14028837Y62263183D01*
X14090160Y62296667D01*
X14116518Y62299501D01*
X16822871Y62299501D01*
X16822872Y62299501D01*
X16882483Y62305909D01*
X17017331Y62356204D01*
X17132546Y62442454D01*
X17218796Y62557669D01*
X17269091Y62692517D01*
X17275500Y62752127D01*
X17275499Y66047872D01*
X17269091Y66107483D01*
X17218796Y66242331D01*
X17218795Y66242332D01*
X17218793Y66242336D01*
X17132547Y66357545D01*
X17132544Y66357548D01*
X17017335Y66443794D01*
X17017328Y66443798D01*
X16882482Y66494092D01*
X16882483Y66494092D01*
X16822883Y66500499D01*
X16822881Y66500500D01*
X16822873Y66500500D01*
X16822864Y66500500D01*
X13527129Y66500500D01*
X13527123Y66500499D01*
X13467516Y66494092D01*
X13332671Y66443798D01*
X13332664Y66443794D01*
X13217455Y66357548D01*
X13217452Y66357545D01*
X13131206Y66242336D01*
X13131202Y66242329D01*
X13080908Y66107483D01*
X13074501Y66047884D01*
X13074501Y66047877D01*
X13074500Y66047865D01*
X13074500Y63341520D01*
X13054815Y63274481D01*
X13038181Y63253839D01*
X11122290Y61337949D01*
X11116838Y61332817D01*
X11071819Y61292932D01*
X11037649Y61243431D01*
X11033213Y61237403D01*
X10996124Y61190062D01*
X10996119Y61190052D01*
X10991960Y61180812D01*
X10980942Y61161277D01*
X10975187Y61152939D01*
X10975179Y61152924D01*
X10953853Y61096695D01*
X10950989Y61089780D01*
X10926305Y61034932D01*
X10924477Y61024958D01*
X10918453Y61003347D01*
X10914860Y60993873D01*
X10914860Y60993872D01*
X10907610Y60934173D01*
X10906483Y60926773D01*
X10895642Y60867611D01*
X10895642Y60867605D01*
X10899274Y60807568D01*
X10899500Y60800080D01*
X10899500Y53599922D01*
X10899274Y53592434D01*
X10895642Y53532397D01*
X10895642Y53532395D01*
X10906483Y53473230D01*
X10907610Y53465829D01*
X10914859Y53406129D01*
X10914860Y53406126D01*
X10918451Y53396657D01*
X10924474Y53375054D01*
X10926304Y53365070D01*
X10950991Y53310218D01*
X10953854Y53303306D01*
X10975182Y53247070D01*
X10975183Y53247069D01*
X10980936Y53238734D01*
X10991961Y53219187D01*
X10996120Y53209945D01*
X10996124Y53209940D01*
X11033215Y53162597D01*
X11037655Y53156562D01*
X11071812Y53107076D01*
X11071816Y53107071D01*
X11116828Y53067195D01*
X11122283Y53062060D01*
X12090252Y52094091D01*
X13038181Y51146163D01*
X13071666Y51084840D01*
X13074500Y51058482D01*
X13074500Y48352130D01*
X13074501Y48352124D01*
X13080908Y48292517D01*
X13131202Y48157672D01*
X13131206Y48157665D01*
X13217452Y48042456D01*
X13217455Y48042453D01*
X13332664Y47956207D01*
X13332671Y47956203D01*
X13467517Y47905909D01*
X13467516Y47905909D01*
X13474444Y47905165D01*
X13527127Y47899500D01*
X16233480Y47899501D01*
X16300519Y47879816D01*
X16321161Y47863182D01*
X16873154Y47311189D01*
X16878274Y47305751D01*
X16918167Y47260721D01*
X16967673Y47226549D01*
X16973693Y47222119D01*
X17013159Y47191199D01*
X17021039Y47185026D01*
X17022208Y47184500D01*
X17030278Y47180868D01*
X17049829Y47169841D01*
X17058166Y47164086D01*
X17114425Y47142751D01*
X17121302Y47139902D01*
X17142435Y47130390D01*
X17176159Y47115211D01*
X17176162Y47115211D01*
X17176165Y47115209D01*
X17186130Y47113383D01*
X17207752Y47107356D01*
X17210873Y47106173D01*
X17217224Y47103764D01*
X17274785Y47096776D01*
X17276911Y47096517D01*
X17284318Y47095390D01*
X17343490Y47084546D01*
X17403529Y47088179D01*
X17411017Y47088404D01*
X19015630Y47088404D01*
X19082669Y47068719D01*
X19128424Y47015915D01*
X19138367Y46946761D01*
X19138223Y46945761D01*
X19138116Y46945016D01*
X19134373Y46927846D01*
X19126684Y46901654D01*
X19126683Y46901646D01*
X19126683Y2977624D01*
X19106998Y2910585D01*
X19054194Y2864830D01*
X19002683Y2853624D01*
X16751683Y2853624D01*
X16684644Y2873309D01*
X16638889Y2926113D01*
X16627683Y2977624D01*
X16627683Y46901649D01*
X16627682Y46901654D01*
X16619991Y46927846D01*
X16616233Y46945124D01*
X16612348Y46972142D01*
X16612348Y46972144D01*
X16612348Y46972145D01*
X16608864Y46979774D01*
X16601009Y46996975D01*
X16594826Y47013552D01*
X16587136Y47039740D01*
X16587136Y47039742D01*
X16572375Y47062710D01*
X16563897Y47078237D01*
X16559357Y47088178D01*
X16552560Y47103061D01*
X16534683Y47123692D01*
X16524086Y47137848D01*
X16509326Y47160816D01*
X16509325Y47160817D01*
X16488693Y47178696D01*
X16476189Y47191200D01*
X16458311Y47211831D01*
X16458306Y47211835D01*
X16435343Y47226593D01*
X16421183Y47237192D01*
X16414190Y47243251D01*
X16400556Y47255065D01*
X16375724Y47266406D01*
X16360202Y47274882D01*
X16360200Y47274883D01*
X16337236Y47289641D01*
X16337234Y47289642D01*
X16311041Y47297333D01*
X16294471Y47303514D01*
X16269640Y47314853D01*
X16242606Y47318741D01*
X16225337Y47322498D01*
X16199146Y47330188D01*
X16199144Y47330188D01*
X16162982Y47330188D01*
X12071961Y47330188D01*
X11928039Y47330188D01*
X11928036Y47330188D01*
X11928034Y47330187D01*
X11901842Y47322498D01*
X11884568Y47318740D01*
X11857544Y47314854D01*
X11857541Y47314853D01*
X11832710Y47303513D01*
X11816141Y47297333D01*
X11803171Y47293525D01*
X11789947Y47289641D01*
X11789945Y47289641D01*
X11789945Y47289640D01*
X11766982Y47274883D01*
X11751461Y47266408D01*
X11726628Y47255067D01*
X11726625Y47255065D01*
X11706000Y47237193D01*
X11691840Y47226593D01*
X11668876Y47211835D01*
X11668871Y47211831D01*
X11650993Y47191199D01*
X11638489Y47178695D01*
X11617857Y47160817D01*
X11617853Y47160812D01*
X11603095Y47137848D01*
X11592495Y47123688D01*
X11574623Y47103063D01*
X11574621Y47103060D01*
X11563280Y47078227D01*
X11554805Y47062706D01*
X11540048Y47039743D01*
X11532355Y47013547D01*
X11526175Y46996978D01*
X11514835Y46972147D01*
X11514834Y46972144D01*
X11510948Y46945120D01*
X11507190Y46927846D01*
X11499501Y46901654D01*
X11499500Y46901646D01*
X11499500Y16450284D01*
X11479815Y16383245D01*
X11427011Y16337490D01*
X11375500Y16326284D01*
X9044422Y16326284D01*
X8977383Y16345969D01*
X8931628Y16398773D01*
X8920422Y16450284D01*
X8920422Y46784648D01*
X8925445Y46819584D01*
X8926531Y46823280D01*
X8930222Y46835852D01*
X8930222Y46979774D01*
X8930222Y70067497D01*
X18404435Y70067497D01*
X18424630Y69888251D01*
X18424631Y69888246D01*
X18484212Y69717975D01*
X18490492Y69707981D01*
X18509500Y69642007D01*
X18509500Y69492422D01*
X18509274Y69484934D01*
X18505642Y69424897D01*
X18505642Y69424895D01*
X18516483Y69365730D01*
X18517610Y69358329D01*
X18524859Y69298629D01*
X18524860Y69298626D01*
X18528451Y69289157D01*
X18534474Y69267554D01*
X18536304Y69257570D01*
X18560991Y69202718D01*
X18563854Y69195806D01*
X18585182Y69139570D01*
X18585183Y69139569D01*
X18590936Y69131234D01*
X18601961Y69111687D01*
X18606120Y69102445D01*
X18606124Y69102440D01*
X18643215Y69055097D01*
X18647655Y69049062D01*
X18681812Y68999576D01*
X18681816Y68999571D01*
X18726828Y68959695D01*
X18732283Y68954560D01*
X19294219Y68392625D01*
X19327704Y68331302D01*
X19322720Y68261611D01*
X19280849Y68205677D01*
X19261258Y68193780D01*
X19107737Y68097316D01*
X18980184Y67969763D01*
X18884211Y67817024D01*
X18824631Y67646755D01*
X18824630Y67646750D01*
X18804435Y67467504D01*
X18804435Y67467497D01*
X18824630Y67288251D01*
X18824631Y67288246D01*
X18884211Y67117978D01*
X18961667Y66994708D01*
X18972615Y66972706D01*
X18985179Y66939575D01*
X18985183Y66939569D01*
X18990936Y66931234D01*
X19001961Y66911687D01*
X19006120Y66902445D01*
X19006124Y66902440D01*
X19043215Y66855097D01*
X19047655Y66849062D01*
X19081812Y66799576D01*
X19081816Y66799571D01*
X19126828Y66759695D01*
X19132283Y66754560D01*
X23273181Y62613662D01*
X23306666Y62552339D01*
X23309500Y62525981D01*
X23309500Y57092993D01*
X23290494Y57027022D01*
X23284209Y57017021D01*
X23224633Y56846763D01*
X23224630Y56846750D01*
X23204435Y56667504D01*
X23204435Y56667497D01*
X23224630Y56488251D01*
X23224631Y56488246D01*
X23284211Y56317977D01*
X23380184Y56165238D01*
X23507738Y56037684D01*
X23660478Y55941711D01*
X23830745Y55882132D01*
X23830750Y55882131D01*
X24009996Y55861935D01*
X24010000Y55861935D01*
X24010004Y55861935D01*
X24189249Y55882131D01*
X24189252Y55882132D01*
X24189255Y55882132D01*
X24359522Y55941711D01*
X24512262Y56037684D01*
X24639816Y56165238D01*
X24735789Y56317978D01*
X24795368Y56488245D01*
X24815565Y56667500D01*
X24795368Y56846755D01*
X24795367Y56846757D01*
X24795366Y56846763D01*
X24735790Y57017021D01*
X24729506Y57027022D01*
X24710500Y57092993D01*
X24710500Y62676982D01*
X24730185Y62744021D01*
X24782989Y62789776D01*
X24852147Y62799720D01*
X24915703Y62770695D01*
X24922181Y62764663D01*
X25018631Y62668213D01*
X25047991Y62621487D01*
X25084210Y62517980D01*
X25084212Y62517976D01*
X25180184Y62365238D01*
X25307738Y62237684D01*
X25460478Y62141711D01*
X25630745Y62082132D01*
X25630750Y62082131D01*
X25809996Y62061935D01*
X25810000Y62061935D01*
X25810004Y62061935D01*
X25989249Y62082131D01*
X25989252Y62082132D01*
X25989255Y62082132D01*
X26159522Y62141711D01*
X26312262Y62237684D01*
X26439816Y62365238D01*
X26535789Y62517978D01*
X26595368Y62688245D01*
X26595369Y62688251D01*
X26615565Y62867497D01*
X26615565Y62867504D01*
X26595369Y63046750D01*
X26595368Y63046755D01*
X26535788Y63217024D01*
X26474123Y63315162D01*
X26439816Y63369762D01*
X26312262Y63497316D01*
X26159522Y63593289D01*
X26159520Y63593290D01*
X26056013Y63629509D01*
X26009287Y63658869D01*
X19994613Y69673544D01*
X19961128Y69734867D01*
X19965252Y69802179D01*
X19995368Y69888245D01*
X20015565Y70067500D01*
X19995368Y70246755D01*
X19935789Y70417022D01*
X19930280Y70425789D01*
X19896582Y70479420D01*
X19839816Y70569762D01*
X19712262Y70697316D01*
X19559523Y70793289D01*
X19389254Y70852869D01*
X19389249Y70852870D01*
X19210004Y70873065D01*
X19209996Y70873065D01*
X19030750Y70852870D01*
X19030745Y70852869D01*
X18860476Y70793289D01*
X18707737Y70697316D01*
X18580184Y70569763D01*
X18484211Y70417024D01*
X18424631Y70246755D01*
X18424630Y70246750D01*
X18404435Y70067504D01*
X18404435Y70067497D01*
X8930222Y70067497D01*
X8930222Y81267688D01*
X8949907Y81334727D01*
X9002711Y81380482D01*
X9054222Y81391688D01*
X13999730Y81391688D01*
X13999731Y81391688D01*
X14025928Y81399381D01*
X14043193Y81403137D01*
X14070226Y81407023D01*
X14095056Y81418364D01*
X14111624Y81424544D01*
X14137823Y81432235D01*
X14160793Y81446998D01*
X14176304Y81455469D01*
X14201142Y81466811D01*
X14221772Y81484688D01*
X14235923Y81495282D01*
X14258898Y81510046D01*
X14276775Y81530678D01*
X14289281Y81543185D01*
X14309912Y81561060D01*
X14324676Y81584035D01*
X14335262Y81598177D01*
X14353147Y81618816D01*
X14364486Y81643645D01*
X14372967Y81659177D01*
X14387722Y81682135D01*
X14395413Y81708332D01*
X14401594Y81724903D01*
X14412934Y81749732D01*
X14416820Y81776765D01*
X14420576Y81794030D01*
X14428269Y81820227D01*
X14428269Y81964149D01*
X14428269Y81988586D01*
X14428267Y81988707D01*
X14428251Y90799997D01*
X14794435Y90799997D01*
X14814630Y90620751D01*
X14814631Y90620746D01*
X14874212Y90450475D01*
X14880492Y90440481D01*
X14899500Y90374507D01*
X14899500Y79424922D01*
X14899274Y79417434D01*
X14895642Y79357397D01*
X14895642Y79357395D01*
X14906483Y79298230D01*
X14907610Y79290829D01*
X14914859Y79231129D01*
X14914860Y79231126D01*
X14918451Y79221657D01*
X14924474Y79200054D01*
X14926304Y79190070D01*
X14950991Y79135218D01*
X14953854Y79128306D01*
X14975182Y79072070D01*
X14975183Y79072069D01*
X14980936Y79063734D01*
X14991961Y79044187D01*
X14996120Y79034945D01*
X14996124Y79034940D01*
X15033215Y78987597D01*
X15037655Y78981562D01*
X15071812Y78932076D01*
X15071816Y78932071D01*
X15116828Y78892195D01*
X15122283Y78887060D01*
X20408630Y73600713D01*
X20437990Y73553987D01*
X20474209Y73450481D01*
X20474211Y73450478D01*
X20570184Y73297738D01*
X20697738Y73170184D01*
X20850478Y73074211D01*
X21020745Y73014632D01*
X21020750Y73014631D01*
X21199996Y72994435D01*
X21200000Y72994435D01*
X21200004Y72994435D01*
X21379249Y73014631D01*
X21379252Y73014632D01*
X21379255Y73014632D01*
X21549522Y73074211D01*
X21702262Y73170184D01*
X21829816Y73297738D01*
X21925789Y73450478D01*
X21985368Y73620745D01*
X22005565Y73800000D01*
X21985368Y73979255D01*
X21925789Y74149522D01*
X21829816Y74302262D01*
X21702262Y74429816D01*
X21549522Y74525789D01*
X21549519Y74525791D01*
X21446013Y74562010D01*
X21399287Y74591370D01*
X16336819Y79653838D01*
X16303334Y79715161D01*
X16300500Y79741519D01*
X16300500Y90374507D01*
X16319508Y90440481D01*
X16325787Y90450475D01*
X16325786Y90450475D01*
X16325789Y90450478D01*
X16385368Y90620745D01*
X16405565Y90800000D01*
X16388718Y90949522D01*
X16385369Y90979250D01*
X16385368Y90979255D01*
X16342326Y91102262D01*
X16325789Y91149522D01*
X16229816Y91302262D01*
X16102262Y91429816D01*
X16082146Y91442456D01*
X15949523Y91525789D01*
X15779254Y91585369D01*
X15779249Y91585370D01*
X15600004Y91605565D01*
X15599996Y91605565D01*
X15420750Y91585370D01*
X15420745Y91585369D01*
X15250476Y91525789D01*
X15097737Y91429816D01*
X14970184Y91302263D01*
X14874211Y91149524D01*
X14814631Y90979255D01*
X14814630Y90979250D01*
X14794435Y90800004D01*
X14794435Y90799997D01*
X14428251Y90799997D01*
X14428243Y95157304D01*
X14447927Y95224342D01*
X14500731Y95270097D01*
X14569890Y95280041D01*
X14633446Y95251016D01*
X14639924Y95244984D01*
X14642455Y95242453D01*
X14757664Y95156207D01*
X14757671Y95156203D01*
X14892517Y95105909D01*
X14892516Y95105909D01*
X14899444Y95105165D01*
X14952127Y95099500D01*
X17047872Y95099501D01*
X17107483Y95105909D01*
X17242331Y95156204D01*
X17357546Y95242454D01*
X17443796Y95357669D01*
X17494091Y95492517D01*
X17500500Y95552127D01*
X17500499Y97647872D01*
X17494091Y97707483D01*
X17443796Y97842331D01*
X17443795Y97842332D01*
X17443793Y97842336D01*
X17357547Y97957545D01*
X17357544Y97957548D01*
X17242335Y98043794D01*
X17242328Y98043798D01*
X17107482Y98094092D01*
X17107483Y98094092D01*
X17047883Y98100499D01*
X17047881Y98100500D01*
X17047873Y98100500D01*
X17047864Y98100500D01*
X14952129Y98100500D01*
X14952123Y98100499D01*
X14892516Y98094092D01*
X14757671Y98043798D01*
X14757664Y98043794D01*
X14642452Y97957546D01*
X14639913Y97955006D01*
X14636763Y97953287D01*
X14635355Y97952232D01*
X14635203Y97952435D01*
X14578588Y97921524D01*
X14508897Y97926513D01*
X14452966Y97968387D01*
X14428552Y98033853D01*
X14428237Y98042676D01*
X14428236Y98767689D01*
X14447920Y98834727D01*
X14500724Y98880482D01*
X14552236Y98891688D01*
X30365731Y98891688D01*
X30432770Y98872003D01*
G37*
%TD.AperFunction*%
%TA.AperFunction,Conductor*%
G36*
X34434926Y55138408D02*
G01*
X34484332Y55089003D01*
X34499500Y55029575D01*
X34499500Y53741520D01*
X34479815Y53674481D01*
X34463181Y53653839D01*
X32946161Y52136819D01*
X32884838Y52103334D01*
X32858480Y52100500D01*
X30152129Y52100500D01*
X30152123Y52100499D01*
X30092516Y52094092D01*
X29957671Y52043798D01*
X29957664Y52043794D01*
X29842455Y51957548D01*
X29842452Y51957545D01*
X29756206Y51842336D01*
X29756202Y51842329D01*
X29705908Y51707483D01*
X29699501Y51647884D01*
X29699501Y51647877D01*
X29699500Y51647865D01*
X29699500Y48352130D01*
X29699501Y48352124D01*
X29705908Y48292517D01*
X29756202Y48157672D01*
X29756206Y48157665D01*
X29842452Y48042456D01*
X29842455Y48042453D01*
X29957664Y47956207D01*
X29957671Y47956203D01*
X30092517Y47905909D01*
X30092516Y47905909D01*
X30099444Y47905165D01*
X30152127Y47899500D01*
X33447872Y47899501D01*
X33507483Y47905909D01*
X33642331Y47956204D01*
X33757546Y48042454D01*
X33843796Y48157669D01*
X33894091Y48292517D01*
X33900500Y48352127D01*
X33900499Y51058483D01*
X33920184Y51125521D01*
X33936813Y51146158D01*
X35677731Y52887076D01*
X35683151Y52892178D01*
X35728183Y52932071D01*
X35762366Y52981596D01*
X35766788Y52987603D01*
X35768136Y52989324D01*
X35824984Y53029944D01*
X35894769Y53033382D01*
X35955335Y52998545D01*
X35987452Y52936495D01*
X35989731Y52912830D01*
X35989731Y46857338D01*
X35994708Y46840388D01*
X35999731Y46805452D01*
X35999731Y16473724D01*
X35980046Y16406685D01*
X35927242Y16360930D01*
X35875731Y16349724D01*
X33544651Y16349724D01*
X33477612Y16369409D01*
X33431857Y16422213D01*
X33420651Y16473724D01*
X33420651Y46901649D01*
X33420650Y46901654D01*
X33412959Y46927846D01*
X33409201Y46945124D01*
X33405316Y46972142D01*
X33405316Y46972144D01*
X33405316Y46972145D01*
X33401832Y46979774D01*
X33393977Y46996975D01*
X33387794Y47013552D01*
X33380104Y47039740D01*
X33380104Y47039742D01*
X33365343Y47062710D01*
X33356865Y47078237D01*
X33352325Y47088178D01*
X33345528Y47103061D01*
X33327651Y47123692D01*
X33317054Y47137848D01*
X33302294Y47160816D01*
X33302293Y47160817D01*
X33281661Y47178696D01*
X33269157Y47191200D01*
X33251279Y47211831D01*
X33251274Y47211835D01*
X33228311Y47226593D01*
X33214151Y47237192D01*
X33207158Y47243251D01*
X33193524Y47255065D01*
X33168692Y47266406D01*
X33153170Y47274882D01*
X33153168Y47274883D01*
X33130204Y47289641D01*
X33130202Y47289642D01*
X33104009Y47297333D01*
X33087439Y47303514D01*
X33062608Y47314853D01*
X33035574Y47318741D01*
X33018305Y47322498D01*
X32992114Y47330188D01*
X32992112Y47330188D01*
X32955950Y47330188D01*
X28865160Y47330188D01*
X28721238Y47330188D01*
X28721235Y47330188D01*
X28721233Y47330187D01*
X28695041Y47322498D01*
X28677767Y47318740D01*
X28650743Y47314854D01*
X28650740Y47314853D01*
X28625909Y47303513D01*
X28609340Y47297333D01*
X28596370Y47293525D01*
X28583146Y47289641D01*
X28583144Y47289641D01*
X28583144Y47289640D01*
X28560181Y47274883D01*
X28544660Y47266408D01*
X28519827Y47255067D01*
X28519824Y47255065D01*
X28499199Y47237193D01*
X28485039Y47226593D01*
X28462075Y47211835D01*
X28462070Y47211831D01*
X28444192Y47191199D01*
X28431688Y47178695D01*
X28411056Y47160817D01*
X28411052Y47160812D01*
X28396294Y47137848D01*
X28385694Y47123688D01*
X28367822Y47103063D01*
X28367820Y47103060D01*
X28356479Y47078227D01*
X28348004Y47062706D01*
X28333247Y47039743D01*
X28325554Y47013547D01*
X28319374Y46996978D01*
X28308034Y46972147D01*
X28308033Y46972144D01*
X28304147Y46945120D01*
X28300389Y46927846D01*
X28292700Y46901654D01*
X28292699Y46901646D01*
X28292699Y2991294D01*
X28273014Y2924255D01*
X28220210Y2878500D01*
X28168699Y2867294D01*
X25917699Y2867294D01*
X25850660Y2886979D01*
X25804905Y2939783D01*
X25793699Y2991294D01*
X25793699Y46901649D01*
X25793698Y46901654D01*
X25786007Y46927846D01*
X25782249Y46945124D01*
X25778364Y46972142D01*
X25778364Y46972144D01*
X25778364Y46972145D01*
X25774880Y46979774D01*
X25767025Y46996975D01*
X25760842Y47013552D01*
X25753152Y47039740D01*
X25753152Y47039742D01*
X25738391Y47062710D01*
X25729913Y47078237D01*
X25725373Y47088178D01*
X25718576Y47103061D01*
X25700699Y47123692D01*
X25690102Y47137848D01*
X25675342Y47160816D01*
X25675341Y47160817D01*
X25654709Y47178696D01*
X25642205Y47191200D01*
X25624327Y47211831D01*
X25624322Y47211835D01*
X25601359Y47226593D01*
X25587199Y47237192D01*
X25580206Y47243251D01*
X25566572Y47255065D01*
X25541740Y47266406D01*
X25526218Y47274882D01*
X25526216Y47274883D01*
X25503252Y47289641D01*
X25503250Y47289642D01*
X25477057Y47297333D01*
X25460487Y47303514D01*
X25435656Y47314853D01*
X25408622Y47318741D01*
X25391353Y47322498D01*
X25365162Y47330188D01*
X25365160Y47330188D01*
X25328998Y47330188D01*
X24820207Y47330188D01*
X24753168Y47349873D01*
X24707413Y47402677D01*
X24697469Y47471835D01*
X24726494Y47535391D01*
X24732526Y47541869D01*
X31873838Y54683182D01*
X31935161Y54716667D01*
X31961519Y54719501D01*
X33827871Y54719501D01*
X33827872Y54719501D01*
X33887483Y54725909D01*
X34022331Y54776204D01*
X34137546Y54862454D01*
X34223796Y54977669D01*
X34259318Y55072908D01*
X34301189Y55128842D01*
X34366653Y55153259D01*
X34434926Y55138408D01*
G37*
%TD.AperFunction*%
%TD*%
M02*
