%TF.GenerationSoftware,KiCad,Pcbnew,7.0.11*%
%TF.CreationDate,2025-03-07T22:39:12-08:00*%
%TF.ProjectId,enderman,656e6465-726d-4616-9e2e-6b696361645f,0.2*%
%TF.SameCoordinates,PX6ed1240PY84f1340*%
%TF.FileFunction,Soldermask,Top*%
%TF.FilePolarity,Negative*%
%FSLAX46Y46*%
G04 Gerber Fmt 4.6, Leading zero omitted, Abs format (unit mm)*
G04 Created by KiCad (PCBNEW 7.0.11) date 2025-03-07 22:39:12*
%MOMM*%
%LPD*%
G01*
G04 APERTURE LIST*
G04 Aperture macros list*
%AMRoundRect*
0 Rectangle with rounded corners*
0 $1 Rounding radius*
0 $2 $3 $4 $5 $6 $7 $8 $9 X,Y pos of 4 corners*
0 Add a 4 corners polygon primitive as box body*
4,1,4,$2,$3,$4,$5,$6,$7,$8,$9,$2,$3,0*
0 Add four circle primitives for the rounded corners*
1,1,$1+$1,$2,$3*
1,1,$1+$1,$4,$5*
1,1,$1+$1,$6,$7*
1,1,$1+$1,$8,$9*
0 Add four rect primitives between the rounded corners*
20,1,$1+$1,$2,$3,$4,$5,0*
20,1,$1+$1,$4,$5,$6,$7,0*
20,1,$1+$1,$6,$7,$8,$9,0*
20,1,$1+$1,$8,$9,$2,$3,0*%
G04 Aperture macros list end*
%ADD10C,0.100000*%
%ADD11RoundRect,0.243750X0.243750X0.456250X-0.243750X0.456250X-0.243750X-0.456250X0.243750X-0.456250X0*%
%ADD12RoundRect,0.225000X0.225000X0.250000X-0.225000X0.250000X-0.225000X-0.250000X0.225000X-0.250000X0*%
%ADD13RoundRect,0.225000X-0.225000X-0.250000X0.225000X-0.250000X0.225000X0.250000X-0.225000X0.250000X0*%
%ADD14RoundRect,0.400000X0.900000X-0.500000X0.900000X0.500000X-0.900000X0.500000X-0.900000X-0.500000X0*%
%ADD15RoundRect,0.225000X0.250000X-0.225000X0.250000X0.225000X-0.250000X0.225000X-0.250000X-0.225000X0*%
%ADD16RoundRect,0.400000X-0.500000X-0.900000X0.500000X-0.900000X0.500000X0.900000X-0.500000X0.900000X0*%
%ADD17RoundRect,0.200000X0.200000X0.275000X-0.200000X0.275000X-0.200000X-0.275000X0.200000X-0.275000X0*%
%ADD18RoundRect,0.150000X-0.150000X0.825000X-0.150000X-0.825000X0.150000X-0.825000X0.150000X0.825000X0*%
%ADD19RoundRect,0.200000X0.275000X-0.200000X0.275000X0.200000X-0.275000X0.200000X-0.275000X-0.200000X0*%
%ADD20RoundRect,0.243750X-0.243750X-0.456250X0.243750X-0.456250X0.243750X0.456250X-0.243750X0.456250X0*%
%ADD21RoundRect,0.225000X-0.250000X0.225000X-0.250000X-0.225000X0.250000X-0.225000X0.250000X0.225000X0*%
%ADD22C,0.900000*%
G04 APERTURE END LIST*
D10*
X34950000Y80150000D02*
G75*
G03*
X33550000Y80150000I-700000J0D01*
G01*
X33550000Y80150000D02*
G75*
G03*
X34950000Y80150000I700000J0D01*
G01*
X10904339Y17750000D02*
G75*
G03*
X9504339Y17750000I-700000J0D01*
G01*
X9504339Y17750000D02*
G75*
G03*
X10904339Y17750000I700000J0D01*
G01*
D11*
%TO.C,D1*%
X17537500Y92200000D03*
X15662500Y92200000D03*
%TD*%
D12*
%TO.C,C3*%
X21775000Y55600000D03*
X20225000Y55600000D03*
%TD*%
D13*
%TO.C,C5*%
X26357500Y65875000D03*
X27907500Y65875000D03*
%TD*%
D14*
%TO.C,R2*%
X22500000Y49275000D03*
X22500000Y52475000D03*
%TD*%
D15*
%TO.C,C4*%
X23682500Y65900000D03*
X23682500Y67450000D03*
%TD*%
D16*
%TO.C,R3*%
X27075000Y74030000D03*
X30275000Y74030000D03*
%TD*%
D15*
%TO.C,C1*%
X30000000Y60325000D03*
X30000000Y61875000D03*
%TD*%
D17*
%TO.C,R1*%
X25125000Y55600000D03*
X23475000Y55600000D03*
%TD*%
D18*
%TO.C,U1*%
X25510000Y63400000D03*
X24240000Y63400000D03*
X22970000Y63400000D03*
X21700000Y63400000D03*
X20430000Y63400000D03*
X19160000Y63400000D03*
X17890000Y63400000D03*
X17890000Y58450000D03*
X19160000Y58450000D03*
X20430000Y58450000D03*
X21700000Y58450000D03*
X22970000Y58450000D03*
X24240000Y58450000D03*
X25510000Y58450000D03*
%TD*%
D19*
%TO.C,R5*%
X18800000Y65875000D03*
X18800000Y67525000D03*
%TD*%
D20*
%TO.C,D2*%
X27262500Y92200000D03*
X29137500Y92200000D03*
%TD*%
D19*
%TO.C,R6*%
X20700000Y65850000D03*
X20700000Y67500000D03*
%TD*%
D21*
%TO.C,C6*%
X28000000Y61875000D03*
X28000000Y60325000D03*
%TD*%
D12*
%TO.C,C2*%
X18275000Y55600000D03*
X16725000Y55600000D03*
%TD*%
D22*
%TO.C,SW1*%
X11470000Y72800000D03*
X11470000Y75800000D03*
%TD*%
G36*
X12943039Y77580315D02*
G01*
X12988794Y77527511D01*
X13000000Y77476000D01*
X13000000Y47124000D01*
X12980315Y47056961D01*
X12927511Y47011206D01*
X12876000Y47000000D01*
X12124000Y47000000D01*
X12056961Y47019685D01*
X12011206Y47072489D01*
X12000000Y47124000D01*
X12000000Y77476000D01*
X12019685Y77543039D01*
X12072489Y77588794D01*
X12124000Y77600000D01*
X12876000Y77600000D01*
X12943039Y77580315D01*
G37*
G36*
X32943039Y77580315D02*
G01*
X32988794Y77527511D01*
X33000000Y77476000D01*
X33000000Y47124000D01*
X32980315Y47056961D01*
X32927511Y47011206D01*
X32876000Y47000000D01*
X32124000Y47000000D01*
X32056961Y47019685D01*
X32011206Y47072489D01*
X32000000Y47124000D01*
X32000000Y77476000D01*
X32019685Y77543039D01*
X32072489Y77588794D01*
X32124000Y77600000D01*
X32876000Y77600000D01*
X32943039Y77580315D01*
G37*
M02*
