%TF.GenerationSoftware,KiCad,Pcbnew,7.0.11*%
%TF.CreationDate,2025-02-23T17:02:11-08:00*%
%TF.ProjectId,enderman,656e6465-726d-4616-9e2e-6b696361645f,rev?*%
%TF.SameCoordinates,PX6ed1240PY84f1340*%
%TF.FileFunction,Profile,NP*%
%FSLAX46Y46*%
G04 Gerber Fmt 4.6, Leading zero omitted, Abs format (unit mm)*
G04 Created by KiCad (PCBNEW 7.0.11) date 2025-02-23 17:02:11*
%MOMM*%
%LPD*%
G01*
G04 APERTURE LIST*
%TA.AperFunction,Profile*%
%ADD10C,0.200000*%
%TD*%
G04 APERTURE END LIST*
D10*
X16127183Y2353124D02*
X16127183Y46829688D01*
X8185098Y47141289D02*
X8185098Y15591794D01*
X36968721Y15380474D02*
X36968721Y47398048D01*
X13458985Y99626563D02*
X13458985Y82360938D01*
X28793199Y2366794D02*
X25293199Y2366794D01*
X8429722Y81892188D02*
X13927769Y81892188D01*
X32451141Y15380474D02*
X36968721Y15380474D01*
X7951138Y47374610D02*
X7951138Y15357034D01*
X36490231Y81892188D02*
X36490231Y46929298D01*
X32920151Y46829688D02*
X28793199Y46829688D01*
X36724781Y47164027D02*
X36724781Y82125717D01*
X32684891Y46595586D02*
X32684891Y15614534D01*
X15892638Y2119744D02*
X19860355Y2119744D01*
X12234464Y15591794D02*
X12234464Y46595586D01*
X36968721Y47398048D02*
X36958721Y47398048D01*
X30990231Y81892188D02*
X36490231Y81892188D01*
X30990231Y99392188D02*
X30990231Y81892188D01*
X36724781Y82125717D02*
X31225371Y82125717D01*
X12468716Y15357034D02*
X12468716Y46360938D01*
X32920151Y15849224D02*
X32920151Y46829688D01*
X29261685Y1898044D02*
X29261685Y46360938D01*
X25059521Y46595586D02*
X25059521Y2132664D01*
X25293199Y46829688D02*
X19627183Y46829688D01*
X19860355Y46595586D02*
X25059521Y46595586D01*
X8194898Y82125717D02*
X8194898Y47141289D01*
X12000000Y46829688D02*
X12000000Y15825784D01*
X31458721Y82360938D02*
X31458721Y99860938D01*
X13693787Y99625941D02*
X13693787Y82125717D01*
X8194898Y47141289D02*
X8185098Y47141289D01*
X28793199Y46829688D02*
X28793199Y2366794D01*
X15658169Y1886334D02*
X20093716Y1886334D01*
X24826138Y1898044D02*
X29261685Y1898044D01*
X7951138Y15357034D02*
X12468716Y15357034D01*
X12234464Y46595586D02*
X15892638Y46595586D01*
X8419922Y15825784D02*
X8419922Y46907813D01*
X36500231Y46929298D02*
X36500231Y15849224D01*
X36734781Y15614534D02*
X36734781Y47164027D01*
X25059521Y2132664D02*
X29027237Y2132664D01*
X15658169Y46360938D02*
X15658169Y1886334D01*
X19860355Y2119744D02*
X19860355Y46595586D01*
X36958721Y47398048D02*
X36958721Y82360938D01*
X16127183Y46829688D02*
X12000000Y46829688D01*
X25293199Y2366794D02*
X25293199Y46829688D01*
X8419922Y46907813D02*
X8429722Y46907813D01*
X13458985Y82360938D02*
X7960938Y82360938D01*
X13458985Y99860938D02*
X13458985Y99626563D01*
X7960938Y47374610D02*
X7951138Y47374610D01*
X31225371Y99625941D02*
X13693787Y99625941D01*
X12000000Y15825784D02*
X8419922Y15825784D01*
X7960938Y82360938D02*
X7960938Y47374610D01*
X29261685Y46360938D02*
X32451141Y46360938D01*
X31458721Y99860938D02*
X13458985Y99860938D01*
X36500231Y15849224D02*
X32920151Y15849224D01*
X36958721Y82360938D02*
X31458721Y82360938D01*
X36734781Y47164027D02*
X36724781Y47164027D01*
X19627183Y46829688D02*
X19627183Y2353124D01*
X20093716Y46360938D02*
X24826138Y46360938D01*
X29027237Y2132664D02*
X29027237Y46595586D01*
X31225371Y82125717D02*
X31225371Y99625941D01*
X8429722Y46907813D02*
X8429722Y81892188D01*
X13927735Y99392188D02*
X30990231Y99392188D01*
X32684891Y15614534D02*
X36734781Y15614534D01*
X29027237Y46595586D02*
X32684891Y46595586D01*
X15892638Y46595586D02*
X15892638Y2119744D01*
X32451141Y46360938D02*
X32451141Y15380474D01*
X19627183Y2353124D02*
X16127183Y2353124D01*
X36490231Y46929298D02*
X36500231Y46929298D01*
X8185098Y15591794D02*
X12234464Y15591794D01*
X12468716Y46360938D02*
X15658169Y46360938D01*
X13693787Y82125717D02*
X8194898Y82125717D01*
X13927769Y81892188D02*
X13927735Y99392188D01*
X20093716Y1886334D02*
X20093716Y46360938D01*
X24826138Y46360938D02*
X24826138Y1898044D01*
M02*
