%TF.GenerationSoftware,KiCad,Pcbnew,7.0.11*%
%TF.CreationDate,2025-02-23T17:02:10-08:00*%
%TF.ProjectId,enderman,656e6465-726d-4616-9e2e-6b696361645f,rev?*%
%TF.SameCoordinates,PX6ed1240PY84f1340*%
%TF.FileFunction,Legend,Bot*%
%TF.FilePolarity,Positive*%
%FSLAX46Y46*%
G04 Gerber Fmt 4.6, Leading zero omitted, Abs format (unit mm)*
G04 Created by KiCad (PCBNEW 7.0.11) date 2025-02-23 17:02:10*
%MOMM*%
%LPD*%
G01*
G04 APERTURE LIST*
%ADD10C,0.100000*%
%ADD11C,0.120000*%
G04 APERTURE END LIST*
D10*
X35472419Y46924688D02*
X34996228Y47258021D01*
X35472419Y47496116D02*
X34472419Y47496116D01*
X34472419Y47496116D02*
X34472419Y47115164D01*
X34472419Y47115164D02*
X34520038Y47019926D01*
X34520038Y47019926D02*
X34567657Y46972307D01*
X34567657Y46972307D02*
X34662895Y46924688D01*
X34662895Y46924688D02*
X34805752Y46924688D01*
X34805752Y46924688D02*
X34900990Y46972307D01*
X34900990Y46972307D02*
X34948609Y47019926D01*
X34948609Y47019926D02*
X34996228Y47115164D01*
X34996228Y47115164D02*
X34996228Y47496116D01*
X34948609Y46496116D02*
X34948609Y46162783D01*
X35472419Y46019926D02*
X35472419Y46496116D01*
X35472419Y46496116D02*
X34472419Y46496116D01*
X34472419Y46496116D02*
X34472419Y46019926D01*
X34996228Y45400878D02*
X35472419Y45400878D01*
X34472419Y45734211D02*
X34996228Y45400878D01*
X34996228Y45400878D02*
X34472419Y45067545D01*
X34472419Y44829449D02*
X35472419Y44591354D01*
X35472419Y44591354D02*
X34758133Y44400878D01*
X34758133Y44400878D02*
X35472419Y44210402D01*
X35472419Y44210402D02*
X34472419Y43972306D01*
X35186704Y43638973D02*
X35186704Y43162783D01*
X35472419Y43734211D02*
X34472419Y43400878D01*
X34472419Y43400878D02*
X35472419Y43067545D01*
X35424800Y42781830D02*
X35472419Y42638973D01*
X35472419Y42638973D02*
X35472419Y42400878D01*
X35472419Y42400878D02*
X35424800Y42305640D01*
X35424800Y42305640D02*
X35377180Y42258021D01*
X35377180Y42258021D02*
X35281942Y42210402D01*
X35281942Y42210402D02*
X35186704Y42210402D01*
X35186704Y42210402D02*
X35091466Y42258021D01*
X35091466Y42258021D02*
X35043847Y42305640D01*
X35043847Y42305640D02*
X34996228Y42400878D01*
X34996228Y42400878D02*
X34948609Y42591354D01*
X34948609Y42591354D02*
X34900990Y42686592D01*
X34900990Y42686592D02*
X34853371Y42734211D01*
X34853371Y42734211D02*
X34758133Y42781830D01*
X34758133Y42781830D02*
X34662895Y42781830D01*
X34662895Y42781830D02*
X34567657Y42734211D01*
X34567657Y42734211D02*
X34520038Y42686592D01*
X34520038Y42686592D02*
X34472419Y42591354D01*
X34472419Y42591354D02*
X34472419Y42353259D01*
X34472419Y42353259D02*
X34520038Y42210402D01*
X35472419Y41019925D02*
X34472419Y41019925D01*
X35472419Y40543735D02*
X34472419Y40543735D01*
X34472419Y40543735D02*
X35472419Y39972307D01*
X35472419Y39972307D02*
X34472419Y39972307D01*
X35472419Y39496116D02*
X34472419Y39496116D01*
X34472419Y39496116D02*
X34472419Y39258021D01*
X34472419Y39258021D02*
X34520038Y39115164D01*
X34520038Y39115164D02*
X34615276Y39019926D01*
X34615276Y39019926D02*
X34710514Y38972307D01*
X34710514Y38972307D02*
X34900990Y38924688D01*
X34900990Y38924688D02*
X35043847Y38924688D01*
X35043847Y38924688D02*
X35234323Y38972307D01*
X35234323Y38972307D02*
X35329561Y39019926D01*
X35329561Y39019926D02*
X35424800Y39115164D01*
X35424800Y39115164D02*
X35472419Y39258021D01*
X35472419Y39258021D02*
X35472419Y39496116D01*
X35424800Y38543735D02*
X35472419Y38400878D01*
X35472419Y38400878D02*
X35472419Y38162783D01*
X35472419Y38162783D02*
X35424800Y38067545D01*
X35424800Y38067545D02*
X35377180Y38019926D01*
X35377180Y38019926D02*
X35281942Y37972307D01*
X35281942Y37972307D02*
X35186704Y37972307D01*
X35186704Y37972307D02*
X35091466Y38019926D01*
X35091466Y38019926D02*
X35043847Y38067545D01*
X35043847Y38067545D02*
X34996228Y38162783D01*
X34996228Y38162783D02*
X34948609Y38353259D01*
X34948609Y38353259D02*
X34900990Y38448497D01*
X34900990Y38448497D02*
X34853371Y38496116D01*
X34853371Y38496116D02*
X34758133Y38543735D01*
X34758133Y38543735D02*
X34662895Y38543735D01*
X34662895Y38543735D02*
X34567657Y38496116D01*
X34567657Y38496116D02*
X34520038Y38448497D01*
X34520038Y38448497D02*
X34472419Y38353259D01*
X34472419Y38353259D02*
X34472419Y38115164D01*
X34472419Y38115164D02*
X34520038Y37972307D01*
X34472419Y37686592D02*
X34472419Y37115164D01*
X35472419Y37400878D02*
X34472419Y37400878D01*
X35472419Y36210402D02*
X34996228Y36543735D01*
X35472419Y36781830D02*
X34472419Y36781830D01*
X34472419Y36781830D02*
X34472419Y36400878D01*
X34472419Y36400878D02*
X34520038Y36305640D01*
X34520038Y36305640D02*
X34567657Y36258021D01*
X34567657Y36258021D02*
X34662895Y36210402D01*
X34662895Y36210402D02*
X34805752Y36210402D01*
X34805752Y36210402D02*
X34900990Y36258021D01*
X34900990Y36258021D02*
X34948609Y36305640D01*
X34948609Y36305640D02*
X34996228Y36400878D01*
X34996228Y36400878D02*
X34996228Y36781830D01*
X35472419Y35781830D02*
X34472419Y35781830D01*
X34948609Y35305640D02*
X34948609Y34972307D01*
X35472419Y34829450D02*
X35472419Y35305640D01*
X35472419Y35305640D02*
X34472419Y35305640D01*
X34472419Y35305640D02*
X34472419Y34829450D01*
X35424800Y34448497D02*
X35472419Y34305640D01*
X35472419Y34305640D02*
X35472419Y34067545D01*
X35472419Y34067545D02*
X35424800Y33972307D01*
X35424800Y33972307D02*
X35377180Y33924688D01*
X35377180Y33924688D02*
X35281942Y33877069D01*
X35281942Y33877069D02*
X35186704Y33877069D01*
X35186704Y33877069D02*
X35091466Y33924688D01*
X35091466Y33924688D02*
X35043847Y33972307D01*
X35043847Y33972307D02*
X34996228Y34067545D01*
X34996228Y34067545D02*
X34948609Y34258021D01*
X34948609Y34258021D02*
X34900990Y34353259D01*
X34900990Y34353259D02*
X34853371Y34400878D01*
X34853371Y34400878D02*
X34758133Y34448497D01*
X34758133Y34448497D02*
X34662895Y34448497D01*
X34662895Y34448497D02*
X34567657Y34400878D01*
X34567657Y34400878D02*
X34520038Y34353259D01*
X34520038Y34353259D02*
X34472419Y34258021D01*
X34472419Y34258021D02*
X34472419Y34019926D01*
X34472419Y34019926D02*
X34520038Y33877069D01*
X34567657Y32734211D02*
X34520038Y32686592D01*
X34520038Y32686592D02*
X34472419Y32591354D01*
X34472419Y32591354D02*
X34472419Y32353259D01*
X34472419Y32353259D02*
X34520038Y32258021D01*
X34520038Y32258021D02*
X34567657Y32210402D01*
X34567657Y32210402D02*
X34662895Y32162783D01*
X34662895Y32162783D02*
X34758133Y32162783D01*
X34758133Y32162783D02*
X34900990Y32210402D01*
X34900990Y32210402D02*
X35472419Y32781830D01*
X35472419Y32781830D02*
X35472419Y32162783D01*
X34472419Y31543735D02*
X34472419Y31448497D01*
X34472419Y31448497D02*
X34520038Y31353259D01*
X34520038Y31353259D02*
X34567657Y31305640D01*
X34567657Y31305640D02*
X34662895Y31258021D01*
X34662895Y31258021D02*
X34853371Y31210402D01*
X34853371Y31210402D02*
X35091466Y31210402D01*
X35091466Y31210402D02*
X35281942Y31258021D01*
X35281942Y31258021D02*
X35377180Y31305640D01*
X35377180Y31305640D02*
X35424800Y31353259D01*
X35424800Y31353259D02*
X35472419Y31448497D01*
X35472419Y31448497D02*
X35472419Y31543735D01*
X35472419Y31543735D02*
X35424800Y31638973D01*
X35424800Y31638973D02*
X35377180Y31686592D01*
X35377180Y31686592D02*
X35281942Y31734211D01*
X35281942Y31734211D02*
X35091466Y31781830D01*
X35091466Y31781830D02*
X34853371Y31781830D01*
X34853371Y31781830D02*
X34662895Y31734211D01*
X34662895Y31734211D02*
X34567657Y31686592D01*
X34567657Y31686592D02*
X34520038Y31638973D01*
X34520038Y31638973D02*
X34472419Y31543735D01*
X34567657Y30829449D02*
X34520038Y30781830D01*
X34520038Y30781830D02*
X34472419Y30686592D01*
X34472419Y30686592D02*
X34472419Y30448497D01*
X34472419Y30448497D02*
X34520038Y30353259D01*
X34520038Y30353259D02*
X34567657Y30305640D01*
X34567657Y30305640D02*
X34662895Y30258021D01*
X34662895Y30258021D02*
X34758133Y30258021D01*
X34758133Y30258021D02*
X34900990Y30305640D01*
X34900990Y30305640D02*
X35472419Y30877068D01*
X35472419Y30877068D02*
X35472419Y30258021D01*
X34472419Y29353259D02*
X34472419Y29829449D01*
X34472419Y29829449D02*
X34948609Y29877068D01*
X34948609Y29877068D02*
X34900990Y29829449D01*
X34900990Y29829449D02*
X34853371Y29734211D01*
X34853371Y29734211D02*
X34853371Y29496116D01*
X34853371Y29496116D02*
X34900990Y29400878D01*
X34900990Y29400878D02*
X34948609Y29353259D01*
X34948609Y29353259D02*
X35043847Y29305640D01*
X35043847Y29305640D02*
X35281942Y29305640D01*
X35281942Y29305640D02*
X35377180Y29353259D01*
X35377180Y29353259D02*
X35424800Y29400878D01*
X35424800Y29400878D02*
X35472419Y29496116D01*
X35472419Y29496116D02*
X35472419Y29734211D01*
X35472419Y29734211D02*
X35424800Y29829449D01*
X35424800Y29829449D02*
X35377180Y29877068D01*
D11*
%TO.C,BT2*%
X33287500Y53550000D02*
X27287500Y53550000D01*
X25287500Y55250000D02*
X27287500Y53550000D01*
X25287500Y55250000D02*
X25287500Y59250000D01*
X25287500Y59250000D02*
X27287500Y60950000D01*
X33287500Y60950000D02*
X27287500Y60950000D01*
X33278173Y53544352D02*
G75*
G03*
X33287500Y54850000I-390674J655648D01*
G01*
X33282915Y59641383D02*
G75*
G03*
X33287500Y54850000I4504582J-2391383D01*
G01*
X33281472Y59642627D02*
G75*
G03*
X33287500Y60953723I-393972J657373D01*
G01*
%TO.C,BT3*%
X26087500Y82350000D02*
X20087500Y82350000D01*
X18087500Y84050000D02*
X20087500Y82350000D01*
X18087500Y84050000D02*
X18087500Y88050000D01*
X18087500Y88050000D02*
X20087500Y89750000D01*
X26087500Y89750000D02*
X20087500Y89750000D01*
X26078173Y82344352D02*
G75*
G03*
X26087500Y83650000I-390674J655648D01*
G01*
X26082915Y88441383D02*
G75*
G03*
X26087500Y83650000I4504582J-2391383D01*
G01*
X26081472Y88442627D02*
G75*
G03*
X26087500Y89753723I-393972J657373D01*
G01*
%TO.C,TP1*%
X29800000Y96200000D02*
X29800000Y98600000D01*
X29800000Y98600000D02*
X27400000Y98600000D01*
X27400000Y96200000D02*
X29800000Y96200000D01*
X27400000Y98600000D02*
X27400000Y96200000D01*
%TO.C,BT1*%
X11675000Y60900000D02*
X17675000Y60900000D01*
X19675000Y59200000D02*
X17675000Y60900000D01*
X19675000Y59200000D02*
X19675000Y55200000D01*
X19675000Y55200000D02*
X17675000Y53500000D01*
X11675000Y53500000D02*
X17675000Y53500000D01*
X11684327Y60905648D02*
G75*
G03*
X11675000Y59600000I390674J-655648D01*
G01*
X11679585Y54808617D02*
G75*
G03*
X11675000Y59600000I-4504582J2391383D01*
G01*
X11681028Y54807373D02*
G75*
G03*
X11675000Y53496277I393972J-657373D01*
G01*
%TO.C,TP2*%
X17600000Y96200000D02*
X17600000Y98600000D01*
X17600000Y98600000D02*
X15200000Y98600000D01*
X15200000Y96200000D02*
X17600000Y96200000D01*
X15200000Y98600000D02*
X15200000Y96200000D01*
%TD*%
M02*
