%TF.GenerationSoftware,KiCad,Pcbnew,7.0.11*%
%TF.CreationDate,2025-02-23T17:02:10-08:00*%
%TF.ProjectId,enderman,656e6465-726d-4616-9e2e-6b696361645f,rev?*%
%TF.SameCoordinates,PX6ed1240PY84f1340*%
%TF.FileFunction,Soldermask,Top*%
%TF.FilePolarity,Negative*%
%FSLAX46Y46*%
G04 Gerber Fmt 4.6, Leading zero omitted, Abs format (unit mm)*
G04 Created by KiCad (PCBNEW 7.0.11) date 2025-02-23 17:02:10*
%MOMM*%
%LPD*%
G01*
G04 APERTURE LIST*
G04 Aperture macros list*
%AMRoundRect*
0 Rectangle with rounded corners*
0 $1 Rounding radius*
0 $2 $3 $4 $5 $6 $7 $8 $9 X,Y pos of 4 corners*
0 Add a 4 corners polygon primitive as box body*
4,1,4,$2,$3,$4,$5,$6,$7,$8,$9,$2,$3,0*
0 Add four circle primitives for the rounded corners*
1,1,$1+$1,$2,$3*
1,1,$1+$1,$4,$5*
1,1,$1+$1,$6,$7*
1,1,$1+$1,$8,$9*
0 Add four rect primitives between the rounded corners*
20,1,$1+$1,$2,$3,$4,$5,0*
20,1,$1+$1,$4,$5,$6,$7,0*
20,1,$1+$1,$6,$7,$8,$9,0*
20,1,$1+$1,$8,$9,$2,$3,0*%
G04 Aperture macros list end*
%ADD10RoundRect,0.400000X-0.500000X-0.900000X0.500000X-0.900000X0.500000X0.900000X-0.500000X0.900000X0*%
%ADD11RoundRect,0.400000X0.900000X-0.500000X0.900000X0.500000X-0.900000X0.500000X-0.900000X-0.500000X0*%
%ADD12RoundRect,0.243750X0.243750X0.456250X-0.243750X0.456250X-0.243750X-0.456250X0.243750X-0.456250X0*%
%ADD13RoundRect,0.225000X0.225000X0.250000X-0.225000X0.250000X-0.225000X-0.250000X0.225000X-0.250000X0*%
%ADD14RoundRect,0.225000X-0.250000X0.225000X-0.250000X-0.225000X0.250000X-0.225000X0.250000X0.225000X0*%
%ADD15RoundRect,0.200000X-0.200000X-0.275000X0.200000X-0.275000X0.200000X0.275000X-0.200000X0.275000X0*%
%ADD16RoundRect,0.150000X0.150000X-0.825000X0.150000X0.825000X-0.150000X0.825000X-0.150000X-0.825000X0*%
%ADD17RoundRect,0.200000X-0.275000X0.200000X-0.275000X-0.200000X0.275000X-0.200000X0.275000X0.200000X0*%
%ADD18RoundRect,0.243750X-0.243750X-0.456250X0.243750X-0.456250X0.243750X0.456250X-0.243750X0.456250X0*%
%ADD19RoundRect,0.225000X0.250000X-0.225000X0.250000X0.225000X-0.250000X0.225000X-0.250000X-0.225000X0*%
G04 APERTURE END LIST*
D10*
%TO.C,R2*%
X16875000Y65300000D03*
X20075000Y65300000D03*
%TD*%
D11*
%TO.C,R3*%
X16100000Y48875000D03*
X16100000Y52075000D03*
%TD*%
D12*
%TO.C,D1*%
X17337500Y92200000D03*
X15462500Y92200000D03*
%TD*%
D13*
%TO.C,C7*%
X20595000Y79117500D03*
X19045000Y79117500D03*
%TD*%
%TO.C,C3*%
X24775000Y63400000D03*
X23225000Y63400000D03*
%TD*%
D14*
%TO.C,C5*%
X25950000Y50667500D03*
X25950000Y52217500D03*
%TD*%
%TO.C,C4*%
X22810000Y52217500D03*
X22810000Y50667500D03*
%TD*%
D15*
%TO.C,R4*%
X19375000Y52192500D03*
X21025000Y52192500D03*
%TD*%
D14*
%TO.C,C1*%
X29600000Y57375000D03*
X29600000Y55825000D03*
%TD*%
D15*
%TO.C,R1*%
X22825000Y68042500D03*
X21175000Y68042500D03*
%TD*%
D16*
%TO.C,U1*%
X19200000Y76392500D03*
X20470000Y76392500D03*
X21740000Y76392500D03*
X23010000Y76392500D03*
X24280000Y76392500D03*
X25550000Y76392500D03*
X26820000Y76392500D03*
X26820000Y71442500D03*
X25550000Y71442500D03*
X24280000Y71442500D03*
X23010000Y71442500D03*
X21740000Y71442500D03*
X20470000Y71442500D03*
X19200000Y71442500D03*
%TD*%
%TO.C,U2*%
X19530000Y55042500D03*
X20800000Y55042500D03*
X22070000Y55042500D03*
X23340000Y55042500D03*
X24610000Y55042500D03*
X25880000Y55042500D03*
X27150000Y55042500D03*
X27150000Y59992500D03*
X25880000Y59992500D03*
X24610000Y59992500D03*
X23340000Y59992500D03*
X22070000Y59992500D03*
X20800000Y59992500D03*
X19530000Y59992500D03*
%TD*%
D17*
%TO.C,R5*%
X17200000Y80692500D03*
X17200000Y79042500D03*
%TD*%
D18*
%TO.C,D2*%
X27662500Y92200000D03*
X29537500Y92200000D03*
%TD*%
D17*
%TO.C,R6*%
X26800000Y80425000D03*
X26800000Y78775000D03*
%TD*%
D19*
%TO.C,C6*%
X17200000Y58425000D03*
X17200000Y59975000D03*
%TD*%
%TO.C,C2*%
X26800000Y66425000D03*
X26800000Y67975000D03*
%TD*%
G36*
X12943039Y77580315D02*
G01*
X12988794Y77527511D01*
X13000000Y77476000D01*
X13000000Y47124000D01*
X12980315Y47056961D01*
X12927511Y47011206D01*
X12876000Y47000000D01*
X12124000Y47000000D01*
X12056961Y47019685D01*
X12011206Y47072489D01*
X12000000Y47124000D01*
X12000000Y77476000D01*
X12019685Y77543039D01*
X12072489Y77588794D01*
X12124000Y77600000D01*
X12876000Y77600000D01*
X12943039Y77580315D01*
G37*
G36*
X32943039Y77580315D02*
G01*
X32988794Y77527511D01*
X33000000Y77476000D01*
X33000000Y47124000D01*
X32980315Y47056961D01*
X32927511Y47011206D01*
X32876000Y47000000D01*
X32124000Y47000000D01*
X32056961Y47019685D01*
X32011206Y47072489D01*
X32000000Y47124000D01*
X32000000Y77476000D01*
X32019685Y77543039D01*
X32072489Y77588794D01*
X32124000Y77600000D01*
X32876000Y77600000D01*
X32943039Y77580315D01*
G37*
M02*
