%TF.GenerationSoftware,KiCad,Pcbnew,7.0.11*%
%TF.CreationDate,2025-02-23T17:02:09-08:00*%
%TF.ProjectId,enderman,656e6465-726d-4616-9e2e-6b696361645f,rev?*%
%TF.SameCoordinates,PX6ed1240PY84f1340*%
%TF.FileFunction,Legend,Top*%
%TF.FilePolarity,Positive*%
%FSLAX46Y46*%
G04 Gerber Fmt 4.6, Leading zero omitted, Abs format (unit mm)*
G04 Created by KiCad (PCBNEW 7.0.11) date 2025-02-23 17:02:09*
%MOMM*%
%LPD*%
G01*
G04 APERTURE LIST*
%ADD10C,0.120000*%
G04 APERTURE END LIST*
D10*
%TO.C,R2*%
X17772936Y66600000D02*
X19227064Y66600000D01*
X17772936Y63925000D02*
X19227064Y63925000D01*
%TO.C,R3*%
X14800000Y49772936D02*
X14800000Y51227064D01*
X17475000Y49772936D02*
X17475000Y51227064D01*
%TO.C,D1*%
X18085000Y91240000D02*
X18085000Y93160000D01*
X18085000Y93160000D02*
X15400000Y93160000D01*
X15400000Y91240000D02*
X18085000Y91240000D01*
%TO.C,C7*%
X19960580Y78607500D02*
X19679420Y78607500D01*
X19960580Y79627500D02*
X19679420Y79627500D01*
%TO.C,C3*%
X24140580Y62890000D02*
X23859420Y62890000D01*
X24140580Y63910000D02*
X23859420Y63910000D01*
%TO.C,C5*%
X25440000Y51583080D02*
X25440000Y51301920D01*
X26460000Y51583080D02*
X26460000Y51301920D01*
%TO.C,C4*%
X23320000Y51583080D02*
X23320000Y51301920D01*
X22300000Y51583080D02*
X22300000Y51301920D01*
%TO.C,R4*%
X19962742Y52715000D02*
X20437258Y52715000D01*
X19962742Y51670000D02*
X20437258Y51670000D01*
%TO.C,C1*%
X30110000Y56740580D02*
X30110000Y56459420D01*
X29090000Y56740580D02*
X29090000Y56459420D01*
%TO.C,R1*%
X21762742Y67520000D02*
X22237258Y67520000D01*
X21762742Y68565000D02*
X22237258Y68565000D01*
%TO.C,U1*%
X18640000Y71217500D02*
X18310000Y70977500D01*
X18310000Y71457500D01*
X18640000Y71217500D01*
G36*
X18640000Y71217500D02*
G01*
X18310000Y70977500D01*
X18310000Y71457500D01*
X18640000Y71217500D01*
G37*
X27445000Y73917500D02*
X27445000Y75867500D01*
X27445000Y73917500D02*
X27445000Y71967500D01*
X18575000Y73917500D02*
X18575000Y75867500D01*
X18575000Y73917500D02*
X18575000Y71967500D01*
%TO.C,U2*%
X18905000Y57517500D02*
X18905000Y55567500D01*
X18905000Y57517500D02*
X18905000Y59467500D01*
X27775000Y57517500D02*
X27775000Y55567500D01*
X27775000Y57517500D02*
X27775000Y59467500D01*
X18970000Y54817500D02*
X18640000Y54577500D01*
X18640000Y55057500D01*
X18970000Y54817500D01*
G36*
X18970000Y54817500D02*
G01*
X18640000Y54577500D01*
X18640000Y55057500D01*
X18970000Y54817500D01*
G37*
%TO.C,R5*%
X17722500Y80104758D02*
X17722500Y79630242D01*
X16677500Y80104758D02*
X16677500Y79630242D01*
%TO.C,D2*%
X26915000Y93160000D02*
X26915000Y91240000D01*
X26915000Y91240000D02*
X29600000Y91240000D01*
X29600000Y93160000D02*
X26915000Y93160000D01*
%TO.C,R6*%
X27322500Y79837258D02*
X27322500Y79362742D01*
X26277500Y79837258D02*
X26277500Y79362742D01*
%TO.C,C6*%
X16690000Y59059420D02*
X16690000Y59340580D01*
X17710000Y59059420D02*
X17710000Y59340580D01*
%TO.C,C2*%
X26290000Y67059420D02*
X26290000Y67340580D01*
X27310000Y67059420D02*
X27310000Y67340580D01*
%TD*%
M02*
