%TF.GenerationSoftware,KiCad,Pcbnew,7.0.11*%
%TF.CreationDate,2025-03-07T22:39:11-08:00*%
%TF.ProjectId,enderman,656e6465-726d-4616-9e2e-6b696361645f,0.2*%
%TF.SameCoordinates,PX6ed1240PY84f1340*%
%TF.FileFunction,Copper,L1,Top*%
%TF.FilePolarity,Positive*%
%FSLAX46Y46*%
G04 Gerber Fmt 4.6, Leading zero omitted, Abs format (unit mm)*
G04 Created by KiCad (PCBNEW 7.0.11) date 2025-03-07 22:39:11*
%MOMM*%
%LPD*%
G01*
G04 APERTURE LIST*
G04 Aperture macros list*
%AMRoundRect*
0 Rectangle with rounded corners*
0 $1 Rounding radius*
0 $2 $3 $4 $5 $6 $7 $8 $9 X,Y pos of 4 corners*
0 Add a 4 corners polygon primitive as box body*
4,1,4,$2,$3,$4,$5,$6,$7,$8,$9,$2,$3,0*
0 Add four circle primitives for the rounded corners*
1,1,$1+$1,$2,$3*
1,1,$1+$1,$4,$5*
1,1,$1+$1,$6,$7*
1,1,$1+$1,$8,$9*
0 Add four rect primitives between the rounded corners*
20,1,$1+$1,$2,$3,$4,$5,0*
20,1,$1+$1,$4,$5,$6,$7,0*
20,1,$1+$1,$6,$7,$8,$9,0*
20,1,$1+$1,$8,$9,$2,$3,0*%
G04 Aperture macros list end*
%TA.AperFunction,SMDPad,CuDef*%
%ADD10RoundRect,0.243750X0.243750X0.456250X-0.243750X0.456250X-0.243750X-0.456250X0.243750X-0.456250X0*%
%TD*%
%TA.AperFunction,SMDPad,CuDef*%
%ADD11RoundRect,0.225000X0.225000X0.250000X-0.225000X0.250000X-0.225000X-0.250000X0.225000X-0.250000X0*%
%TD*%
%TA.AperFunction,SMDPad,CuDef*%
%ADD12RoundRect,0.225000X-0.225000X-0.250000X0.225000X-0.250000X0.225000X0.250000X-0.225000X0.250000X0*%
%TD*%
%TA.AperFunction,SMDPad,CuDef*%
%ADD13RoundRect,0.400000X0.900000X-0.500000X0.900000X0.500000X-0.900000X0.500000X-0.900000X-0.500000X0*%
%TD*%
%TA.AperFunction,SMDPad,CuDef*%
%ADD14RoundRect,0.225000X0.250000X-0.225000X0.250000X0.225000X-0.250000X0.225000X-0.250000X-0.225000X0*%
%TD*%
%TA.AperFunction,SMDPad,CuDef*%
%ADD15RoundRect,0.400000X-0.500000X-0.900000X0.500000X-0.900000X0.500000X0.900000X-0.500000X0.900000X0*%
%TD*%
%TA.AperFunction,SMDPad,CuDef*%
%ADD16RoundRect,0.200000X0.200000X0.275000X-0.200000X0.275000X-0.200000X-0.275000X0.200000X-0.275000X0*%
%TD*%
%TA.AperFunction,SMDPad,CuDef*%
%ADD17RoundRect,0.150000X-0.150000X0.825000X-0.150000X-0.825000X0.150000X-0.825000X0.150000X0.825000X0*%
%TD*%
%TA.AperFunction,SMDPad,CuDef*%
%ADD18RoundRect,0.200000X0.275000X-0.200000X0.275000X0.200000X-0.275000X0.200000X-0.275000X-0.200000X0*%
%TD*%
%TA.AperFunction,SMDPad,CuDef*%
%ADD19RoundRect,0.243750X-0.243750X-0.456250X0.243750X-0.456250X0.243750X0.456250X-0.243750X0.456250X0*%
%TD*%
%TA.AperFunction,SMDPad,CuDef*%
%ADD20RoundRect,0.225000X-0.250000X0.225000X-0.250000X-0.225000X0.250000X-0.225000X0.250000X0.225000X0*%
%TD*%
%TA.AperFunction,ViaPad*%
%ADD21C,0.800000*%
%TD*%
%TA.AperFunction,Conductor*%
%ADD22C,0.400000*%
%TD*%
G04 APERTURE END LIST*
D10*
%TO.P,D1,1,K*%
%TO.N,GND*%
X17537500Y92200000D03*
%TO.P,D1,2,A*%
%TO.N,Net-(D1-A)*%
X15662500Y92200000D03*
%TD*%
D11*
%TO.P,C3,1*%
%TO.N,Net-(U1B-CV)*%
X21775000Y55600000D03*
%TO.P,C3,2*%
%TO.N,GND*%
X20225000Y55600000D03*
%TD*%
D12*
%TO.P,C5,1*%
%TO.N,Net-(U1A-DIS)*%
X26357500Y65875000D03*
%TO.P,C5,2*%
%TO.N,GND*%
X27907500Y65875000D03*
%TD*%
D13*
%TO.P,R2,1*%
%TO.N,+6V*%
X22500000Y49275000D03*
%TO.P,R2,2*%
%TO.N,Net-(U1B-DIS)*%
X22500000Y52475000D03*
%TD*%
D14*
%TO.P,C4,1*%
%TO.N,Net-(U1A-CV)*%
X23682500Y65900000D03*
%TO.P,C4,2*%
%TO.N,GND*%
X23682500Y67450000D03*
%TD*%
D15*
%TO.P,R3,1*%
%TO.N,+6V*%
X27075000Y74030000D03*
%TO.P,R3,2*%
%TO.N,Net-(U1A-DIS)*%
X30275000Y74030000D03*
%TD*%
D14*
%TO.P,C1,1*%
%TO.N,+6V*%
X30000000Y60325000D03*
%TO.P,C1,2*%
%TO.N,GND*%
X30000000Y61875000D03*
%TD*%
D16*
%TO.P,R1,1*%
%TO.N,Net-(U1B-DIS)*%
X25125000Y55600000D03*
%TO.P,R1,2*%
%TO.N,Net-(U1B-THR)*%
X23475000Y55600000D03*
%TD*%
D17*
%TO.P,U1,1,DIS*%
%TO.N,Net-(U1A-DIS)*%
X25510000Y63400000D03*
%TO.P,U1,2,THR*%
X24240000Y63400000D03*
%TO.P,U1,3,CV*%
%TO.N,Net-(U1A-CV)*%
X22970000Y63400000D03*
%TO.P,U1,4,R*%
%TO.N,+6V*%
X21700000Y63400000D03*
%TO.P,U1,5,Q*%
%TO.N,Net-(U1A-Q)*%
X20430000Y63400000D03*
%TO.P,U1,6,TR*%
%TO.N,Net-(U1A-TR)*%
X19160000Y63400000D03*
%TO.P,U1,7,GND*%
%TO.N,GND*%
X17890000Y63400000D03*
%TO.P,U1,8,TR*%
%TO.N,Net-(U1B-THR)*%
X17890000Y58450000D03*
%TO.P,U1,9,Q*%
%TO.N,Net-(U1A-TR)*%
X19160000Y58450000D03*
%TO.P,U1,10,R*%
%TO.N,+6V*%
X20430000Y58450000D03*
%TO.P,U1,11,CV*%
%TO.N,Net-(U1B-CV)*%
X21700000Y58450000D03*
%TO.P,U1,12,THR*%
%TO.N,Net-(U1B-THR)*%
X22970000Y58450000D03*
%TO.P,U1,13,DIS*%
%TO.N,Net-(U1B-DIS)*%
X24240000Y58450000D03*
%TO.P,U1,14,VCC*%
%TO.N,+6V*%
X25510000Y58450000D03*
%TD*%
D18*
%TO.P,R5,1*%
%TO.N,Net-(U1A-TR)*%
X18800000Y65875000D03*
%TO.P,R5,2*%
%TO.N,Net-(D1-A)*%
X18800000Y67525000D03*
%TD*%
D19*
%TO.P,D2,1,K*%
%TO.N,GND*%
X27262500Y92200000D03*
%TO.P,D2,2,A*%
%TO.N,Net-(D2-A)*%
X29137500Y92200000D03*
%TD*%
D18*
%TO.P,R6,1*%
%TO.N,Net-(U1A-Q)*%
X20700000Y65850000D03*
%TO.P,R6,2*%
%TO.N,Net-(D2-A)*%
X20700000Y67500000D03*
%TD*%
D20*
%TO.P,C6,1*%
%TO.N,GND*%
X28000000Y61875000D03*
%TO.P,C6,2*%
%TO.N,+6V*%
X28000000Y60325000D03*
%TD*%
D11*
%TO.P,C2,1*%
%TO.N,Net-(U1B-THR)*%
X18275000Y55600000D03*
%TO.P,C2,2*%
%TO.N,GND*%
X16725000Y55600000D03*
%TD*%
D21*
%TO.N,GND*%
X25200000Y61400000D03*
X19800000Y56775261D03*
X25200000Y66700000D03*
X17400000Y75000000D03*
X17800000Y60400000D03*
%TO.N,+6V*%
X23450000Y50750000D03*
X31100000Y60800000D03*
%TO.N,Net-(U1A-Q)*%
X20600000Y61700000D03*
%TD*%
D22*
%TO.N,Net-(D1-A)*%
X18800000Y67525000D02*
X15662500Y70662500D01*
X15662500Y70662500D02*
X15662500Y92200000D01*
%TO.N,GND*%
X17537500Y92200000D02*
X17537500Y75137500D01*
X17537500Y75137500D02*
X17400000Y75000000D01*
X27262500Y92200000D02*
X17537500Y92200000D01*
%TO.N,Net-(D2-A)*%
X20700000Y71300000D02*
X29137500Y79737500D01*
X29137500Y79737500D02*
X29137500Y92200000D01*
%TO.N,GND*%
X16700000Y55625000D02*
X16700000Y59300000D01*
X27907500Y61967500D02*
X28000000Y61875000D01*
X25200000Y61400000D02*
X26200000Y61400000D01*
X19800000Y56775261D02*
X20225000Y56350261D01*
X26675000Y61875000D02*
X28000000Y61875000D01*
X16700000Y59300000D02*
X17800000Y60400000D01*
X17800000Y60400000D02*
X17890000Y60490000D01*
X16725000Y55600000D02*
X16700000Y55625000D01*
X24450000Y67450000D02*
X23682500Y67450000D01*
X25200000Y66700000D02*
X24450000Y67450000D01*
X30000000Y61875000D02*
X28000000Y61875000D01*
X27907500Y65875000D02*
X27907500Y61967500D01*
X20225000Y56350261D02*
X20225000Y55600000D01*
X26200000Y61400000D02*
X26675000Y61875000D01*
X17890000Y60490000D02*
X17890000Y63400000D01*
%TO.N,+6V*%
X21700000Y60525000D02*
X21500000Y60325000D01*
X25510000Y60315000D02*
X25500000Y60325000D01*
X21500000Y60325000D02*
X21125000Y60325000D01*
X23450000Y50750000D02*
X23450000Y50225000D01*
X21700000Y60525000D02*
X21900000Y60325000D01*
X25700000Y60325000D02*
X25500000Y60325000D01*
X22200000Y65000000D02*
X22200000Y69155000D01*
X25500000Y60325000D02*
X25200000Y60325000D01*
X25900000Y60325000D02*
X25700000Y60325000D01*
X25900000Y60325000D02*
X28000000Y60325000D01*
X21700000Y64500000D02*
X22200000Y65000000D01*
X20430000Y59630000D02*
X20430000Y58450000D01*
X21700000Y63400000D02*
X21700000Y64500000D01*
X25510000Y60015000D02*
X25200000Y60325000D01*
X21125000Y60325000D02*
X20430000Y59630000D01*
X21700000Y60800000D02*
X21700000Y60525000D01*
X23450000Y50225000D02*
X22500000Y49275000D01*
X25510000Y59935000D02*
X25900000Y60325000D01*
X21900000Y60325000D02*
X21500000Y60325000D01*
X25510000Y58450000D02*
X25510000Y59935000D01*
X30625000Y60325000D02*
X31100000Y60800000D01*
X21700000Y63400000D02*
X21700000Y60800000D01*
X22200000Y69155000D02*
X27075000Y74030000D01*
X30000000Y60325000D02*
X30625000Y60325000D01*
X25200000Y60325000D02*
X21900000Y60325000D01*
X28000000Y60325000D02*
X30000000Y60325000D01*
%TO.N,Net-(U1B-THR)*%
X22970000Y57330000D02*
X22970000Y58450000D01*
X23475000Y55600000D02*
X23475000Y56825000D01*
X22800000Y54200000D02*
X19775000Y54200000D01*
X19775000Y54200000D02*
X18375000Y55600000D01*
X23475000Y55600000D02*
X23475000Y54875000D01*
X18275000Y55600000D02*
X18275000Y56425000D01*
X23475000Y56825000D02*
X22970000Y57330000D01*
X23475000Y54875000D02*
X22800000Y54200000D01*
X18275000Y56425000D02*
X17890000Y56810000D01*
X17890000Y56810000D02*
X17890000Y58450000D01*
X18375000Y55600000D02*
X18275000Y55600000D01*
%TO.N,Net-(U1B-CV)*%
X21775000Y55600000D02*
X21700000Y55675000D01*
X21700000Y55675000D02*
X21700000Y58450000D01*
%TO.N,Net-(U1A-CV)*%
X22970000Y65187500D02*
X23682500Y65900000D01*
X22970000Y63400000D02*
X22970000Y65187500D01*
%TO.N,Net-(U1A-DIS)*%
X26357500Y66357500D02*
X30275000Y70275000D01*
X26357500Y65657500D02*
X25510000Y64810000D01*
X30275000Y70275000D02*
X30275000Y74030000D01*
X24240000Y63400000D02*
X25510000Y63400000D01*
X26357500Y65875000D02*
X26357500Y65657500D01*
X25510000Y64810000D02*
X25510000Y63400000D01*
X26357500Y65875000D02*
X26357500Y66357500D01*
%TO.N,Net-(U1B-DIS)*%
X25125000Y56790001D02*
X25125000Y55600000D01*
X24240000Y58450000D02*
X24240000Y57675001D01*
X24240000Y57675001D02*
X25125000Y56790001D01*
X25125000Y53925000D02*
X23675000Y52475000D01*
X25125000Y55600000D02*
X25125000Y53925000D01*
X23675000Y52475000D02*
X22500000Y52475000D01*
%TO.N,Net-(U1A-Q)*%
X20700000Y63670000D02*
X20430000Y63400000D01*
X20600000Y63230000D02*
X20600000Y61700000D01*
X20700000Y65850000D02*
X20700000Y63670000D01*
X20430000Y63400000D02*
X20600000Y63230000D01*
%TO.N,Net-(U1A-TR)*%
X19160000Y58450000D02*
X19160000Y63400000D01*
X19160000Y65515000D02*
X18800000Y65875000D01*
X19160000Y63400000D02*
X19160000Y65515000D01*
%TO.N,Net-(D2-A)*%
X20700000Y67500000D02*
X20700000Y71300000D01*
%TD*%
%TA.AperFunction,Conductor*%
%TO.N,GND*%
G36*
X19838274Y57130896D02*
G01*
X19870695Y57110060D01*
X19871969Y57111702D01*
X19878132Y57106922D01*
X19878135Y57106919D01*
X20019602Y57023256D01*
X20031639Y57019759D01*
X20177426Y56977403D01*
X20177429Y56977403D01*
X20177431Y56977402D01*
X20214306Y56974500D01*
X20214314Y56974500D01*
X20645686Y56974500D01*
X20645694Y56974500D01*
X20682569Y56977402D01*
X20682571Y56977403D01*
X20682573Y56977403D01*
X20840905Y57023403D01*
X20910774Y57023204D01*
X20969444Y56985262D01*
X20998288Y56921624D01*
X20999500Y56904327D01*
X20999500Y56585062D01*
X20979815Y56518023D01*
X20927011Y56472268D01*
X20857853Y56462324D01*
X20810404Y56479523D01*
X20758490Y56511544D01*
X20758481Y56511548D01*
X20597606Y56564856D01*
X20498322Y56575000D01*
X20475000Y56575000D01*
X20475000Y55474000D01*
X20455315Y55406961D01*
X20402511Y55361206D01*
X20351000Y55350000D01*
X20099000Y55350000D01*
X20031961Y55369685D01*
X19986206Y55422489D01*
X19975000Y55474000D01*
X19975000Y56575001D01*
X19951693Y56575000D01*
X19951674Y56574999D01*
X19852392Y56564856D01*
X19691518Y56511548D01*
X19691507Y56511543D01*
X19547271Y56422576D01*
X19547267Y56422573D01*
X19427426Y56302732D01*
X19355831Y56186659D01*
X19303883Y56139935D01*
X19234920Y56128714D01*
X19170838Y56156558D01*
X19144757Y56186656D01*
X19072968Y56303044D01*
X19014772Y56361240D01*
X18981287Y56422563D01*
X18978680Y56456413D01*
X18979357Y56467601D01*
X18979356Y56467603D01*
X18979357Y56467606D01*
X18968516Y56526765D01*
X18967389Y56534170D01*
X18962897Y56571162D01*
X18960140Y56593872D01*
X18956546Y56603349D01*
X18950519Y56624971D01*
X18948694Y56634930D01*
X18948694Y56634932D01*
X18924010Y56689777D01*
X18921149Y56696683D01*
X18899818Y56752930D01*
X18894058Y56761274D01*
X18883035Y56780820D01*
X18875799Y56796898D01*
X18878062Y56797917D01*
X18863283Y56853920D01*
X18884809Y56920391D01*
X18938855Y56964672D01*
X18987236Y56974500D01*
X19375686Y56974500D01*
X19375694Y56974500D01*
X19412569Y56977402D01*
X19412571Y56977403D01*
X19412573Y56977403D01*
X19454191Y56989495D01*
X19570398Y57023256D01*
X19711865Y57106919D01*
X19711870Y57106925D01*
X19718031Y57111702D01*
X19719933Y57109250D01*
X19768579Y57135845D01*
X19838274Y57130896D01*
G37*
%TD.AperFunction*%
%TA.AperFunction,Conductor*%
G36*
X30394739Y98889192D02*
G01*
X30440494Y98836388D01*
X30451700Y98784877D01*
X30451700Y81862369D01*
X30459390Y81836178D01*
X30463147Y81818909D01*
X30466824Y81793344D01*
X30467035Y81791875D01*
X30478373Y81767049D01*
X30484555Y81750474D01*
X30492246Y81724281D01*
X30492247Y81724279D01*
X30507006Y81701313D01*
X30515482Y81685791D01*
X30526823Y81660959D01*
X30535062Y81651451D01*
X30544696Y81640332D01*
X30555295Y81626172D01*
X30570053Y81603209D01*
X30570057Y81603204D01*
X30590688Y81585326D01*
X30603192Y81572822D01*
X30621071Y81552190D01*
X30621072Y81552189D01*
X30644044Y81537427D01*
X30658196Y81526832D01*
X30678827Y81508955D01*
X30702099Y81498327D01*
X30703651Y81497618D01*
X30719178Y81489140D01*
X30742147Y81474379D01*
X30768336Y81466689D01*
X30784913Y81460506D01*
X30809738Y81449169D01*
X30809739Y81449169D01*
X30809743Y81449167D01*
X30836764Y81445282D01*
X30854046Y81441523D01*
X30880239Y81433832D01*
X30916401Y81433832D01*
X33918414Y81433832D01*
X33985453Y81414147D01*
X34031208Y81361343D01*
X34041152Y81292185D01*
X34012127Y81228629D01*
X33955116Y81191991D01*
X33955147Y81191912D01*
X33954761Y81191763D01*
X33953349Y81190855D01*
X33952341Y81190563D01*
X33949796Y81189840D01*
X33763769Y81117773D01*
X33763762Y81117769D01*
X33594148Y81012749D01*
X33446709Y80878340D01*
X33326482Y80719135D01*
X33326477Y80719127D01*
X33237555Y80540547D01*
X33182956Y80348650D01*
X33164549Y80150001D01*
X33164549Y80150000D01*
X33182956Y79951351D01*
X33182956Y79951349D01*
X33182957Y79951346D01*
X33237554Y79759457D01*
X33237555Y79759454D01*
X33326477Y79580874D01*
X33326482Y79580866D01*
X33446709Y79421661D01*
X33446710Y79421660D01*
X33594145Y79287254D01*
X33763768Y79182228D01*
X33949801Y79110159D01*
X34145909Y79073500D01*
X34145911Y79073500D01*
X34345411Y79073500D01*
X34345413Y79073500D01*
X34541521Y79110159D01*
X34727554Y79182228D01*
X34897177Y79287254D01*
X35044612Y79421660D01*
X35164841Y79580868D01*
X35253768Y79759457D01*
X35308365Y79951346D01*
X35326773Y80150000D01*
X35308365Y80348654D01*
X35253768Y80540543D01*
X35252354Y80543382D01*
X35164844Y80719127D01*
X35164839Y80719135D01*
X35044612Y80878340D01*
X34897177Y81012746D01*
X34897174Y81012748D01*
X34897173Y81012749D01*
X34727559Y81117769D01*
X34727552Y81117773D01*
X34541525Y81189840D01*
X34538981Y81190563D01*
X34537904Y81191242D01*
X34536175Y81191912D01*
X34536306Y81192251D01*
X34479886Y81227839D01*
X34450324Y81291147D01*
X34459682Y81360387D01*
X34504988Y81413576D01*
X34571859Y81433828D01*
X34572908Y81433832D01*
X35807993Y81433832D01*
X35875032Y81414147D01*
X35920787Y81361343D01*
X35931993Y81309832D01*
X35931993Y16489321D01*
X35912308Y16422282D01*
X35859504Y16376527D01*
X35807993Y16365321D01*
X33519960Y16365321D01*
X33452921Y16385006D01*
X33407166Y16437810D01*
X33395960Y16489321D01*
X33395960Y46916213D01*
X33390910Y46933411D01*
X33388268Y46942410D01*
X33384510Y46959688D01*
X33380625Y46986709D01*
X33373390Y47002552D01*
X33369286Y47011539D01*
X33363103Y47028116D01*
X33355413Y47054304D01*
X33355413Y47054306D01*
X33340652Y47077274D01*
X33332174Y47092801D01*
X33324943Y47108634D01*
X33320837Y47117625D01*
X33302960Y47138256D01*
X33292363Y47152412D01*
X33277603Y47175380D01*
X33277602Y47175381D01*
X33256970Y47193260D01*
X33244466Y47205764D01*
X33226588Y47226395D01*
X33226583Y47226399D01*
X33203620Y47241157D01*
X33189460Y47251756D01*
X33182467Y47257815D01*
X33168833Y47269629D01*
X33144001Y47280970D01*
X33128479Y47289446D01*
X33128477Y47289447D01*
X33105513Y47304205D01*
X33105511Y47304206D01*
X33079318Y47311897D01*
X33062748Y47318078D01*
X33037917Y47329417D01*
X33010883Y47333305D01*
X32993614Y47337062D01*
X32967423Y47344752D01*
X32967421Y47344752D01*
X32931259Y47344752D01*
X28840033Y47344752D01*
X28696111Y47344752D01*
X28696108Y47344752D01*
X28696106Y47344751D01*
X28669914Y47337062D01*
X28652640Y47333304D01*
X28625616Y47329418D01*
X28625613Y47329417D01*
X28600782Y47318077D01*
X28584213Y47311897D01*
X28574655Y47309090D01*
X28558019Y47304205D01*
X28558017Y47304205D01*
X28558017Y47304204D01*
X28535054Y47289447D01*
X28519533Y47280972D01*
X28494700Y47269631D01*
X28494697Y47269629D01*
X28474072Y47251757D01*
X28459912Y47241157D01*
X28436948Y47226399D01*
X28436943Y47226395D01*
X28419065Y47205763D01*
X28406561Y47193259D01*
X28385929Y47175381D01*
X28385925Y47175376D01*
X28371167Y47152412D01*
X28360567Y47138252D01*
X28342695Y47117627D01*
X28342693Y47117624D01*
X28331352Y47092791D01*
X28322879Y47077274D01*
X28308119Y47054305D01*
X28306936Y47050276D01*
X28300427Y47028111D01*
X28294247Y47011542D01*
X28282907Y46986711D01*
X28282906Y46986708D01*
X28279020Y46959684D01*
X28275262Y46942410D01*
X28267573Y46916218D01*
X28267572Y46916210D01*
X28267572Y3004480D01*
X28247887Y2937441D01*
X28195083Y2891686D01*
X28143572Y2880480D01*
X25895761Y2880480D01*
X25828722Y2900165D01*
X25782967Y2952969D01*
X25771761Y3004480D01*
X25771761Y46907226D01*
X25769121Y46916218D01*
X25764069Y46933423D01*
X25760311Y46950701D01*
X25756426Y46977719D01*
X25756426Y46977721D01*
X25756426Y46977722D01*
X25754162Y46982680D01*
X25745087Y47002552D01*
X25738904Y47019129D01*
X25731214Y47045317D01*
X25731214Y47045319D01*
X25716453Y47068287D01*
X25707975Y47083814D01*
X25703875Y47092791D01*
X25696638Y47108638D01*
X25678761Y47129269D01*
X25668164Y47143425D01*
X25653404Y47166393D01*
X25647686Y47171348D01*
X25632771Y47184273D01*
X25620267Y47196777D01*
X25602389Y47217408D01*
X25602384Y47217412D01*
X25579421Y47232170D01*
X25565261Y47242769D01*
X25554889Y47251756D01*
X25544634Y47260642D01*
X25519802Y47271983D01*
X25504280Y47280459D01*
X25504278Y47280460D01*
X25481314Y47295218D01*
X25481312Y47295219D01*
X25455119Y47302910D01*
X25438549Y47309091D01*
X25413718Y47320430D01*
X25386684Y47324318D01*
X25369415Y47328075D01*
X25343224Y47335765D01*
X25343222Y47335765D01*
X25307060Y47335765D01*
X19663077Y47335765D01*
X19519155Y47335765D01*
X19519152Y47335765D01*
X19519150Y47335764D01*
X19492958Y47328075D01*
X19475684Y47324317D01*
X19448660Y47320431D01*
X19448657Y47320430D01*
X19423826Y47309090D01*
X19407257Y47302910D01*
X19394287Y47299102D01*
X19381063Y47295218D01*
X19381061Y47295218D01*
X19381061Y47295217D01*
X19372081Y47289446D01*
X19358895Y47280972D01*
X19358098Y47280460D01*
X19342577Y47271985D01*
X19317744Y47260644D01*
X19317741Y47260642D01*
X19297116Y47242770D01*
X19282956Y47232170D01*
X19259992Y47217412D01*
X19259987Y47217408D01*
X19242109Y47196776D01*
X19229605Y47184272D01*
X19208973Y47166394D01*
X19208969Y47166389D01*
X19194211Y47143425D01*
X19183611Y47129265D01*
X19165739Y47108640D01*
X19165737Y47108637D01*
X19154396Y47083804D01*
X19145921Y47068283D01*
X19131164Y47045320D01*
X19123471Y47019124D01*
X19117291Y47002555D01*
X19105951Y46977724D01*
X19105950Y46977721D01*
X19102064Y46950697D01*
X19098306Y46933423D01*
X19090617Y46907231D01*
X19090616Y46907223D01*
X19090616Y2993952D01*
X19070931Y2926913D01*
X19018127Y2881158D01*
X18966616Y2869952D01*
X16731271Y2869952D01*
X16664232Y2889637D01*
X16618477Y2942441D01*
X16607271Y2993952D01*
X16607271Y46912185D01*
X16606087Y46916218D01*
X16599579Y46938382D01*
X16595821Y46955660D01*
X16592649Y46977722D01*
X16591936Y46982681D01*
X16590097Y46986708D01*
X16580597Y47007511D01*
X16574414Y47024088D01*
X16566724Y47050276D01*
X16566724Y47050278D01*
X16551963Y47073246D01*
X16543485Y47088773D01*
X16541645Y47092801D01*
X16532148Y47113597D01*
X16514271Y47134228D01*
X16503674Y47148384D01*
X16488914Y47171352D01*
X16488913Y47171353D01*
X16468281Y47189232D01*
X16455777Y47201736D01*
X16437899Y47222367D01*
X16437894Y47222371D01*
X16414931Y47237129D01*
X16400771Y47247728D01*
X16393778Y47253787D01*
X16380144Y47265601D01*
X16355312Y47276942D01*
X16339790Y47285418D01*
X16339788Y47285419D01*
X16316824Y47300177D01*
X16316822Y47300178D01*
X16290629Y47307869D01*
X16274059Y47314050D01*
X16249228Y47325389D01*
X16222194Y47329277D01*
X16204925Y47333034D01*
X16178734Y47340724D01*
X16178732Y47340724D01*
X16142570Y47340724D01*
X12044364Y47340724D01*
X11900442Y47340724D01*
X11900439Y47340724D01*
X11900437Y47340723D01*
X11874245Y47333034D01*
X11856971Y47329276D01*
X11829947Y47325390D01*
X11829944Y47325389D01*
X11805113Y47314049D01*
X11788544Y47307869D01*
X11776071Y47304206D01*
X11762350Y47300177D01*
X11762348Y47300177D01*
X11762348Y47300176D01*
X11739385Y47285419D01*
X11723864Y47276944D01*
X11699031Y47265603D01*
X11699028Y47265601D01*
X11678403Y47247729D01*
X11664243Y47237129D01*
X11641279Y47222371D01*
X11641274Y47222367D01*
X11623396Y47201735D01*
X11610892Y47189231D01*
X11590260Y47171353D01*
X11590256Y47171348D01*
X11575498Y47148384D01*
X11564898Y47134224D01*
X11547026Y47113599D01*
X11547024Y47113596D01*
X11535683Y47088763D01*
X11527210Y47073246D01*
X11512450Y47050277D01*
X11510994Y47045319D01*
X11504758Y47024083D01*
X11498578Y47007514D01*
X11487238Y46982683D01*
X11487237Y46982680D01*
X11483351Y46955656D01*
X11479593Y46938382D01*
X11471904Y46912190D01*
X11471903Y46912182D01*
X11471903Y18102324D01*
X11452218Y18035285D01*
X11399414Y17989530D01*
X11330256Y17979586D01*
X11266700Y18008611D01*
X11228926Y18067389D01*
X11228637Y18068390D01*
X11208109Y18140539D01*
X11208106Y18140545D01*
X11119183Y18319127D01*
X11119178Y18319135D01*
X10998951Y18478340D01*
X10851516Y18612746D01*
X10851513Y18612748D01*
X10851512Y18612749D01*
X10681898Y18717769D01*
X10681891Y18717773D01*
X10588876Y18753807D01*
X10495860Y18789841D01*
X10299752Y18826500D01*
X10100248Y18826500D01*
X9904140Y18789841D01*
X9904137Y18789841D01*
X9904137Y18789840D01*
X9718108Y18717773D01*
X9718101Y18717769D01*
X9548487Y18612749D01*
X9401048Y18478340D01*
X9280821Y18319135D01*
X9280816Y18319127D01*
X9191893Y18140545D01*
X9191890Y18140539D01*
X9143766Y17971395D01*
X9106487Y17912302D01*
X9043178Y17882744D01*
X8973938Y17892106D01*
X8920752Y17937415D01*
X8900504Y18004287D01*
X8900500Y18005329D01*
X8900500Y55350000D01*
X15775001Y55350000D01*
X15775001Y55301678D01*
X15785144Y55202393D01*
X15838452Y55041519D01*
X15838457Y55041508D01*
X15927424Y54897272D01*
X15927427Y54897268D01*
X16047267Y54777428D01*
X16047271Y54777425D01*
X16191507Y54688458D01*
X16191518Y54688453D01*
X16352393Y54635145D01*
X16451683Y54625001D01*
X16475000Y54625002D01*
X16475000Y55350000D01*
X15775001Y55350000D01*
X8900500Y55350000D01*
X8900500Y55850000D01*
X15775000Y55850000D01*
X16475000Y55850000D01*
X16475000Y56575001D01*
X16451693Y56575000D01*
X16451674Y56574999D01*
X16352392Y56564856D01*
X16191518Y56511548D01*
X16191507Y56511543D01*
X16047271Y56422576D01*
X16047267Y56422573D01*
X15927427Y56302733D01*
X15927424Y56302729D01*
X15838457Y56158493D01*
X15838452Y56158482D01*
X15785144Y55997607D01*
X15775000Y55898323D01*
X15775000Y55850000D01*
X8900500Y55850000D01*
X8900500Y63150000D01*
X17090000Y63150000D01*
X17090000Y62509351D01*
X17092899Y62472511D01*
X17092900Y62472505D01*
X17138716Y62314807D01*
X17138717Y62314804D01*
X17222314Y62173448D01*
X17222321Y62173439D01*
X17338438Y62057322D01*
X17338447Y62057315D01*
X17479801Y61973719D01*
X17637514Y61927900D01*
X17637511Y61927900D01*
X17639998Y61927705D01*
X17640000Y61927705D01*
X17640000Y63150000D01*
X17090000Y63150000D01*
X8900500Y63150000D01*
X8900500Y63650000D01*
X17090000Y63650000D01*
X17640000Y63650000D01*
X17640000Y64872297D01*
X17637503Y64872100D01*
X17479806Y64826284D01*
X17479803Y64826283D01*
X17338447Y64742686D01*
X17338438Y64742679D01*
X17222321Y64626562D01*
X17222314Y64626553D01*
X17138717Y64485197D01*
X17138716Y64485194D01*
X17092900Y64327496D01*
X17092899Y64327490D01*
X17090000Y64290650D01*
X17090000Y63650000D01*
X8900500Y63650000D01*
X8900500Y72714945D01*
X10769500Y72714945D01*
X10810210Y72549774D01*
X10889263Y72399151D01*
X10889266Y72399148D01*
X11002071Y72271817D01*
X11072289Y72223349D01*
X11142068Y72175183D01*
X11142069Y72175183D01*
X11142070Y72175182D01*
X11301128Y72114860D01*
X11377028Y72105644D01*
X11427626Y72099500D01*
X11427628Y72099500D01*
X11512374Y72099500D01*
X11554538Y72104620D01*
X11638872Y72114860D01*
X11797930Y72175182D01*
X11937929Y72271817D01*
X12050734Y72399148D01*
X12129790Y72549775D01*
X12170500Y72714944D01*
X12170500Y72885056D01*
X12129790Y73050225D01*
X12121001Y73066971D01*
X12050736Y73200850D01*
X12031560Y73222495D01*
X11937929Y73328183D01*
X11888177Y73362525D01*
X11797931Y73424818D01*
X11638874Y73485140D01*
X11638868Y73485141D01*
X11512374Y73500500D01*
X11512372Y73500500D01*
X11427628Y73500500D01*
X11427626Y73500500D01*
X11301131Y73485141D01*
X11301125Y73485140D01*
X11142068Y73424818D01*
X11002072Y73328184D01*
X10889263Y73200850D01*
X10810210Y73050227D01*
X10769500Y72885056D01*
X10769500Y72714945D01*
X8900500Y72714945D01*
X8900500Y75714944D01*
X10769500Y75714944D01*
X10775800Y75689383D01*
X10810210Y75549774D01*
X10889263Y75399151D01*
X10889266Y75399148D01*
X11002071Y75271817D01*
X11092318Y75209524D01*
X11142068Y75175183D01*
X11142069Y75175183D01*
X11142070Y75175182D01*
X11301128Y75114860D01*
X11377003Y75105647D01*
X11427626Y75099500D01*
X11427628Y75099500D01*
X11512374Y75099500D01*
X11554538Y75104620D01*
X11638872Y75114860D01*
X11797930Y75175182D01*
X11937929Y75271817D01*
X12050734Y75399148D01*
X12129790Y75549775D01*
X12170500Y75714944D01*
X12170500Y75885056D01*
X12129790Y76050225D01*
X12129789Y76050227D01*
X12050736Y76200850D01*
X12031560Y76222495D01*
X11937929Y76328183D01*
X11888177Y76362525D01*
X11797931Y76424818D01*
X11638874Y76485140D01*
X11638868Y76485141D01*
X11512374Y76500500D01*
X11512372Y76500500D01*
X11427628Y76500500D01*
X11427626Y76500500D01*
X11301131Y76485141D01*
X11301125Y76485140D01*
X11142068Y76424818D01*
X11002072Y76328184D01*
X10889263Y76200850D01*
X10810210Y76050227D01*
X10773920Y75902989D01*
X10769500Y75885056D01*
X10769500Y75714944D01*
X8900500Y75714944D01*
X8900500Y81275500D01*
X8920185Y81342539D01*
X8972989Y81388294D01*
X9024500Y81399500D01*
X13835931Y81399500D01*
X13835934Y81399499D01*
X13907895Y81399500D01*
X13943687Y81399500D01*
X13953677Y81399500D01*
X13953689Y81399501D01*
X13979854Y81399501D01*
X13979856Y81399501D01*
X14006048Y81407193D01*
X14023319Y81410950D01*
X14050345Y81414835D01*
X14075184Y81426180D01*
X14091756Y81432361D01*
X14117947Y81440050D01*
X14140911Y81454810D01*
X14156431Y81463285D01*
X14181261Y81474623D01*
X14201896Y81492505D01*
X14216048Y81503099D01*
X14239021Y81517862D01*
X14256893Y81538490D01*
X14269400Y81550997D01*
X14290031Y81568872D01*
X14304793Y81591845D01*
X14315390Y81606001D01*
X14333269Y81626633D01*
X14344609Y81651467D01*
X14353079Y81666979D01*
X14367841Y81689947D01*
X14375531Y81716141D01*
X14381712Y81732715D01*
X14393055Y81757550D01*
X14396938Y81784566D01*
X14400700Y81801858D01*
X14405704Y81818897D01*
X14408388Y81828039D01*
X14408388Y81971961D01*
X14408388Y81981941D01*
X14408385Y81981961D01*
X14408251Y91694145D01*
X14674500Y91694145D01*
X14684913Y91592224D01*
X14739637Y91427078D01*
X14739642Y91427067D01*
X14830971Y91279001D01*
X14830974Y91278997D01*
X14925681Y91184290D01*
X14959166Y91122967D01*
X14962000Y91096609D01*
X14962000Y70687422D01*
X14961774Y70679934D01*
X14958142Y70619897D01*
X14958142Y70619895D01*
X14968983Y70560730D01*
X14970110Y70553329D01*
X14977359Y70493629D01*
X14977360Y70493626D01*
X14980951Y70484157D01*
X14986974Y70462554D01*
X14988804Y70452570D01*
X15013491Y70397718D01*
X15016354Y70390806D01*
X15037682Y70334570D01*
X15037683Y70334569D01*
X15043436Y70326234D01*
X15054461Y70306687D01*
X15058620Y70297445D01*
X15058624Y70297440D01*
X15095715Y70250097D01*
X15100155Y70244062D01*
X15134312Y70194576D01*
X15134316Y70194571D01*
X15179328Y70154695D01*
X15184783Y70149560D01*
X17788181Y67546162D01*
X17821666Y67484839D01*
X17824500Y67458481D01*
X17824500Y67268387D01*
X17830913Y67197808D01*
X17830913Y67197806D01*
X17830914Y67197804D01*
X17881522Y67035394D01*
X17953391Y66916508D01*
X17969530Y66889812D01*
X18071661Y66787681D01*
X18105146Y66726358D01*
X18100162Y66656666D01*
X18071661Y66612319D01*
X17969531Y66510190D01*
X17969530Y66510189D01*
X17881522Y66364607D01*
X17830913Y66202193D01*
X17824500Y66131614D01*
X17824500Y65618387D01*
X17830913Y65547808D01*
X17881522Y65385394D01*
X17969530Y65239812D01*
X18089811Y65119531D01*
X18089813Y65119530D01*
X18089815Y65119528D01*
X18140798Y65088707D01*
X18187986Y65037180D01*
X18199824Y64968320D01*
X18172555Y64903992D01*
X18160802Y64891519D01*
X18140000Y64872298D01*
X18140000Y61927705D01*
X18140001Y61927705D01*
X18142488Y61927900D01*
X18142494Y61927901D01*
X18300905Y61973923D01*
X18370775Y61973724D01*
X18429445Y61935782D01*
X18458288Y61872143D01*
X18459500Y61854847D01*
X18459500Y59995674D01*
X18439815Y59928635D01*
X18387011Y59882880D01*
X18317853Y59872936D01*
X18300905Y59876598D01*
X18142573Y59922598D01*
X18142567Y59922599D01*
X18105701Y59925500D01*
X18105694Y59925500D01*
X17674306Y59925500D01*
X17674298Y59925500D01*
X17637432Y59922599D01*
X17637426Y59922598D01*
X17479606Y59876746D01*
X17479603Y59876745D01*
X17338137Y59793083D01*
X17338129Y59793077D01*
X17221923Y59676871D01*
X17221917Y59676863D01*
X17138255Y59535397D01*
X17138254Y59535394D01*
X17092402Y59377574D01*
X17092401Y59377568D01*
X17089500Y59340702D01*
X17089500Y57559299D01*
X17092401Y57522433D01*
X17092402Y57522427D01*
X17138254Y57364607D01*
X17138255Y57364604D01*
X17172232Y57307152D01*
X17189500Y57244031D01*
X17189500Y56834922D01*
X17189274Y56827434D01*
X17185642Y56767397D01*
X17185642Y56767389D01*
X17195366Y56714324D01*
X17188087Y56644835D01*
X17144395Y56590312D01*
X17078161Y56568067D01*
X17060794Y56568617D01*
X16998322Y56575000D01*
X16975000Y56575000D01*
X16975000Y54625001D01*
X16998308Y54625001D01*
X16998322Y54625002D01*
X17097607Y54635145D01*
X17258481Y54688453D01*
X17258492Y54688458D01*
X17402731Y54777427D01*
X17411959Y54786655D01*
X17473279Y54820144D01*
X17542971Y54815165D01*
X17587327Y54786661D01*
X17596955Y54777033D01*
X17596959Y54777030D01*
X17741294Y54688002D01*
X17741297Y54688001D01*
X17741303Y54687997D01*
X17902292Y54634651D01*
X18001655Y54624500D01*
X18308480Y54624501D01*
X18375519Y54604817D01*
X18396161Y54588182D01*
X19262058Y53722285D01*
X19267178Y53716847D01*
X19307071Y53671817D01*
X19356577Y53637645D01*
X19362597Y53633215D01*
X19408727Y53597074D01*
X19409943Y53596122D01*
X19416845Y53593016D01*
X19419182Y53591964D01*
X19438733Y53580937D01*
X19444035Y53577277D01*
X19447071Y53575181D01*
X19503297Y53553858D01*
X19510212Y53550994D01*
X19565068Y53526305D01*
X19575042Y53524478D01*
X19596656Y53518452D01*
X19599777Y53517269D01*
X19606128Y53514860D01*
X19663241Y53507926D01*
X19665814Y53507613D01*
X19673219Y53506486D01*
X19694173Y53502647D01*
X19732394Y53495642D01*
X19792433Y53499275D01*
X19799921Y53499500D01*
X20654242Y53499500D01*
X20721281Y53479815D01*
X20767036Y53427011D01*
X20776980Y53357853D01*
X20764728Y53319209D01*
X20754680Y53299488D01*
X20754679Y53299486D01*
X20705687Y53116644D01*
X20705687Y53116643D01*
X20699500Y53038027D01*
X20699500Y51911990D01*
X20699501Y51911971D01*
X20705687Y51833357D01*
X20705688Y51833355D01*
X20754680Y51650512D01*
X20776783Y51607132D01*
X20840614Y51481854D01*
X20848116Y51472590D01*
X20959743Y51334743D01*
X21024612Y51282213D01*
X21106853Y51215615D01*
X21190371Y51173062D01*
X21275512Y51129680D01*
X21458355Y51080688D01*
X21536979Y51074500D01*
X22440930Y51074501D01*
X22507969Y51054817D01*
X22553724Y51002013D01*
X22564251Y50937539D01*
X22548380Y50786538D01*
X22521795Y50721924D01*
X22464498Y50681939D01*
X22425059Y50675500D01*
X21536989Y50675500D01*
X21536970Y50675499D01*
X21458356Y50669313D01*
X21275512Y50620320D01*
X21106853Y50534386D01*
X20959743Y50415257D01*
X20840614Y50268147D01*
X20754680Y50099488D01*
X20705687Y49916644D01*
X20705687Y49916643D01*
X20699500Y49838027D01*
X20699500Y48711990D01*
X20699501Y48711971D01*
X20705687Y48633357D01*
X20705688Y48633355D01*
X20754680Y48450512D01*
X20776783Y48407132D01*
X20840614Y48281854D01*
X20889859Y48221042D01*
X20959743Y48134743D01*
X21066311Y48048446D01*
X21106853Y48015615D01*
X21190371Y47973062D01*
X21275512Y47929680D01*
X21458355Y47880688D01*
X21536979Y47874500D01*
X23463020Y47874501D01*
X23541645Y47880688D01*
X23724488Y47929680D01*
X23853008Y47995165D01*
X23893146Y48015615D01*
X23893147Y48015617D01*
X23893149Y48015617D01*
X24040257Y48134743D01*
X24159383Y48281851D01*
X24245320Y48450512D01*
X24294312Y48633355D01*
X24300500Y48711979D01*
X24300499Y49838020D01*
X24294312Y49916645D01*
X24245320Y50099488D01*
X24214431Y50160110D01*
X24201536Y50228777D01*
X24217528Y50278399D01*
X24277179Y50381716D01*
X24335674Y50561744D01*
X24355460Y50750000D01*
X24335674Y50938256D01*
X24277179Y51118284D01*
X24182533Y51282216D01*
X24156093Y51311580D01*
X24125865Y51374569D01*
X24134490Y51443904D01*
X24151877Y51472583D01*
X24159383Y51481851D01*
X24245320Y51650512D01*
X24294312Y51833355D01*
X24300500Y51911979D01*
X24300499Y52058482D01*
X24320183Y52125521D01*
X24336813Y52146158D01*
X25602731Y53412076D01*
X25608151Y53417178D01*
X25653183Y53457071D01*
X25687362Y53506589D01*
X25691789Y53512604D01*
X25728878Y53559944D01*
X25733037Y53569187D01*
X25744061Y53588732D01*
X25749818Y53597070D01*
X25771145Y53653306D01*
X25774013Y53660230D01*
X25798693Y53715064D01*
X25798693Y53715066D01*
X25798695Y53715069D01*
X25800522Y53725041D01*
X25806546Y53746653D01*
X25810140Y53756128D01*
X25817387Y53815816D01*
X25818514Y53823223D01*
X25829358Y53882394D01*
X25825726Y53942435D01*
X25825500Y53949922D01*
X25825500Y54783481D01*
X25845185Y54850520D01*
X25861821Y54871164D01*
X25880469Y54889812D01*
X25880472Y54889815D01*
X25968478Y55035394D01*
X26019086Y55197804D01*
X26025500Y55268384D01*
X26025500Y55931616D01*
X26019086Y56002196D01*
X25968478Y56164606D01*
X25880472Y56310185D01*
X25880470Y56310187D01*
X25880469Y56310189D01*
X25861819Y56328839D01*
X25828334Y56390162D01*
X25825500Y56416520D01*
X25825500Y56765081D01*
X25825726Y56772569D01*
X25826784Y56790057D01*
X25829358Y56832607D01*
X25820979Y56878330D01*
X25828257Y56947819D01*
X25871948Y57002343D01*
X25908350Y57019757D01*
X25920398Y57023256D01*
X26061865Y57106919D01*
X26178081Y57223135D01*
X26261744Y57364602D01*
X26307598Y57522431D01*
X26310500Y57559306D01*
X26310500Y59340694D01*
X26307598Y59377569D01*
X26305540Y59384651D01*
X26281934Y59465905D01*
X26282133Y59535774D01*
X26320075Y59594444D01*
X26383713Y59623288D01*
X26401010Y59624500D01*
X27148126Y59624500D01*
X27215165Y59604815D01*
X27235807Y59588181D01*
X27296955Y59527033D01*
X27296959Y59527030D01*
X27441294Y59438002D01*
X27441297Y59438001D01*
X27441303Y59437997D01*
X27602292Y59384651D01*
X27701655Y59374500D01*
X28298344Y59374501D01*
X28298352Y59374502D01*
X28298355Y59374502D01*
X28352760Y59380060D01*
X28397708Y59384651D01*
X28558697Y59437997D01*
X28703044Y59527032D01*
X28764193Y59588181D01*
X28825516Y59621666D01*
X28851874Y59624500D01*
X29148126Y59624500D01*
X29215165Y59604815D01*
X29235807Y59588181D01*
X29296955Y59527033D01*
X29296959Y59527030D01*
X29441294Y59438002D01*
X29441297Y59438001D01*
X29441303Y59437997D01*
X29602292Y59384651D01*
X29701655Y59374500D01*
X30298344Y59374501D01*
X30298352Y59374502D01*
X30298355Y59374502D01*
X30352760Y59380060D01*
X30397708Y59384651D01*
X30558697Y59437997D01*
X30703044Y59527032D01*
X30805020Y59629009D01*
X30841802Y59654397D01*
X30842774Y59654835D01*
X30889808Y59676004D01*
X30896673Y59678848D01*
X30952930Y59700182D01*
X30961266Y59705938D01*
X30980821Y59716966D01*
X30990057Y59721122D01*
X31037413Y59758225D01*
X31043404Y59762634D01*
X31092929Y59796817D01*
X31132822Y59841849D01*
X31137926Y59847271D01*
X31162975Y59872319D01*
X31224297Y59905802D01*
X31224764Y59905902D01*
X31379803Y59938856D01*
X31552730Y60015849D01*
X31705871Y60127112D01*
X31832533Y60267784D01*
X31927179Y60431716D01*
X31985674Y60611744D01*
X32005460Y60800000D01*
X31985674Y60988256D01*
X31931112Y61156177D01*
X31927181Y61168278D01*
X31927180Y61168279D01*
X31927179Y61168284D01*
X31832533Y61332216D01*
X31705871Y61472888D01*
X31665261Y61502393D01*
X31552734Y61584149D01*
X31552729Y61584152D01*
X31379807Y61661143D01*
X31379802Y61661145D01*
X31234001Y61692135D01*
X31194646Y61700500D01*
X31005354Y61700500D01*
X30972897Y61693602D01*
X30820197Y61661145D01*
X30820193Y61661143D01*
X30763096Y61635721D01*
X30712660Y61625000D01*
X27025001Y61625000D01*
X27025001Y61601678D01*
X27035144Y61502393D01*
X27088452Y61341519D01*
X27088457Y61341508D01*
X27166738Y61214597D01*
X27185179Y61147205D01*
X27164257Y61080542D01*
X27110615Y61035772D01*
X27061200Y61025500D01*
X25924910Y61025500D01*
X25917423Y61025726D01*
X25857395Y61029357D01*
X25857391Y61029357D01*
X25847429Y61027531D01*
X25825078Y61025500D01*
X25574927Y61025500D01*
X25552576Y61027531D01*
X25542607Y61029358D01*
X25542603Y61029358D01*
X25482567Y61025726D01*
X25475079Y61025500D01*
X25274927Y61025500D01*
X25252576Y61027531D01*
X25242607Y61029358D01*
X25242603Y61029358D01*
X25182567Y61025726D01*
X25175079Y61025500D01*
X22524500Y61025500D01*
X22457461Y61045185D01*
X22411706Y61097989D01*
X22400500Y61149500D01*
X22400500Y61854327D01*
X22420185Y61921366D01*
X22472989Y61967121D01*
X22542147Y61977065D01*
X22559095Y61973403D01*
X22717426Y61927403D01*
X22717429Y61927403D01*
X22717431Y61927402D01*
X22754306Y61924500D01*
X22754314Y61924500D01*
X23185686Y61924500D01*
X23185694Y61924500D01*
X23222569Y61927402D01*
X23222571Y61927403D01*
X23222573Y61927403D01*
X23264191Y61939495D01*
X23380398Y61973256D01*
X23521865Y62056919D01*
X23521870Y62056925D01*
X23528031Y62061702D01*
X23529933Y62059250D01*
X23578579Y62085845D01*
X23648274Y62080896D01*
X23680695Y62060060D01*
X23681969Y62061702D01*
X23688132Y62056922D01*
X23688135Y62056919D01*
X23829602Y61973256D01*
X23850719Y61967121D01*
X23987426Y61927403D01*
X23987429Y61927403D01*
X23987431Y61927402D01*
X24024306Y61924500D01*
X24024314Y61924500D01*
X24455686Y61924500D01*
X24455694Y61924500D01*
X24492569Y61927402D01*
X24492571Y61927403D01*
X24492573Y61927403D01*
X24534191Y61939495D01*
X24650398Y61973256D01*
X24791865Y62056919D01*
X24791870Y62056925D01*
X24798031Y62061702D01*
X24799933Y62059250D01*
X24848579Y62085845D01*
X24918274Y62080896D01*
X24950695Y62060060D01*
X24951969Y62061702D01*
X24958132Y62056922D01*
X24958135Y62056919D01*
X25099602Y61973256D01*
X25120719Y61967121D01*
X25257426Y61927403D01*
X25257429Y61927403D01*
X25257431Y61927402D01*
X25294306Y61924500D01*
X25294314Y61924500D01*
X25725686Y61924500D01*
X25725694Y61924500D01*
X25762569Y61927402D01*
X25762571Y61927403D01*
X25762573Y61927403D01*
X25804191Y61939495D01*
X25920398Y61973256D01*
X26061865Y62056919D01*
X26129946Y62125000D01*
X27025000Y62125000D01*
X27750000Y62125000D01*
X28250000Y62125000D01*
X29750000Y62125000D01*
X29750000Y62825000D01*
X30250000Y62825000D01*
X30250000Y62125000D01*
X30974999Y62125000D01*
X30974999Y62148308D01*
X30974998Y62148323D01*
X30964855Y62247608D01*
X30911547Y62408482D01*
X30911542Y62408493D01*
X30822575Y62552729D01*
X30822572Y62552733D01*
X30702732Y62672573D01*
X30702728Y62672576D01*
X30558492Y62761543D01*
X30558481Y62761548D01*
X30397606Y62814856D01*
X30298322Y62825000D01*
X30250000Y62825000D01*
X29750000Y62825000D01*
X29749999Y62825001D01*
X29701693Y62825000D01*
X29701675Y62824999D01*
X29602392Y62814856D01*
X29441518Y62761548D01*
X29441507Y62761543D01*
X29297271Y62672576D01*
X29297267Y62672573D01*
X29177427Y62552733D01*
X29177424Y62552729D01*
X29105538Y62436184D01*
X29053590Y62389459D01*
X28984627Y62378238D01*
X28920545Y62406081D01*
X28894462Y62436184D01*
X28822575Y62552729D01*
X28822572Y62552733D01*
X28702732Y62672573D01*
X28702728Y62672576D01*
X28558492Y62761543D01*
X28558481Y62761548D01*
X28397606Y62814856D01*
X28298322Y62825000D01*
X28250000Y62825000D01*
X28250000Y62125000D01*
X27750000Y62125000D01*
X27750000Y62825000D01*
X27749999Y62825001D01*
X27701693Y62825000D01*
X27701675Y62824999D01*
X27602392Y62814856D01*
X27441518Y62761548D01*
X27441507Y62761543D01*
X27297271Y62672576D01*
X27297267Y62672573D01*
X27177427Y62552733D01*
X27177424Y62552729D01*
X27088457Y62408493D01*
X27088452Y62408482D01*
X27035144Y62247607D01*
X27025000Y62148323D01*
X27025000Y62125000D01*
X26129946Y62125000D01*
X26178081Y62173135D01*
X26261744Y62314602D01*
X26307598Y62472431D01*
X26310500Y62509306D01*
X26310500Y64290694D01*
X26307598Y64327569D01*
X26307597Y64327574D01*
X26262913Y64481377D01*
X26263112Y64551246D01*
X26294306Y64603651D01*
X26554335Y64863680D01*
X26615656Y64897163D01*
X26629413Y64899355D01*
X26630842Y64899501D01*
X26630844Y64899501D01*
X26730208Y64909651D01*
X26891197Y64962997D01*
X27035544Y65052032D01*
X27045168Y65061657D01*
X27106487Y65095144D01*
X27176179Y65090165D01*
X27220534Y65061661D01*
X27229767Y65052428D01*
X27229771Y65052425D01*
X27374007Y64963458D01*
X27374018Y64963453D01*
X27534893Y64910145D01*
X27634183Y64900001D01*
X27657500Y64900002D01*
X27657500Y65625000D01*
X28157500Y65625000D01*
X28157500Y64900001D01*
X28180808Y64900001D01*
X28180822Y64900002D01*
X28280107Y64910145D01*
X28440981Y64963453D01*
X28440992Y64963458D01*
X28585228Y65052425D01*
X28585232Y65052428D01*
X28705072Y65172268D01*
X28705075Y65172272D01*
X28794042Y65316508D01*
X28794047Y65316519D01*
X28847355Y65477394D01*
X28857499Y65576678D01*
X28857500Y65576691D01*
X28857500Y65625000D01*
X28157500Y65625000D01*
X27657500Y65625000D01*
X27657500Y66001000D01*
X27677185Y66068039D01*
X27729989Y66113794D01*
X27781500Y66125000D01*
X28857499Y66125000D01*
X28857499Y66173308D01*
X28857498Y66173323D01*
X28847355Y66272608D01*
X28794047Y66433482D01*
X28794042Y66433493D01*
X28705075Y66577729D01*
X28705072Y66577733D01*
X28585232Y66697573D01*
X28585228Y66697576D01*
X28440992Y66786543D01*
X28440981Y66786548D01*
X28280106Y66839856D01*
X28180822Y66850000D01*
X28140017Y66850000D01*
X28072978Y66869685D01*
X28027223Y66922489D01*
X28017279Y66991647D01*
X28046304Y67055203D01*
X28052322Y67061667D01*
X30752731Y69762076D01*
X30758151Y69767178D01*
X30803183Y69807071D01*
X30837362Y69856589D01*
X30841789Y69862604D01*
X30878878Y69909944D01*
X30883037Y69919187D01*
X30894061Y69938732D01*
X30899818Y69947070D01*
X30921145Y70003306D01*
X30924013Y70010230D01*
X30948693Y70065064D01*
X30948693Y70065066D01*
X30948695Y70065069D01*
X30950522Y70075041D01*
X30956546Y70096653D01*
X30960140Y70106128D01*
X30967387Y70165816D01*
X30968514Y70173223D01*
X30972427Y70194576D01*
X30979358Y70232394D01*
X30975726Y70292435D01*
X30975500Y70299922D01*
X30975500Y72156310D01*
X30995185Y72223349D01*
X31047989Y72269104D01*
X31067393Y72276081D01*
X31099488Y72284680D01*
X31213402Y72342723D01*
X31268146Y72370615D01*
X31268147Y72370617D01*
X31268149Y72370617D01*
X31415257Y72489743D01*
X31534383Y72636851D01*
X31620320Y72805512D01*
X31669312Y72988355D01*
X31675500Y73066979D01*
X31675499Y74993020D01*
X31669312Y75071645D01*
X31620320Y75254488D01*
X31576938Y75339629D01*
X31534385Y75423147D01*
X31501554Y75463689D01*
X31415257Y75570257D01*
X31277669Y75681674D01*
X31268146Y75689386D01*
X31142868Y75753217D01*
X31099488Y75775320D01*
X31032562Y75793253D01*
X30916643Y75824313D01*
X30844736Y75829972D01*
X30838021Y75830500D01*
X30838020Y75830500D01*
X29711989Y75830500D01*
X29711970Y75830499D01*
X29633356Y75824313D01*
X29450512Y75775320D01*
X29281853Y75689386D01*
X29134743Y75570257D01*
X29015614Y75423147D01*
X28929680Y75254488D01*
X28880687Y75071644D01*
X28880687Y75071643D01*
X28874500Y74993027D01*
X28874500Y73066990D01*
X28874501Y73066971D01*
X28880687Y72988357D01*
X28911747Y72872438D01*
X28929680Y72805512D01*
X28951783Y72762132D01*
X29015614Y72636854D01*
X29064859Y72576042D01*
X29134743Y72489743D01*
X29241311Y72403446D01*
X29281853Y72370615D01*
X29395765Y72312575D01*
X29450512Y72284680D01*
X29482595Y72276084D01*
X29542252Y72239722D01*
X29572783Y72176876D01*
X29574500Y72156310D01*
X29574500Y70616520D01*
X29554815Y70549481D01*
X29538181Y70528839D01*
X25879790Y66870449D01*
X25874338Y66865317D01*
X25829320Y66825434D01*
X25802004Y66785861D01*
X25765054Y66750767D01*
X25679457Y66697970D01*
X25559529Y66578041D01*
X25470501Y66433706D01*
X25470496Y66433695D01*
X25417151Y66272710D01*
X25407000Y66173353D01*
X25407000Y65749020D01*
X25387315Y65681981D01*
X25370681Y65661339D01*
X25032290Y65322949D01*
X25026838Y65317817D01*
X24981819Y65277932D01*
X24947649Y65228431D01*
X24943213Y65222403D01*
X24906124Y65175062D01*
X24906119Y65175052D01*
X24901960Y65165812D01*
X24890942Y65146277D01*
X24885187Y65137939D01*
X24885179Y65137924D01*
X24863853Y65081695D01*
X24860989Y65074780D01*
X24836305Y65019932D01*
X24834477Y65009958D01*
X24828453Y64988347D01*
X24824860Y64978873D01*
X24824858Y64978865D01*
X24818606Y64927385D01*
X24790983Y64863208D01*
X24733048Y64824153D01*
X24663195Y64822620D01*
X24656261Y64825041D01*
X24492573Y64872598D01*
X24492567Y64872599D01*
X24455701Y64875500D01*
X24455694Y64875500D01*
X24455515Y64875500D01*
X24455488Y64875508D01*
X24453266Y64875595D01*
X24453269Y64875691D01*
X24453267Y64875691D01*
X24453272Y64875762D01*
X24453287Y64876154D01*
X24388476Y64895185D01*
X24342721Y64947989D01*
X24332777Y65017147D01*
X24361802Y65080703D01*
X24380576Y65096667D01*
X24379877Y65097551D01*
X24385538Y65102029D01*
X24385544Y65102032D01*
X24505468Y65221956D01*
X24594503Y65366303D01*
X24647849Y65527292D01*
X24658000Y65626655D01*
X24657999Y66173344D01*
X24647849Y66272708D01*
X24594503Y66433697D01*
X24594499Y66433703D01*
X24594498Y66433706D01*
X24505470Y66578041D01*
X24505467Y66578045D01*
X24495839Y66587673D01*
X24462354Y66648996D01*
X24467338Y66718688D01*
X24495845Y66763041D01*
X24505073Y66772269D01*
X24594042Y66916508D01*
X24594047Y66916519D01*
X24647355Y67077394D01*
X24657499Y67176678D01*
X24657500Y67176691D01*
X24657500Y67200000D01*
X23556500Y67200000D01*
X23489461Y67219685D01*
X23443706Y67272489D01*
X23432500Y67324000D01*
X23432500Y68400000D01*
X23932500Y68400000D01*
X23932500Y67700000D01*
X24657499Y67700000D01*
X24657499Y67723308D01*
X24657498Y67723323D01*
X24647355Y67822608D01*
X24594047Y67983482D01*
X24594042Y67983493D01*
X24505075Y68127729D01*
X24505072Y68127733D01*
X24385232Y68247573D01*
X24385228Y68247576D01*
X24240992Y68336543D01*
X24240981Y68336548D01*
X24080106Y68389856D01*
X23980822Y68400000D01*
X23932500Y68400000D01*
X23432500Y68400000D01*
X23432499Y68400001D01*
X23384193Y68400000D01*
X23384175Y68399999D01*
X23284892Y68389856D01*
X23124018Y68336548D01*
X23124009Y68336544D01*
X23089596Y68315317D01*
X23022204Y68296877D01*
X22955540Y68317800D01*
X22910771Y68371442D01*
X22900500Y68420856D01*
X22900500Y68813482D01*
X22920185Y68880521D01*
X22936814Y68901158D01*
X26254960Y72219305D01*
X26316281Y72252788D01*
X26374731Y72251397D01*
X26433355Y72235688D01*
X26511979Y72229500D01*
X27638020Y72229501D01*
X27716645Y72235688D01*
X27899488Y72284680D01*
X28028008Y72350165D01*
X28068146Y72370615D01*
X28068147Y72370617D01*
X28068149Y72370617D01*
X28215257Y72489743D01*
X28334383Y72636851D01*
X28420320Y72805512D01*
X28469312Y72988355D01*
X28475500Y73066979D01*
X28475499Y74993020D01*
X28469312Y75071645D01*
X28420320Y75254488D01*
X28376938Y75339629D01*
X28334385Y75423147D01*
X28301554Y75463689D01*
X28215257Y75570257D01*
X28077669Y75681674D01*
X28068146Y75689386D01*
X27942868Y75753217D01*
X27899488Y75775320D01*
X27832562Y75793253D01*
X27716643Y75824313D01*
X27638026Y75830500D01*
X26520517Y75830500D01*
X26453478Y75850185D01*
X26407723Y75902989D01*
X26397779Y75972147D01*
X26426804Y76035703D01*
X26432822Y76042167D01*
X29615231Y79224576D01*
X29620651Y79229678D01*
X29665683Y79269571D01*
X29699866Y79319096D01*
X29704275Y79325087D01*
X29741378Y79372443D01*
X29745534Y79381679D01*
X29756562Y79401234D01*
X29762318Y79409570D01*
X29783650Y79465822D01*
X29786510Y79472724D01*
X29811193Y79527564D01*
X29811193Y79527566D01*
X29811195Y79527569D01*
X29813022Y79537541D01*
X29819046Y79559153D01*
X29822640Y79568628D01*
X29829887Y79628316D01*
X29831014Y79635723D01*
X29841858Y79694894D01*
X29838226Y79754935D01*
X29838000Y79762422D01*
X29838000Y91096609D01*
X29857685Y91163648D01*
X29874319Y91184290D01*
X29969026Y91278997D01*
X30060362Y91427075D01*
X30115087Y91592225D01*
X30125500Y91694152D01*
X30125500Y92705848D01*
X30115087Y92807775D01*
X30060362Y92972925D01*
X30060358Y92972931D01*
X30060357Y92972934D01*
X29969028Y93121000D01*
X29969025Y93121004D01*
X29846003Y93244026D01*
X29845999Y93244029D01*
X29697933Y93335358D01*
X29697927Y93335361D01*
X29697925Y93335362D01*
X29697922Y93335363D01*
X29532776Y93390087D01*
X29430855Y93400500D01*
X29430848Y93400500D01*
X28844152Y93400500D01*
X28844144Y93400500D01*
X28742223Y93390087D01*
X28577077Y93335363D01*
X28577066Y93335358D01*
X28429000Y93244029D01*
X28428996Y93244026D01*
X28305974Y93121004D01*
X28305967Y93120995D01*
X28305234Y93119806D01*
X28304519Y93119164D01*
X28301493Y93115336D01*
X28300838Y93115854D01*
X28253280Y93073089D01*
X28184316Y93061877D01*
X28120238Y93089729D01*
X28098238Y93115123D01*
X28098112Y93115023D01*
X28095885Y93117839D01*
X28094163Y93119827D01*
X28093630Y93120691D01*
X27970691Y93243630D01*
X27822714Y93334904D01*
X27822709Y93334906D01*
X27657673Y93389593D01*
X27555815Y93400000D01*
X27512500Y93400000D01*
X27512500Y91000000D01*
X27555803Y91000000D01*
X27555815Y91000001D01*
X27657673Y91010408D01*
X27822709Y91065095D01*
X27822714Y91065097D01*
X27970691Y91156371D01*
X28093628Y91279308D01*
X28094159Y91280168D01*
X28094680Y91280637D01*
X28098112Y91284977D01*
X28098853Y91284392D01*
X28146101Y91326898D01*
X28215063Y91338128D01*
X28279148Y91310292D01*
X28301413Y91284602D01*
X28301493Y91284664D01*
X28302890Y91282897D01*
X28305238Y91280188D01*
X28305968Y91279005D01*
X28305974Y91278997D01*
X28400681Y91184290D01*
X28434166Y91122967D01*
X28437000Y91096609D01*
X28437000Y80079020D01*
X28417315Y80011981D01*
X28400681Y79991339D01*
X20222290Y71812949D01*
X20216838Y71807817D01*
X20171819Y71767932D01*
X20137649Y71718431D01*
X20133213Y71712403D01*
X20096124Y71665062D01*
X20096119Y71665052D01*
X20091960Y71655812D01*
X20080942Y71636277D01*
X20075187Y71627939D01*
X20075179Y71627924D01*
X20053853Y71571695D01*
X20050989Y71564780D01*
X20026305Y71509932D01*
X20024477Y71499958D01*
X20018453Y71478347D01*
X20014860Y71468873D01*
X20014860Y71468872D01*
X20007610Y71409173D01*
X20006483Y71401773D01*
X19995642Y71342611D01*
X19995642Y71342605D01*
X19999274Y71282568D01*
X19999500Y71275080D01*
X19999500Y68316520D01*
X19979815Y68249481D01*
X19963181Y68228839D01*
X19869531Y68135190D01*
X19869531Y68135189D01*
X19869529Y68135187D01*
X19869528Y68135185D01*
X19865023Y68127733D01*
X19863671Y68125496D01*
X19812141Y68078311D01*
X19743281Y68066474D01*
X19678954Y68093746D01*
X19651439Y68125501D01*
X19645585Y68135185D01*
X19630472Y68160185D01*
X19630471Y68160186D01*
X19630468Y68160190D01*
X19510188Y68280470D01*
X19452544Y68315317D01*
X19364606Y68368478D01*
X19202196Y68419086D01*
X19202194Y68419087D01*
X19202192Y68419087D01*
X19152778Y68423577D01*
X19131616Y68425500D01*
X19131613Y68425500D01*
X18941519Y68425500D01*
X18874480Y68445185D01*
X18853838Y68461819D01*
X16399319Y70916338D01*
X16365834Y70977661D01*
X16363000Y71004019D01*
X16363000Y91096609D01*
X16382685Y91163648D01*
X16399319Y91184290D01*
X16494026Y91278997D01*
X16494755Y91280179D01*
X16495466Y91280819D01*
X16498507Y91284664D01*
X16499163Y91284145D01*
X16546701Y91326903D01*
X16615664Y91338127D01*
X16679746Y91310285D01*
X16701761Y91284877D01*
X16701888Y91284977D01*
X16704113Y91282162D01*
X16705833Y91280178D01*
X16706365Y91279315D01*
X16706369Y91279310D01*
X16829308Y91156371D01*
X16977285Y91065097D01*
X16977290Y91065095D01*
X17142326Y91010408D01*
X17244184Y91000001D01*
X17244197Y91000000D01*
X17287500Y91000000D01*
X17287500Y91950000D01*
X17787500Y91950000D01*
X17787500Y91000000D01*
X17830803Y91000000D01*
X17830815Y91000001D01*
X17932673Y91010408D01*
X18097709Y91065095D01*
X18097714Y91065097D01*
X18245691Y91156371D01*
X18368629Y91279309D01*
X18459903Y91427286D01*
X18459905Y91427291D01*
X18514592Y91592327D01*
X18524999Y91694185D01*
X18525000Y91694198D01*
X18525000Y91950000D01*
X26275000Y91950000D01*
X26275000Y91694185D01*
X26285407Y91592327D01*
X26340094Y91427291D01*
X26340096Y91427286D01*
X26431370Y91279309D01*
X26554308Y91156371D01*
X26702285Y91065097D01*
X26702290Y91065095D01*
X26867326Y91010408D01*
X26969184Y91000001D01*
X26969197Y91000000D01*
X27012500Y91000000D01*
X27012500Y91950000D01*
X26275000Y91950000D01*
X18525000Y91950000D01*
X17787500Y91950000D01*
X17287500Y91950000D01*
X17287500Y93400000D01*
X17787500Y93400000D01*
X17787500Y92450000D01*
X18525000Y92450000D01*
X26275000Y92450000D01*
X27012500Y92450000D01*
X27012500Y93400000D01*
X26969184Y93400000D01*
X26867326Y93389593D01*
X26702290Y93334906D01*
X26702285Y93334904D01*
X26554308Y93243630D01*
X26431370Y93120692D01*
X26340096Y92972715D01*
X26340094Y92972710D01*
X26285407Y92807674D01*
X26275000Y92705816D01*
X26275000Y92450000D01*
X18525000Y92450000D01*
X18525000Y92705803D01*
X18524999Y92705816D01*
X18514592Y92807674D01*
X18459905Y92972710D01*
X18459903Y92972715D01*
X18368629Y93120692D01*
X18245691Y93243630D01*
X18097714Y93334904D01*
X18097709Y93334906D01*
X17932673Y93389593D01*
X17830815Y93400000D01*
X17787500Y93400000D01*
X17287500Y93400000D01*
X17244184Y93400000D01*
X17142326Y93389593D01*
X16977290Y93334906D01*
X16977285Y93334904D01*
X16829308Y93243630D01*
X16706369Y93120691D01*
X16706364Y93120685D01*
X16705829Y93119816D01*
X16705306Y93119346D01*
X16701888Y93115023D01*
X16701149Y93115608D01*
X16653879Y93073094D01*
X16584916Y93061875D01*
X16520835Y93089722D01*
X16498586Y93115399D01*
X16498507Y93115336D01*
X16497111Y93117102D01*
X16494758Y93119817D01*
X16494028Y93121001D01*
X16371003Y93244026D01*
X16370999Y93244029D01*
X16222933Y93335358D01*
X16222927Y93335361D01*
X16222925Y93335362D01*
X16222922Y93335363D01*
X16057776Y93390087D01*
X15955855Y93400500D01*
X15955848Y93400500D01*
X15369152Y93400500D01*
X15369144Y93400500D01*
X15267223Y93390087D01*
X15102077Y93335363D01*
X15102066Y93335358D01*
X14954000Y93244029D01*
X14953996Y93244026D01*
X14830974Y93121004D01*
X14830971Y93121000D01*
X14739642Y92972934D01*
X14739637Y92972923D01*
X14684913Y92807777D01*
X14674500Y92705856D01*
X14674500Y91694145D01*
X14408251Y91694145D01*
X14408153Y98784875D01*
X14427837Y98851915D01*
X14480640Y98897671D01*
X14532153Y98908877D01*
X30327700Y98908877D01*
X30394739Y98889192D01*
G37*
%TD.AperFunction*%
%TD*%
M02*
