%TF.GenerationSoftware,KiCad,Pcbnew,7.0.11*%
%TF.CreationDate,2025-03-07T22:39:11-08:00*%
%TF.ProjectId,enderman,656e6465-726d-4616-9e2e-6b696361645f,0.2*%
%TF.SameCoordinates,PX6ed1240PY84f1340*%
%TF.FileFunction,Copper,L2,Bot*%
%TF.FilePolarity,Positive*%
%FSLAX46Y46*%
G04 Gerber Fmt 4.6, Leading zero omitted, Abs format (unit mm)*
G04 Created by KiCad (PCBNEW 7.0.11) date 2025-03-07 22:39:11*
%MOMM*%
%LPD*%
G01*
G04 APERTURE LIST*
%TA.AperFunction,SMDPad,CuDef*%
%ADD10R,3.200000X3.200000*%
%TD*%
%TA.AperFunction,SMDPad,CuDef*%
%ADD11R,3.960000X3.960000*%
%TD*%
%TA.AperFunction,SMDPad,CuDef*%
%ADD12R,2.000000X2.000000*%
%TD*%
%TA.AperFunction,SMDPad,CuDef*%
%ADD13R,0.800000X1.000000*%
%TD*%
%TA.AperFunction,SMDPad,CuDef*%
%ADD14R,1.500000X0.700000*%
%TD*%
%TA.AperFunction,SMDPad,CuDef*%
%ADD15R,2.000000X3.400000*%
%TD*%
%TA.AperFunction,ViaPad*%
%ADD16C,0.800000*%
%TD*%
%TA.AperFunction,Conductor*%
%ADD17C,0.400000*%
%TD*%
G04 APERTURE END LIST*
D10*
%TO.P,BT2,1,+*%
%TO.N,+6V*%
X30200000Y50050000D03*
X30200000Y64450000D03*
D11*
%TO.P,BT2,2,-*%
%TO.N,Net-(BT2--)*%
X30200000Y57250000D03*
%TD*%
D10*
%TO.P,BT3,1,+*%
%TO.N,Net-(BT2--)*%
X22587500Y79800000D03*
X22587500Y94200000D03*
D11*
%TO.P,BT3,2,-*%
%TO.N,Net-(BT3--)*%
X22587500Y87000000D03*
%TD*%
D12*
%TO.P,TP1,1,1*%
%TO.N,unconnected-(TP1-Pad1)*%
X28600000Y97400000D03*
%TD*%
D10*
%TO.P,BT1,1,+*%
%TO.N,Net-(BT1-+)*%
X14600000Y64400000D03*
X14600000Y50000000D03*
D11*
%TO.P,BT1,2,-*%
%TO.N,GND*%
X14600000Y57200000D03*
%TD*%
D12*
%TO.P,TP2,1,1*%
%TO.N,unconnected-(TP2-Pad1)*%
X16400000Y97400000D03*
%TD*%
D13*
%TO.P,SW1,*%
%TO.N,*%
X10370000Y70650000D03*
X12580000Y70650000D03*
X10370000Y77950000D03*
X12580000Y77950000D03*
D14*
%TO.P,SW1,1,A*%
%TO.N,unconnected-(SW1-A-Pad1)*%
X13230000Y72050000D03*
%TO.P,SW1,2,B*%
%TO.N,Net-(BT1-+)*%
X13230000Y75050000D03*
%TO.P,SW1,3,C*%
%TO.N,Net-(BT3--)*%
X13230000Y76550000D03*
%TD*%
D15*
%TO.P,LS1,1,1*%
%TO.N,Net-(U1A-Q)*%
X27100000Y72137500D03*
%TO.P,LS1,2,2*%
%TO.N,GND*%
X17700000Y72137500D03*
%TD*%
D16*
%TO.N,GND*%
X25200000Y61400000D03*
X19800000Y56775261D03*
X25200000Y66700000D03*
X17400000Y75000000D03*
X17800000Y60400000D03*
%TO.N,+6V*%
X23450000Y50750000D03*
X31100000Y60800000D03*
%TO.N,Net-(U1A-Q)*%
X20600000Y61700000D03*
%TD*%
D17*
%TO.N,Net-(BT3--)*%
X13230000Y76550000D02*
X14750000Y76550000D01*
%TO.N,Net-(BT1-+)*%
X13230000Y75050000D02*
X14350000Y75050000D01*
X14350000Y75050000D02*
X15200000Y74200000D01*
X14600000Y50000000D02*
X10400000Y54200000D01*
X15200000Y74200000D02*
X15200000Y65000000D01*
X15200000Y65000000D02*
X14600000Y64400000D01*
X10400000Y60200000D02*
X14600000Y64400000D01*
X10400000Y54200000D02*
X10400000Y60200000D01*
%TO.N,GND*%
X17800000Y72037500D02*
X17700000Y72137500D01*
X20575261Y56775261D02*
X25200000Y61400000D01*
X19800000Y56775261D02*
X20575261Y56775261D01*
X17400000Y75000000D02*
X17400000Y72437500D01*
X15024739Y56775261D02*
X14600000Y57200000D01*
X25200000Y66700000D02*
X25200000Y61400000D01*
X17800000Y60400000D02*
X17800000Y72037500D01*
X17400000Y72437500D02*
X17700000Y72137500D01*
X19800000Y56775261D02*
X15024739Y56775261D01*
X14600000Y57200000D02*
X17800000Y60400000D01*
%TO.N,+6V*%
X23450000Y50750000D02*
X29500000Y50750000D01*
X31100000Y63550000D02*
X30200000Y64450000D01*
X30200000Y64400000D02*
X30200000Y64450000D01*
X23450000Y57650000D02*
X30200000Y64400000D01*
X29500000Y50750000D02*
X30200000Y50050000D01*
X31100000Y60800000D02*
X31100000Y63550000D01*
X23450000Y50750000D02*
X23450000Y57650000D01*
%TO.N,Net-(BT2--)*%
X23700000Y79800000D02*
X22587500Y79800000D01*
X22600000Y79800000D02*
X27600000Y84800000D01*
X30200000Y57250000D02*
X33700000Y60750000D01*
X33700000Y69800000D02*
X23700000Y79800000D01*
X22587500Y79800000D02*
X22600000Y79800000D01*
X27600000Y89187500D02*
X22587500Y94200000D01*
X27600000Y84800000D02*
X27600000Y89187500D01*
X33700000Y60750000D02*
X33700000Y69800000D01*
%TO.N,Net-(U1A-Q)*%
X20600000Y65637500D02*
X20600000Y61700000D01*
X27100000Y72137500D02*
X20600000Y65637500D01*
%TO.N,Net-(BT3--)*%
X14750000Y76550000D02*
X22587500Y84387500D01*
X22587500Y84387500D02*
X22587500Y87000000D01*
%TD*%
%TA.AperFunction,Conductor*%
%TO.N,GND*%
G36*
X14975057Y98889192D02*
G01*
X15020812Y98836388D01*
X15030756Y98767230D01*
X15007285Y98710566D01*
X14956203Y98642331D01*
X14956202Y98642329D01*
X14905908Y98507483D01*
X14899501Y98447884D01*
X14899501Y98447877D01*
X14899500Y98447865D01*
X14899500Y96352130D01*
X14899501Y96352124D01*
X14905908Y96292517D01*
X14956202Y96157672D01*
X14956206Y96157665D01*
X15042452Y96042456D01*
X15042455Y96042453D01*
X15157664Y95956207D01*
X15157671Y95956203D01*
X15292517Y95905909D01*
X15292516Y95905909D01*
X15299444Y95905165D01*
X15352127Y95899500D01*
X17447872Y95899501D01*
X17507483Y95905909D01*
X17642331Y95956204D01*
X17757546Y96042454D01*
X17843796Y96157669D01*
X17894091Y96292517D01*
X17900500Y96352127D01*
X17900499Y98447872D01*
X17894091Y98507483D01*
X17843796Y98642331D01*
X17792714Y98710567D01*
X17768298Y98776030D01*
X17783149Y98844303D01*
X17832554Y98893709D01*
X17891982Y98908877D01*
X27108018Y98908877D01*
X27175057Y98889192D01*
X27220812Y98836388D01*
X27230756Y98767230D01*
X27207285Y98710566D01*
X27156203Y98642331D01*
X27156202Y98642329D01*
X27105908Y98507483D01*
X27099501Y98447884D01*
X27099501Y98447877D01*
X27099500Y98447865D01*
X27099500Y96352130D01*
X27099501Y96352124D01*
X27105908Y96292517D01*
X27156202Y96157672D01*
X27156206Y96157665D01*
X27242452Y96042456D01*
X27242455Y96042453D01*
X27357664Y95956207D01*
X27357671Y95956203D01*
X27492517Y95905909D01*
X27492516Y95905909D01*
X27499444Y95905165D01*
X27552127Y95899500D01*
X29647872Y95899501D01*
X29707483Y95905909D01*
X29842331Y95956204D01*
X29957546Y96042454D01*
X30043796Y96157669D01*
X30094091Y96292517D01*
X30100500Y96352127D01*
X30100499Y98447872D01*
X30094091Y98507483D01*
X30043796Y98642331D01*
X29992714Y98710567D01*
X29968298Y98776030D01*
X29983149Y98844303D01*
X30032554Y98893709D01*
X30091982Y98908877D01*
X30327700Y98908877D01*
X30394739Y98889192D01*
X30440494Y98836388D01*
X30451700Y98784877D01*
X30451700Y81862369D01*
X30459390Y81836178D01*
X30463147Y81818909D01*
X30466824Y81793344D01*
X30467035Y81791875D01*
X30478373Y81767049D01*
X30484555Y81750474D01*
X30492246Y81724281D01*
X30492247Y81724279D01*
X30507006Y81701313D01*
X30515482Y81685791D01*
X30526823Y81660959D01*
X30535062Y81651451D01*
X30544696Y81640332D01*
X30555295Y81626172D01*
X30570053Y81603209D01*
X30570057Y81603204D01*
X30590688Y81585326D01*
X30603192Y81572822D01*
X30621071Y81552190D01*
X30621072Y81552189D01*
X30644044Y81537427D01*
X30658196Y81526832D01*
X30678827Y81508955D01*
X30702099Y81498327D01*
X30703651Y81497618D01*
X30719178Y81489140D01*
X30742147Y81474379D01*
X30768336Y81466689D01*
X30784913Y81460506D01*
X30809738Y81449169D01*
X30809739Y81449169D01*
X30809743Y81449167D01*
X30836764Y81445282D01*
X30854046Y81441523D01*
X30880239Y81433832D01*
X30916401Y81433832D01*
X33918414Y81433832D01*
X33985453Y81414147D01*
X34031208Y81361343D01*
X34041152Y81292185D01*
X34012127Y81228629D01*
X33955116Y81191991D01*
X33955147Y81191912D01*
X33954761Y81191763D01*
X33953349Y81190855D01*
X33952341Y81190563D01*
X33949796Y81189840D01*
X33763769Y81117773D01*
X33763762Y81117769D01*
X33594148Y81012749D01*
X33446709Y80878340D01*
X33326482Y80719135D01*
X33326477Y80719127D01*
X33237555Y80540547D01*
X33182956Y80348650D01*
X33164549Y80150001D01*
X33164549Y80150000D01*
X33182956Y79951351D01*
X33237555Y79759454D01*
X33326477Y79580874D01*
X33326482Y79580866D01*
X33446709Y79421661D01*
X33446710Y79421660D01*
X33594145Y79287254D01*
X33763768Y79182228D01*
X33949801Y79110159D01*
X34145909Y79073500D01*
X34145911Y79073500D01*
X34345411Y79073500D01*
X34345413Y79073500D01*
X34541521Y79110159D01*
X34727554Y79182228D01*
X34897177Y79287254D01*
X35044612Y79421660D01*
X35164841Y79580868D01*
X35253768Y79759457D01*
X35308365Y79951346D01*
X35326773Y80150000D01*
X35308365Y80348654D01*
X35253768Y80540543D01*
X35252354Y80543382D01*
X35164844Y80719127D01*
X35164839Y80719135D01*
X35044612Y80878340D01*
X34983927Y80933662D01*
X34897177Y81012746D01*
X34897174Y81012748D01*
X34897173Y81012749D01*
X34727559Y81117769D01*
X34727552Y81117773D01*
X34541525Y81189840D01*
X34538981Y81190563D01*
X34537904Y81191242D01*
X34536175Y81191912D01*
X34536306Y81192251D01*
X34479886Y81227839D01*
X34450324Y81291147D01*
X34459682Y81360387D01*
X34504988Y81413576D01*
X34571859Y81433828D01*
X34572908Y81433832D01*
X35807993Y81433832D01*
X35875032Y81414147D01*
X35920787Y81361343D01*
X35931993Y81309832D01*
X35931993Y16489321D01*
X35912308Y16422282D01*
X35859504Y16376527D01*
X35807993Y16365321D01*
X33519960Y16365321D01*
X33452921Y16385006D01*
X33407166Y16437810D01*
X33395960Y16489321D01*
X33395960Y46916213D01*
X33390910Y46933411D01*
X33388268Y46942410D01*
X33384510Y46959688D01*
X33380625Y46986709D01*
X33373390Y47002552D01*
X33369286Y47011539D01*
X33363103Y47028116D01*
X33355413Y47054304D01*
X33355413Y47054306D01*
X33340652Y47077274D01*
X33332174Y47092801D01*
X33324943Y47108634D01*
X33320837Y47117625D01*
X33302960Y47138256D01*
X33292363Y47152412D01*
X33277603Y47175380D01*
X33277602Y47175381D01*
X33256970Y47193260D01*
X33244466Y47205764D01*
X33226588Y47226395D01*
X33226583Y47226399D01*
X33203620Y47241157D01*
X33189460Y47251756D01*
X33182467Y47257815D01*
X33168833Y47269629D01*
X33144001Y47280970D01*
X33128479Y47289446D01*
X33128477Y47289447D01*
X33105513Y47304205D01*
X33105511Y47304206D01*
X33079318Y47311897D01*
X33062748Y47318078D01*
X33037917Y47329417D01*
X33010883Y47333305D01*
X32993614Y47337062D01*
X32967423Y47344752D01*
X32967421Y47344752D01*
X32931259Y47344752D01*
X28840033Y47344752D01*
X28696111Y47344752D01*
X28696108Y47344752D01*
X28696106Y47344751D01*
X28669914Y47337062D01*
X28652640Y47333304D01*
X28625616Y47329418D01*
X28625613Y47329417D01*
X28600782Y47318077D01*
X28584213Y47311897D01*
X28574655Y47309090D01*
X28558019Y47304205D01*
X28558017Y47304205D01*
X28558017Y47304204D01*
X28535054Y47289447D01*
X28519533Y47280972D01*
X28494700Y47269631D01*
X28494697Y47269629D01*
X28474072Y47251757D01*
X28459912Y47241157D01*
X28436948Y47226399D01*
X28436943Y47226395D01*
X28419065Y47205763D01*
X28406561Y47193259D01*
X28385929Y47175381D01*
X28385925Y47175376D01*
X28371167Y47152412D01*
X28360567Y47138252D01*
X28342695Y47117627D01*
X28342693Y47117624D01*
X28331352Y47092791D01*
X28322879Y47077274D01*
X28308119Y47054305D01*
X28306936Y47050276D01*
X28300427Y47028111D01*
X28294247Y47011542D01*
X28282907Y46986711D01*
X28282906Y46986708D01*
X28279020Y46959684D01*
X28275262Y46942410D01*
X28267573Y46916218D01*
X28267572Y46916210D01*
X28267572Y3004480D01*
X28247887Y2937441D01*
X28195083Y2891686D01*
X28143572Y2880480D01*
X25895761Y2880480D01*
X25828722Y2900165D01*
X25782967Y2952969D01*
X25771761Y3004480D01*
X25771761Y46907226D01*
X25769121Y46916218D01*
X25764069Y46933423D01*
X25760311Y46950701D01*
X25756426Y46977719D01*
X25756426Y46977721D01*
X25756426Y46977722D01*
X25754162Y46982680D01*
X25745087Y47002552D01*
X25738904Y47019129D01*
X25731214Y47045317D01*
X25731214Y47045319D01*
X25716453Y47068287D01*
X25707975Y47083814D01*
X25703875Y47092791D01*
X25696638Y47108638D01*
X25678761Y47129269D01*
X25668164Y47143425D01*
X25653404Y47166393D01*
X25647686Y47171348D01*
X25632771Y47184273D01*
X25620267Y47196777D01*
X25602389Y47217408D01*
X25602384Y47217412D01*
X25579421Y47232170D01*
X25565261Y47242769D01*
X25554889Y47251756D01*
X25544634Y47260642D01*
X25519802Y47271983D01*
X25504280Y47280459D01*
X25504278Y47280460D01*
X25481314Y47295218D01*
X25481312Y47295219D01*
X25455119Y47302910D01*
X25438549Y47309091D01*
X25413718Y47320430D01*
X25386684Y47324318D01*
X25369415Y47328075D01*
X25343224Y47335765D01*
X25343222Y47335765D01*
X25307060Y47335765D01*
X19663077Y47335765D01*
X19519155Y47335765D01*
X19519152Y47335765D01*
X19519150Y47335764D01*
X19492958Y47328075D01*
X19475684Y47324317D01*
X19448660Y47320431D01*
X19448657Y47320430D01*
X19423826Y47309090D01*
X19407257Y47302910D01*
X19394287Y47299102D01*
X19381063Y47295218D01*
X19381061Y47295218D01*
X19381061Y47295217D01*
X19372081Y47289446D01*
X19358895Y47280972D01*
X19358098Y47280460D01*
X19342577Y47271985D01*
X19317744Y47260644D01*
X19317741Y47260642D01*
X19297116Y47242770D01*
X19282956Y47232170D01*
X19259992Y47217412D01*
X19259987Y47217408D01*
X19242109Y47196776D01*
X19229605Y47184272D01*
X19208973Y47166394D01*
X19208969Y47166389D01*
X19194211Y47143425D01*
X19183611Y47129265D01*
X19165739Y47108640D01*
X19165737Y47108637D01*
X19154396Y47083804D01*
X19145921Y47068283D01*
X19131164Y47045320D01*
X19123471Y47019124D01*
X19117291Y47002555D01*
X19105951Y46977724D01*
X19105950Y46977721D01*
X19102064Y46950697D01*
X19098306Y46933423D01*
X19090617Y46907231D01*
X19090616Y46907223D01*
X19090616Y2993952D01*
X19070931Y2926913D01*
X19018127Y2881158D01*
X18966616Y2869952D01*
X16731271Y2869952D01*
X16664232Y2889637D01*
X16618477Y2942441D01*
X16607271Y2993952D01*
X16607271Y46912185D01*
X16606087Y46916218D01*
X16599579Y46938382D01*
X16595821Y46955660D01*
X16592649Y46977722D01*
X16591936Y46982681D01*
X16590097Y46986708D01*
X16580597Y47007511D01*
X16574414Y47024088D01*
X16566724Y47050276D01*
X16566724Y47050278D01*
X16551963Y47073246D01*
X16543485Y47088773D01*
X16541645Y47092801D01*
X16532148Y47113597D01*
X16514271Y47134228D01*
X16503674Y47148384D01*
X16488914Y47171352D01*
X16488913Y47171353D01*
X16468281Y47189232D01*
X16455777Y47201736D01*
X16437899Y47222367D01*
X16437894Y47222371D01*
X16414931Y47237129D01*
X16400771Y47247728D01*
X16393778Y47253787D01*
X16380144Y47265601D01*
X16355312Y47276942D01*
X16339790Y47285418D01*
X16339788Y47285419D01*
X16316824Y47300177D01*
X16316822Y47300178D01*
X16290629Y47307869D01*
X16274059Y47314050D01*
X16249228Y47325389D01*
X16222194Y47329277D01*
X16204925Y47333034D01*
X16178734Y47340724D01*
X16178732Y47340724D01*
X16142570Y47340724D01*
X12044364Y47340724D01*
X11900442Y47340724D01*
X11900439Y47340724D01*
X11900437Y47340723D01*
X11874245Y47333034D01*
X11856971Y47329276D01*
X11829947Y47325390D01*
X11829944Y47325389D01*
X11805113Y47314049D01*
X11788544Y47307869D01*
X11776071Y47304206D01*
X11762350Y47300177D01*
X11762348Y47300177D01*
X11762348Y47300176D01*
X11739385Y47285419D01*
X11723864Y47276944D01*
X11699031Y47265603D01*
X11699028Y47265601D01*
X11678403Y47247729D01*
X11664243Y47237129D01*
X11641279Y47222371D01*
X11641274Y47222367D01*
X11623396Y47201735D01*
X11610892Y47189231D01*
X11590260Y47171353D01*
X11590256Y47171348D01*
X11575498Y47148384D01*
X11564898Y47134224D01*
X11547026Y47113599D01*
X11547024Y47113596D01*
X11535683Y47088763D01*
X11527210Y47073246D01*
X11512450Y47050277D01*
X11510994Y47045319D01*
X11504758Y47024083D01*
X11498578Y47007514D01*
X11487238Y46982683D01*
X11487237Y46982680D01*
X11483351Y46955656D01*
X11479593Y46938382D01*
X11471904Y46912190D01*
X11471903Y46912182D01*
X11471903Y18102324D01*
X11452218Y18035285D01*
X11399414Y17989530D01*
X11330256Y17979586D01*
X11266700Y18008611D01*
X11228926Y18067389D01*
X11228637Y18068390D01*
X11208109Y18140539D01*
X11208106Y18140545D01*
X11119183Y18319127D01*
X11119178Y18319135D01*
X10998951Y18478340D01*
X10851516Y18612746D01*
X10851513Y18612748D01*
X10851512Y18612749D01*
X10681898Y18717769D01*
X10681891Y18717773D01*
X10588876Y18753807D01*
X10495860Y18789841D01*
X10299752Y18826500D01*
X10100248Y18826500D01*
X9904140Y18789841D01*
X9904137Y18789841D01*
X9904137Y18789840D01*
X9718108Y18717773D01*
X9718101Y18717769D01*
X9548487Y18612749D01*
X9401048Y18478340D01*
X9280821Y18319135D01*
X9280816Y18319127D01*
X9191893Y18140545D01*
X9191890Y18140539D01*
X9143766Y17971395D01*
X9106487Y17912302D01*
X9043178Y17882744D01*
X8973938Y17892106D01*
X8920752Y17937415D01*
X8900504Y18004287D01*
X8900500Y18005329D01*
X8900500Y54157395D01*
X9695642Y54157395D01*
X9706483Y54098230D01*
X9707610Y54090829D01*
X9714859Y54031129D01*
X9714860Y54031126D01*
X9718451Y54021657D01*
X9724474Y54000054D01*
X9726304Y53990070D01*
X9750991Y53935218D01*
X9753854Y53928306D01*
X9775182Y53872070D01*
X9775183Y53872069D01*
X9780936Y53863734D01*
X9791961Y53844187D01*
X9796120Y53834945D01*
X9796124Y53834940D01*
X9833215Y53787597D01*
X9837655Y53781562D01*
X9871812Y53732076D01*
X9871816Y53732071D01*
X9916828Y53692195D01*
X9922283Y53687060D01*
X12463181Y51146162D01*
X12496666Y51084839D01*
X12499500Y51058481D01*
X12499500Y48352130D01*
X12499501Y48352124D01*
X12505908Y48292517D01*
X12556202Y48157672D01*
X12556206Y48157665D01*
X12642452Y48042456D01*
X12642455Y48042453D01*
X12757664Y47956207D01*
X12757671Y47956203D01*
X12892517Y47905909D01*
X12892516Y47905909D01*
X12899444Y47905165D01*
X12952127Y47899500D01*
X16247872Y47899501D01*
X16307483Y47905909D01*
X16442331Y47956204D01*
X16557546Y48042454D01*
X16643796Y48157669D01*
X16694091Y48292517D01*
X16700500Y48352127D01*
X16700499Y51647872D01*
X16694091Y51707483D01*
X16675442Y51757483D01*
X16643797Y51842329D01*
X16643793Y51842336D01*
X16557547Y51957545D01*
X16557544Y51957548D01*
X16442335Y52043794D01*
X16442328Y52043798D01*
X16307482Y52094092D01*
X16307483Y52094092D01*
X16247883Y52100499D01*
X16247881Y52100500D01*
X16247873Y52100500D01*
X16247865Y52100500D01*
X13541519Y52100500D01*
X13474480Y52120185D01*
X13453838Y52136819D01*
X11136819Y54453838D01*
X11103334Y54515161D01*
X11100500Y54541519D01*
X11100500Y56950000D01*
X12120000Y56950000D01*
X12120000Y55172156D01*
X12126401Y55112628D01*
X12126403Y55112621D01*
X12176645Y54977914D01*
X12176649Y54977907D01*
X12262809Y54862813D01*
X12262812Y54862810D01*
X12377906Y54776650D01*
X12377913Y54776646D01*
X12512620Y54726404D01*
X12512627Y54726402D01*
X12572155Y54720001D01*
X12572172Y54720000D01*
X14350000Y54720000D01*
X14350000Y56950000D01*
X14850000Y56950000D01*
X14850000Y54720000D01*
X16627828Y54720000D01*
X16627844Y54720001D01*
X16687372Y54726402D01*
X16687379Y54726404D01*
X16822086Y54776646D01*
X16822093Y54776650D01*
X16937187Y54862810D01*
X16937190Y54862813D01*
X17023350Y54977907D01*
X17023354Y54977914D01*
X17073596Y55112621D01*
X17073598Y55112628D01*
X17079999Y55172156D01*
X17080000Y55172173D01*
X17080000Y56950000D01*
X14850000Y56950000D01*
X14350000Y56950000D01*
X12120000Y56950000D01*
X11100500Y56950000D01*
X11100500Y57450000D01*
X12120000Y57450000D01*
X14350000Y57450000D01*
X14350000Y59680000D01*
X14850000Y59680000D01*
X14850000Y57450000D01*
X17080000Y57450000D01*
X17080000Y59227828D01*
X17079999Y59227845D01*
X17073598Y59287373D01*
X17073596Y59287380D01*
X17023354Y59422087D01*
X17023350Y59422094D01*
X16937190Y59537188D01*
X16937187Y59537191D01*
X16822093Y59623351D01*
X16822086Y59623355D01*
X16687379Y59673597D01*
X16687372Y59673599D01*
X16627844Y59680000D01*
X14850000Y59680000D01*
X14350000Y59680000D01*
X12572155Y59680000D01*
X12512627Y59673599D01*
X12512620Y59673597D01*
X12377913Y59623355D01*
X12377906Y59623351D01*
X12262812Y59537191D01*
X12262809Y59537188D01*
X12176649Y59422094D01*
X12176645Y59422087D01*
X12126403Y59287380D01*
X12126401Y59287373D01*
X12120000Y59227845D01*
X12120000Y57450000D01*
X11100500Y57450000D01*
X11100500Y59858482D01*
X11120185Y59925521D01*
X11136814Y59946158D01*
X13453838Y62263183D01*
X13515161Y62296667D01*
X13541519Y62299501D01*
X16247871Y62299501D01*
X16247872Y62299501D01*
X16307483Y62305909D01*
X16442331Y62356204D01*
X16557546Y62442454D01*
X16643796Y62557669D01*
X16694091Y62692517D01*
X16700500Y62752127D01*
X16700499Y66047872D01*
X16694312Y66105429D01*
X16694091Y66107484D01*
X16643797Y66242329D01*
X16643793Y66242336D01*
X16557547Y66357545D01*
X16557544Y66357548D01*
X16442335Y66443794D01*
X16442328Y66443798D01*
X16307482Y66494092D01*
X16307483Y66494092D01*
X16247883Y66500499D01*
X16247881Y66500500D01*
X16247873Y66500500D01*
X16247865Y66500500D01*
X16024500Y66500500D01*
X15957461Y66520185D01*
X15911706Y66572989D01*
X15900500Y66624500D01*
X15900500Y71887500D01*
X16200000Y71887500D01*
X16200000Y70389656D01*
X16206401Y70330128D01*
X16206403Y70330121D01*
X16256645Y70195414D01*
X16256649Y70195407D01*
X16342809Y70080313D01*
X16342812Y70080310D01*
X16457906Y69994150D01*
X16457913Y69994146D01*
X16592620Y69943904D01*
X16592627Y69943902D01*
X16652155Y69937501D01*
X16652172Y69937500D01*
X17450000Y69937500D01*
X17450000Y71887500D01*
X17950000Y71887500D01*
X17950000Y69937500D01*
X18747828Y69937500D01*
X18747844Y69937501D01*
X18807372Y69943902D01*
X18807379Y69943904D01*
X18942086Y69994146D01*
X18942093Y69994150D01*
X19057187Y70080310D01*
X19057190Y70080313D01*
X19143350Y70195407D01*
X19143354Y70195414D01*
X19193596Y70330121D01*
X19193598Y70330128D01*
X19199999Y70389656D01*
X19200000Y70389673D01*
X19200000Y71887500D01*
X17950000Y71887500D01*
X17450000Y71887500D01*
X16200000Y71887500D01*
X15900500Y71887500D01*
X15900500Y72387500D01*
X16200000Y72387500D01*
X17450000Y72387500D01*
X17450000Y74337500D01*
X17950000Y74337500D01*
X17950000Y72387500D01*
X19200000Y72387500D01*
X19200000Y73885328D01*
X19199999Y73885345D01*
X19193598Y73944873D01*
X19193596Y73944880D01*
X19143354Y74079587D01*
X19143350Y74079594D01*
X19057190Y74194688D01*
X19057187Y74194691D01*
X18942093Y74280851D01*
X18942086Y74280855D01*
X18807379Y74331097D01*
X18807372Y74331099D01*
X18747844Y74337500D01*
X17950000Y74337500D01*
X17450000Y74337500D01*
X16652155Y74337500D01*
X16592627Y74331099D01*
X16592620Y74331097D01*
X16457913Y74280855D01*
X16457906Y74280851D01*
X16342812Y74194691D01*
X16342809Y74194688D01*
X16256649Y74079594D01*
X16256645Y74079587D01*
X16206403Y73944880D01*
X16206401Y73944873D01*
X16200000Y73885345D01*
X16200000Y72387500D01*
X15900500Y72387500D01*
X15900500Y74175080D01*
X15900726Y74182568D01*
X15904358Y74242606D01*
X15893514Y74301779D01*
X15892387Y74309185D01*
X15889726Y74331099D01*
X15885140Y74368872D01*
X15881548Y74378344D01*
X15875521Y74399966D01*
X15873695Y74409929D01*
X15873693Y74409937D01*
X15849009Y74464779D01*
X15846154Y74471669D01*
X15824818Y74527930D01*
X15819062Y74536269D01*
X15808034Y74555823D01*
X15803881Y74565051D01*
X15803878Y74565055D01*
X15803878Y74565056D01*
X15766788Y74612397D01*
X15762352Y74618426D01*
X15739089Y74652128D01*
X15728183Y74667929D01*
X15683145Y74707829D01*
X15677707Y74712949D01*
X14862940Y75527717D01*
X14857805Y75533172D01*
X14817929Y75578184D01*
X14817924Y75578188D01*
X14768438Y75612345D01*
X14762403Y75616785D01*
X14748271Y75627857D01*
X14707639Y75684698D01*
X14704187Y75754482D01*
X14739012Y75815054D01*
X14801056Y75847183D01*
X14802351Y75847428D01*
X14851779Y75856486D01*
X14859185Y75857613D01*
X14862921Y75858067D01*
X14918872Y75864860D01*
X14928335Y75868450D01*
X14949961Y75874478D01*
X14950893Y75874649D01*
X14959932Y75876305D01*
X15014808Y75901004D01*
X15021678Y75903850D01*
X15077930Y75925182D01*
X15086266Y75930938D01*
X15105821Y75941966D01*
X15115057Y75946122D01*
X15162413Y75983225D01*
X15168404Y75987634D01*
X15217929Y76021817D01*
X15257822Y76066849D01*
X15262924Y76072269D01*
X20275321Y81084666D01*
X20336642Y81118149D01*
X20406334Y81113165D01*
X20462267Y81071293D01*
X20486684Y81005829D01*
X20487000Y80996983D01*
X20487000Y78152130D01*
X20487001Y78152124D01*
X20493408Y78092517D01*
X20543702Y77957672D01*
X20543706Y77957665D01*
X20629952Y77842456D01*
X20629955Y77842453D01*
X20745164Y77756207D01*
X20745171Y77756203D01*
X20880017Y77705909D01*
X20880016Y77705909D01*
X20886944Y77705165D01*
X20939627Y77699500D01*
X24235372Y77699501D01*
X24294983Y77705909D01*
X24429831Y77756204D01*
X24528712Y77830227D01*
X24594175Y77854643D01*
X24662448Y77839792D01*
X24690703Y77818640D01*
X27959662Y74549681D01*
X27993147Y74488358D01*
X27988163Y74418666D01*
X27946291Y74362733D01*
X27880827Y74338316D01*
X27871981Y74338000D01*
X26052129Y74338000D01*
X26052123Y74337999D01*
X25992516Y74331592D01*
X25857671Y74281298D01*
X25857664Y74281294D01*
X25742455Y74195048D01*
X25742452Y74195045D01*
X25656206Y74079836D01*
X25656202Y74079829D01*
X25605908Y73944983D01*
X25599501Y73885384D01*
X25599500Y73885365D01*
X25599500Y71679020D01*
X25579815Y71611981D01*
X25563181Y71591339D01*
X20122290Y66150449D01*
X20116838Y66145317D01*
X20071819Y66105432D01*
X20037649Y66055931D01*
X20033213Y66049903D01*
X19996124Y66002562D01*
X19996119Y66002552D01*
X19991960Y65993312D01*
X19980942Y65973777D01*
X19975187Y65965439D01*
X19975179Y65965424D01*
X19953853Y65909195D01*
X19950989Y65902280D01*
X19926305Y65847432D01*
X19924477Y65837458D01*
X19918453Y65815847D01*
X19914860Y65806373D01*
X19914860Y65806372D01*
X19907610Y65746673D01*
X19906483Y65739273D01*
X19895642Y65680111D01*
X19895642Y65680105D01*
X19899274Y65620068D01*
X19899500Y65612580D01*
X19899500Y62315392D01*
X19879815Y62248353D01*
X19867656Y62232426D01*
X19867468Y62232218D01*
X19867464Y62232213D01*
X19772821Y62068285D01*
X19772818Y62068278D01*
X19714327Y61888260D01*
X19714326Y61888256D01*
X19694540Y61700000D01*
X19714326Y61511744D01*
X19714327Y61511741D01*
X19772818Y61331723D01*
X19772821Y61331716D01*
X19867467Y61167784D01*
X19936137Y61091519D01*
X19994129Y61027112D01*
X20147265Y60915852D01*
X20147270Y60915849D01*
X20320192Y60838858D01*
X20320197Y60838856D01*
X20505354Y60799500D01*
X20505355Y60799500D01*
X20694644Y60799500D01*
X20694646Y60799500D01*
X20879803Y60838856D01*
X21052730Y60915849D01*
X21205871Y61027112D01*
X21332533Y61167784D01*
X21427179Y61331716D01*
X21485674Y61511744D01*
X21505460Y61700000D01*
X21485674Y61888256D01*
X21427179Y62068284D01*
X21332533Y62232216D01*
X21332344Y62232426D01*
X21332273Y62232573D01*
X21328714Y62237472D01*
X21329610Y62238124D01*
X21302119Y62295420D01*
X21300500Y62315392D01*
X21300500Y65295982D01*
X21320185Y65363021D01*
X21336814Y65383658D01*
X25866283Y69913128D01*
X25927604Y69946611D01*
X25984338Y69942554D01*
X25984962Y69945194D01*
X25992513Y69943411D01*
X25992517Y69943409D01*
X26052127Y69937000D01*
X28147872Y69937001D01*
X28207483Y69943409D01*
X28342331Y69993704D01*
X28457546Y70079954D01*
X28543796Y70195169D01*
X28594091Y70330017D01*
X28600500Y70389627D01*
X28600499Y73609483D01*
X28620184Y73676521D01*
X28672988Y73722276D01*
X28742146Y73732220D01*
X28805702Y73703195D01*
X28812180Y73697163D01*
X32963181Y69546162D01*
X32996666Y69484839D01*
X32999500Y69458481D01*
X32999500Y61091519D01*
X32979815Y61024480D01*
X32963181Y61003838D01*
X31726161Y59766819D01*
X31664838Y59733334D01*
X31638480Y59730500D01*
X31495201Y59730500D01*
X31428162Y59750185D01*
X31382407Y59802989D01*
X31372463Y59872147D01*
X31401488Y59935703D01*
X31444765Y59967779D01*
X31488109Y59987078D01*
X31552730Y60015849D01*
X31705871Y60127112D01*
X31832533Y60267784D01*
X31927179Y60431716D01*
X31985674Y60611744D01*
X32005460Y60800000D01*
X31985674Y60988256D01*
X31931112Y61156177D01*
X31927181Y61168278D01*
X31927180Y61168279D01*
X31927179Y61168284D01*
X31832533Y61332216D01*
X31832344Y61332426D01*
X31832273Y61332573D01*
X31828714Y61337472D01*
X31829610Y61338124D01*
X31802119Y61395420D01*
X31800500Y61415392D01*
X31800500Y62233024D01*
X31820185Y62300063D01*
X31872989Y62345818D01*
X31900135Y62353264D01*
X31899932Y62354124D01*
X31907479Y62355908D01*
X31907481Y62355909D01*
X31907483Y62355909D01*
X32042331Y62406204D01*
X32157546Y62492454D01*
X32243796Y62607669D01*
X32294091Y62742517D01*
X32300500Y62802127D01*
X32300499Y66097872D01*
X32294091Y66157483D01*
X32243796Y66292331D01*
X32243795Y66292332D01*
X32243793Y66292336D01*
X32157547Y66407545D01*
X32157544Y66407548D01*
X32042335Y66493794D01*
X32042328Y66493798D01*
X31907482Y66544092D01*
X31907483Y66544092D01*
X31847883Y66550499D01*
X31847881Y66550500D01*
X31847873Y66550500D01*
X31847864Y66550500D01*
X28552129Y66550500D01*
X28552123Y66550499D01*
X28492516Y66544092D01*
X28357671Y66493798D01*
X28357664Y66493794D01*
X28242455Y66407548D01*
X28242452Y66407545D01*
X28156206Y66292336D01*
X28156202Y66292329D01*
X28105908Y66157483D01*
X28100312Y66105429D01*
X28099501Y66097877D01*
X28099500Y66097865D01*
X28099500Y63341520D01*
X28079815Y63274481D01*
X28063181Y63253839D01*
X22972290Y58162949D01*
X22966838Y58157817D01*
X22921819Y58117932D01*
X22887649Y58068431D01*
X22883213Y58062403D01*
X22846124Y58015062D01*
X22846119Y58015052D01*
X22841960Y58005812D01*
X22830942Y57986277D01*
X22825187Y57977939D01*
X22825179Y57977924D01*
X22803853Y57921695D01*
X22800989Y57914780D01*
X22776305Y57859932D01*
X22774477Y57849958D01*
X22768453Y57828347D01*
X22764860Y57818873D01*
X22764860Y57818872D01*
X22757610Y57759173D01*
X22756483Y57751773D01*
X22745642Y57692611D01*
X22745642Y57692605D01*
X22749274Y57632568D01*
X22749500Y57625080D01*
X22749500Y51365392D01*
X22729815Y51298353D01*
X22717656Y51282426D01*
X22717468Y51282218D01*
X22717464Y51282213D01*
X22622821Y51118285D01*
X22622818Y51118278D01*
X22564327Y50938260D01*
X22564326Y50938256D01*
X22544540Y50750000D01*
X22564326Y50561744D01*
X22564327Y50561741D01*
X22622818Y50381723D01*
X22622821Y50381716D01*
X22717467Y50217784D01*
X22844129Y50077112D01*
X22997265Y49965852D01*
X22997270Y49965849D01*
X23170192Y49888858D01*
X23170197Y49888856D01*
X23355354Y49849500D01*
X23355355Y49849500D01*
X23544644Y49849500D01*
X23544646Y49849500D01*
X23729803Y49888856D01*
X23902730Y49965849D01*
X23918320Y49977177D01*
X23985271Y50025818D01*
X24051077Y50049298D01*
X24058156Y50049500D01*
X27975501Y50049500D01*
X28042540Y50029815D01*
X28088295Y49977011D01*
X28099501Y49925500D01*
X28099501Y48402124D01*
X28105908Y48342517D01*
X28156202Y48207672D01*
X28156206Y48207665D01*
X28242452Y48092456D01*
X28242455Y48092453D01*
X28357664Y48006207D01*
X28357671Y48006203D01*
X28492517Y47955909D01*
X28492516Y47955909D01*
X28499444Y47955165D01*
X28552127Y47949500D01*
X31847872Y47949501D01*
X31907483Y47955909D01*
X32042331Y48006204D01*
X32157546Y48092454D01*
X32243796Y48207669D01*
X32294091Y48342517D01*
X32300500Y48402127D01*
X32300499Y51697872D01*
X32294091Y51757483D01*
X32243796Y51892331D01*
X32243795Y51892332D01*
X32243793Y51892336D01*
X32157547Y52007545D01*
X32157544Y52007548D01*
X32042335Y52093794D01*
X32042328Y52093798D01*
X31907482Y52144092D01*
X31907483Y52144092D01*
X31847883Y52150499D01*
X31847881Y52150500D01*
X31847873Y52150500D01*
X31847864Y52150500D01*
X28552129Y52150500D01*
X28552123Y52150499D01*
X28492516Y52144092D01*
X28357671Y52093798D01*
X28357664Y52093794D01*
X28242455Y52007548D01*
X28242452Y52007545D01*
X28156206Y51892336D01*
X28156202Y51892329D01*
X28105908Y51757483D01*
X28100533Y51707484D01*
X28099501Y51697877D01*
X28099500Y51697865D01*
X28099500Y51574500D01*
X28079815Y51507461D01*
X28027011Y51461706D01*
X27975500Y51450500D01*
X24274500Y51450500D01*
X24207461Y51470185D01*
X24161706Y51522989D01*
X24150500Y51574500D01*
X24150500Y57308483D01*
X24170185Y57375522D01*
X24186814Y57396159D01*
X29103837Y62313183D01*
X29165160Y62346667D01*
X29191518Y62349501D01*
X30275500Y62349501D01*
X30342539Y62329816D01*
X30388294Y62277012D01*
X30399500Y62225501D01*
X30399500Y61415392D01*
X30379815Y61348353D01*
X30367656Y61332426D01*
X30367468Y61332218D01*
X30367464Y61332213D01*
X30272821Y61168285D01*
X30272818Y61168278D01*
X30226951Y61027112D01*
X30214326Y60988256D01*
X30194540Y60800000D01*
X30214326Y60611744D01*
X30214327Y60611741D01*
X30272818Y60431723D01*
X30272821Y60431716D01*
X30367467Y60267784D01*
X30494129Y60127112D01*
X30647265Y60015852D01*
X30647270Y60015849D01*
X30755235Y59967779D01*
X30808472Y59922529D01*
X30828793Y59855680D01*
X30809747Y59788456D01*
X30757381Y59742201D01*
X30704799Y59730500D01*
X28172129Y59730500D01*
X28172123Y59730499D01*
X28112516Y59724092D01*
X27977671Y59673798D01*
X27977664Y59673794D01*
X27862455Y59587548D01*
X27862452Y59587545D01*
X27776206Y59472336D01*
X27776202Y59472329D01*
X27725908Y59337483D01*
X27719501Y59277884D01*
X27719500Y59277865D01*
X27719500Y55222130D01*
X27719501Y55222124D01*
X27725908Y55162517D01*
X27776202Y55027672D01*
X27776206Y55027665D01*
X27862452Y54912456D01*
X27862455Y54912453D01*
X27977664Y54826207D01*
X27977671Y54826203D01*
X28112517Y54775909D01*
X28112516Y54775909D01*
X28119444Y54775165D01*
X28172127Y54769500D01*
X32227872Y54769501D01*
X32287483Y54775909D01*
X32422331Y54826204D01*
X32537546Y54912454D01*
X32623796Y55027669D01*
X32674091Y55162517D01*
X32680500Y55222127D01*
X32680499Y58688483D01*
X32700184Y58755521D01*
X32716813Y58776158D01*
X34177723Y60237069D01*
X34183125Y60242155D01*
X34228183Y60282071D01*
X34262358Y60331584D01*
X34266779Y60337594D01*
X34303877Y60384943D01*
X34308029Y60394172D01*
X34319062Y60413732D01*
X34319419Y60414250D01*
X34324818Y60422070D01*
X34346154Y60478332D01*
X34349014Y60485234D01*
X34373693Y60540066D01*
X34373692Y60540066D01*
X34373694Y60540068D01*
X34375520Y60550035D01*
X34381548Y60571660D01*
X34385140Y60581128D01*
X34392389Y60640831D01*
X34393516Y60648238D01*
X34404357Y60707394D01*
X34400726Y60767423D01*
X34400500Y60774910D01*
X34400500Y69775080D01*
X34400726Y69782568D01*
X34404358Y69842606D01*
X34393514Y69901779D01*
X34392387Y69909185D01*
X34391908Y69913126D01*
X34385140Y69968872D01*
X34381548Y69978344D01*
X34375521Y69999966D01*
X34373695Y70009929D01*
X34373693Y70009937D01*
X34349009Y70064779D01*
X34346154Y70071669D01*
X34324818Y70127930D01*
X34319062Y70136269D01*
X34308034Y70155823D01*
X34303880Y70165054D01*
X34289743Y70183098D01*
X34266780Y70212409D01*
X34262352Y70218427D01*
X34228183Y70267929D01*
X34183153Y70307822D01*
X34177715Y70312942D01*
X24724318Y79766339D01*
X24690833Y79827662D01*
X24687999Y79854020D01*
X24687999Y80845981D01*
X24707684Y80913020D01*
X24724318Y80933662D01*
X26225488Y82434832D01*
X28077731Y84287076D01*
X28083151Y84292178D01*
X28128183Y84332071D01*
X28162362Y84381589D01*
X28166789Y84387604D01*
X28203878Y84434944D01*
X28208037Y84444187D01*
X28219061Y84463732D01*
X28224818Y84472070D01*
X28246145Y84528306D01*
X28249013Y84535230D01*
X28273693Y84590064D01*
X28273693Y84590066D01*
X28273695Y84590069D01*
X28275522Y84600041D01*
X28281546Y84621653D01*
X28285140Y84631128D01*
X28292387Y84690816D01*
X28293514Y84698223D01*
X28304358Y84757394D01*
X28300726Y84817435D01*
X28300500Y84824922D01*
X28300500Y89162592D01*
X28300726Y89170079D01*
X28304357Y89230106D01*
X28304356Y89230114D01*
X28293516Y89289265D01*
X28292389Y89296670D01*
X28285140Y89356371D01*
X28285139Y89356375D01*
X28281546Y89365849D01*
X28275519Y89387471D01*
X28273694Y89397430D01*
X28273694Y89397432D01*
X28261827Y89423798D01*
X28249012Y89452272D01*
X28246151Y89459178D01*
X28224818Y89515430D01*
X28219060Y89523772D01*
X28208032Y89543324D01*
X28203877Y89552557D01*
X28203876Y89552558D01*
X28203875Y89552561D01*
X28166795Y89599888D01*
X28162354Y89605924D01*
X28128185Y89655427D01*
X28128183Y89655429D01*
X28083145Y89695329D01*
X28077707Y89700449D01*
X24724318Y93053838D01*
X24690833Y93115161D01*
X24687999Y93141519D01*
X24687999Y95847871D01*
X24687998Y95847877D01*
X24687997Y95847884D01*
X24681591Y95907483D01*
X24663419Y95956204D01*
X24631297Y96042329D01*
X24631293Y96042336D01*
X24545047Y96157545D01*
X24545044Y96157548D01*
X24429835Y96243794D01*
X24429828Y96243798D01*
X24294982Y96294092D01*
X24294983Y96294092D01*
X24235383Y96300499D01*
X24235381Y96300500D01*
X24235373Y96300500D01*
X24235364Y96300500D01*
X20939629Y96300500D01*
X20939623Y96300499D01*
X20880016Y96294092D01*
X20745171Y96243798D01*
X20745164Y96243794D01*
X20629955Y96157548D01*
X20629952Y96157545D01*
X20543706Y96042336D01*
X20543702Y96042329D01*
X20493408Y95907483D01*
X20487001Y95847884D01*
X20487001Y95847877D01*
X20487000Y95847865D01*
X20487000Y92552130D01*
X20487001Y92552124D01*
X20493408Y92492517D01*
X20543702Y92357672D01*
X20543706Y92357665D01*
X20629952Y92242456D01*
X20629955Y92242453D01*
X20745164Y92156207D01*
X20745171Y92156203D01*
X20880017Y92105909D01*
X20880016Y92105909D01*
X20886944Y92105165D01*
X20939627Y92099500D01*
X23645980Y92099501D01*
X23713019Y92079816D01*
X23733661Y92063182D01*
X26863181Y88933663D01*
X26896666Y88872340D01*
X26899500Y88845982D01*
X26899500Y85141520D01*
X26879815Y85074481D01*
X26863181Y85053839D01*
X23746161Y81936819D01*
X23684838Y81903334D01*
X23658480Y81900500D01*
X21390518Y81900500D01*
X21323479Y81920185D01*
X21277724Y81972989D01*
X21267780Y82042147D01*
X21296805Y82105703D01*
X21302837Y82112181D01*
X21625488Y82434832D01*
X23065231Y83874576D01*
X23070651Y83879678D01*
X23115683Y83919571D01*
X23149862Y83969089D01*
X23154289Y83975104D01*
X23191378Y84022444D01*
X23195537Y84031687D01*
X23206561Y84051232D01*
X23212318Y84059570D01*
X23233645Y84115806D01*
X23236513Y84122730D01*
X23261193Y84177564D01*
X23261193Y84177566D01*
X23261195Y84177569D01*
X23263022Y84187541D01*
X23269046Y84209153D01*
X23272640Y84218628D01*
X23279887Y84278316D01*
X23281014Y84285723D01*
X23281259Y84287059D01*
X23291858Y84344894D01*
X23291858Y84344897D01*
X23289250Y84388014D01*
X23304851Y84456120D01*
X23354797Y84504980D01*
X23413024Y84519501D01*
X24615371Y84519501D01*
X24615372Y84519501D01*
X24674983Y84525909D01*
X24809831Y84576204D01*
X24925046Y84662454D01*
X25011296Y84777669D01*
X25061591Y84912517D01*
X25068000Y84972127D01*
X25067999Y89027872D01*
X25061591Y89087483D01*
X25011296Y89222331D01*
X25011295Y89222332D01*
X25011293Y89222336D01*
X24925047Y89337545D01*
X24925044Y89337548D01*
X24809835Y89423794D01*
X24809828Y89423798D01*
X24674982Y89474092D01*
X24674983Y89474092D01*
X24615383Y89480499D01*
X24615381Y89480500D01*
X24615373Y89480500D01*
X24615364Y89480500D01*
X20559629Y89480500D01*
X20559623Y89480499D01*
X20500016Y89474092D01*
X20365171Y89423798D01*
X20365164Y89423794D01*
X20249955Y89337548D01*
X20249952Y89337545D01*
X20163706Y89222336D01*
X20163702Y89222329D01*
X20113408Y89087483D01*
X20107001Y89027884D01*
X20107001Y89027877D01*
X20107000Y89027865D01*
X20107000Y84972130D01*
X20107001Y84972124D01*
X20113408Y84912517D01*
X20163702Y84777672D01*
X20163706Y84777665D01*
X20249952Y84662456D01*
X20249955Y84662453D01*
X20365164Y84576207D01*
X20365171Y84576203D01*
X20500017Y84525909D01*
X20500016Y84525909D01*
X20506944Y84525165D01*
X20559627Y84519500D01*
X21429480Y84519501D01*
X21496519Y84499817D01*
X21542274Y84447013D01*
X21552218Y84377854D01*
X21523193Y84314298D01*
X21517161Y84307820D01*
X14496162Y77286819D01*
X14434839Y77253334D01*
X14408481Y77250500D01*
X14388231Y77250500D01*
X14321192Y77270185D01*
X14313920Y77275233D01*
X14222331Y77343796D01*
X14222328Y77343798D01*
X14087482Y77394092D01*
X14087483Y77394092D01*
X14027883Y77400499D01*
X14027881Y77400500D01*
X14027873Y77400500D01*
X14027865Y77400500D01*
X13604500Y77400500D01*
X13537461Y77420185D01*
X13491706Y77472989D01*
X13480500Y77524500D01*
X13480499Y78497871D01*
X13480498Y78497877D01*
X13480497Y78497884D01*
X13474091Y78557483D01*
X13423796Y78692331D01*
X13423795Y78692332D01*
X13423793Y78692336D01*
X13337547Y78807545D01*
X13337544Y78807548D01*
X13222335Y78893794D01*
X13222328Y78893798D01*
X13087482Y78944092D01*
X13087483Y78944092D01*
X13027883Y78950499D01*
X13027881Y78950500D01*
X13027873Y78950500D01*
X13027864Y78950500D01*
X12132129Y78950500D01*
X12132123Y78950499D01*
X12072516Y78944092D01*
X11937671Y78893798D01*
X11937664Y78893794D01*
X11822455Y78807548D01*
X11822452Y78807545D01*
X11736206Y78692336D01*
X11736202Y78692329D01*
X11685908Y78557483D01*
X11679501Y78497884D01*
X11679501Y78497877D01*
X11679500Y78497865D01*
X11679500Y77402130D01*
X11679501Y77402124D01*
X11685908Y77342517D01*
X11736202Y77207672D01*
X11736206Y77207665D01*
X11805358Y77115291D01*
X11822454Y77092454D01*
X11929811Y77012086D01*
X11971682Y76956153D01*
X11979500Y76912820D01*
X11979500Y76534644D01*
X11959815Y76467605D01*
X11907011Y76421850D01*
X11837853Y76411906D01*
X11805077Y76422514D01*
X11804943Y76422158D01*
X11797930Y76424818D01*
X11752235Y76442148D01*
X11638874Y76485140D01*
X11638868Y76485141D01*
X11512374Y76500500D01*
X11512372Y76500500D01*
X11427628Y76500500D01*
X11427626Y76500500D01*
X11301131Y76485141D01*
X11301125Y76485140D01*
X11142068Y76424818D01*
X11002072Y76328184D01*
X10889263Y76200850D01*
X10810210Y76050227D01*
X10782387Y75937340D01*
X10769500Y75885056D01*
X10769500Y75714944D01*
X10784551Y75653878D01*
X10810210Y75549774D01*
X10889263Y75399151D01*
X10889266Y75399148D01*
X11002071Y75271817D01*
X11092318Y75209524D01*
X11142068Y75175183D01*
X11142069Y75175183D01*
X11142070Y75175182D01*
X11301128Y75114860D01*
X11377028Y75105644D01*
X11427626Y75099500D01*
X11427628Y75099500D01*
X11512374Y75099500D01*
X11554538Y75104620D01*
X11638872Y75114860D01*
X11797930Y75175182D01*
X11797931Y75175183D01*
X11804943Y75177842D01*
X11805391Y75176659D01*
X11866377Y75188879D01*
X11931431Y75163390D01*
X11972378Y75106776D01*
X11979500Y75065357D01*
X11979500Y74652130D01*
X11979501Y74652124D01*
X11985908Y74592517D01*
X12036202Y74457672D01*
X12036206Y74457665D01*
X12122452Y74342456D01*
X12122455Y74342453D01*
X12237664Y74256207D01*
X12237671Y74256203D01*
X12372517Y74205909D01*
X12372516Y74205909D01*
X12379444Y74205165D01*
X12432127Y74199500D01*
X14027872Y74199501D01*
X14087483Y74205909D01*
X14097266Y74209559D01*
X14166956Y74214545D01*
X14228279Y74181064D01*
X14228283Y74181060D01*
X14228284Y74181059D01*
X14463181Y73946163D01*
X14496666Y73884840D01*
X14499500Y73858482D01*
X14499500Y72884030D01*
X14479815Y72816991D01*
X14427011Y72771236D01*
X14357853Y72761292D01*
X14301189Y72784763D01*
X14289238Y72793709D01*
X14222331Y72843796D01*
X14222329Y72843797D01*
X14222328Y72843798D01*
X14087482Y72894092D01*
X14087483Y72894092D01*
X14027883Y72900499D01*
X14027881Y72900500D01*
X14027873Y72900500D01*
X14027864Y72900500D01*
X12432129Y72900500D01*
X12432123Y72900499D01*
X12372515Y72894091D01*
X12315886Y72872970D01*
X12246195Y72867986D01*
X12184872Y72901472D01*
X12152157Y72959477D01*
X12129790Y73050225D01*
X12129789Y73050227D01*
X12050736Y73200850D01*
X12031560Y73222495D01*
X11937929Y73328183D01*
X11888177Y73362525D01*
X11797931Y73424818D01*
X11638874Y73485140D01*
X11638868Y73485141D01*
X11512374Y73500500D01*
X11512372Y73500500D01*
X11427628Y73500500D01*
X11427626Y73500500D01*
X11301131Y73485141D01*
X11301125Y73485140D01*
X11142068Y73424818D01*
X11002072Y73328184D01*
X10889263Y73200850D01*
X10810210Y73050227D01*
X10769500Y72885056D01*
X10769500Y72714945D01*
X10810210Y72549774D01*
X10889263Y72399151D01*
X10889266Y72399148D01*
X11002071Y72271817D01*
X11092318Y72209524D01*
X11142068Y72175183D01*
X11142069Y72175183D01*
X11142070Y72175182D01*
X11301128Y72114860D01*
X11377028Y72105644D01*
X11427626Y72099500D01*
X11427628Y72099500D01*
X11512374Y72099500D01*
X11554538Y72104620D01*
X11638872Y72114860D01*
X11797930Y72175182D01*
X11797931Y72175183D01*
X11804943Y72177842D01*
X11805391Y72176659D01*
X11866377Y72188879D01*
X11931431Y72163390D01*
X11972378Y72106776D01*
X11979500Y72065357D01*
X11979500Y71687181D01*
X11959815Y71620142D01*
X11929812Y71587915D01*
X11822452Y71507545D01*
X11736206Y71392336D01*
X11736202Y71392329D01*
X11685908Y71257483D01*
X11680364Y71205909D01*
X11679501Y71197877D01*
X11679500Y71197865D01*
X11679500Y70102130D01*
X11679501Y70102124D01*
X11685908Y70042517D01*
X11736202Y69907672D01*
X11736206Y69907665D01*
X11822452Y69792456D01*
X11822455Y69792453D01*
X11937664Y69706207D01*
X11937671Y69706203D01*
X12072517Y69655909D01*
X12072516Y69655909D01*
X12079444Y69655165D01*
X12132127Y69649500D01*
X13027872Y69649501D01*
X13087483Y69655909D01*
X13222331Y69706204D01*
X13337546Y69792454D01*
X13423796Y69907669D01*
X13474091Y70042517D01*
X13480500Y70102127D01*
X13480499Y71075502D01*
X13500183Y71142540D01*
X13552987Y71188295D01*
X13604499Y71199501D01*
X14027871Y71199501D01*
X14027872Y71199501D01*
X14087483Y71205909D01*
X14222331Y71256204D01*
X14301189Y71315238D01*
X14366652Y71339655D01*
X14434926Y71324804D01*
X14484331Y71275399D01*
X14499500Y71215971D01*
X14499500Y66624500D01*
X14479815Y66557461D01*
X14427011Y66511706D01*
X14375500Y66500500D01*
X12952129Y66500500D01*
X12952123Y66500499D01*
X12892516Y66494092D01*
X12757671Y66443798D01*
X12757664Y66443794D01*
X12642455Y66357548D01*
X12642452Y66357545D01*
X12556206Y66242336D01*
X12556202Y66242329D01*
X12505908Y66107483D01*
X12500366Y66055931D01*
X12499501Y66047877D01*
X12499500Y66047865D01*
X12499500Y63341520D01*
X12479815Y63274481D01*
X12463181Y63253839D01*
X9922290Y60712949D01*
X9916838Y60707817D01*
X9871819Y60667932D01*
X9837649Y60618431D01*
X9833213Y60612403D01*
X9796124Y60565062D01*
X9796119Y60565052D01*
X9791960Y60555812D01*
X9780942Y60536277D01*
X9775187Y60527939D01*
X9775179Y60527924D01*
X9753853Y60471695D01*
X9750989Y60464780D01*
X9726305Y60409932D01*
X9724477Y60399958D01*
X9718453Y60378347D01*
X9714860Y60368873D01*
X9714860Y60368872D01*
X9707610Y60309173D01*
X9706483Y60301773D01*
X9695642Y60242611D01*
X9695642Y60242605D01*
X9699274Y60182568D01*
X9699500Y60175080D01*
X9699500Y54224922D01*
X9699274Y54217434D01*
X9695642Y54157397D01*
X9695642Y54157395D01*
X8900500Y54157395D01*
X8900500Y70102130D01*
X9469500Y70102130D01*
X9469501Y70102124D01*
X9475908Y70042517D01*
X9526202Y69907672D01*
X9526206Y69907665D01*
X9612452Y69792456D01*
X9612455Y69792453D01*
X9727664Y69706207D01*
X9727671Y69706203D01*
X9862517Y69655909D01*
X9862516Y69655909D01*
X9869444Y69655165D01*
X9922127Y69649500D01*
X10817872Y69649501D01*
X10877483Y69655909D01*
X11012331Y69706204D01*
X11127546Y69792454D01*
X11213796Y69907669D01*
X11264091Y70042517D01*
X11270500Y70102127D01*
X11270499Y71197872D01*
X11264229Y71256203D01*
X11264091Y71257484D01*
X11213797Y71392329D01*
X11213793Y71392336D01*
X11127547Y71507545D01*
X11127544Y71507548D01*
X11012335Y71593794D01*
X11012328Y71593798D01*
X10877482Y71644092D01*
X10877483Y71644092D01*
X10817883Y71650499D01*
X10817881Y71650500D01*
X10817873Y71650500D01*
X10817864Y71650500D01*
X9922129Y71650500D01*
X9922123Y71650499D01*
X9862516Y71644092D01*
X9727671Y71593798D01*
X9727664Y71593794D01*
X9612455Y71507548D01*
X9612452Y71507545D01*
X9526206Y71392336D01*
X9526202Y71392329D01*
X9475908Y71257483D01*
X9470364Y71205909D01*
X9469501Y71197877D01*
X9469500Y71197865D01*
X9469500Y70102130D01*
X8900500Y70102130D01*
X8900500Y77402130D01*
X9469500Y77402130D01*
X9469501Y77402124D01*
X9475908Y77342517D01*
X9526202Y77207672D01*
X9526206Y77207665D01*
X9612452Y77092456D01*
X9612455Y77092453D01*
X9727664Y77006207D01*
X9727671Y77006203D01*
X9862517Y76955909D01*
X9862516Y76955909D01*
X9869444Y76955165D01*
X9922127Y76949500D01*
X10817872Y76949501D01*
X10877483Y76955909D01*
X11012331Y77006204D01*
X11127546Y77092454D01*
X11213796Y77207669D01*
X11264091Y77342517D01*
X11270500Y77402127D01*
X11270499Y78497872D01*
X11264091Y78557483D01*
X11213796Y78692331D01*
X11213795Y78692332D01*
X11213793Y78692336D01*
X11127547Y78807545D01*
X11127544Y78807548D01*
X11012335Y78893794D01*
X11012328Y78893798D01*
X10877482Y78944092D01*
X10877483Y78944092D01*
X10817883Y78950499D01*
X10817881Y78950500D01*
X10817873Y78950500D01*
X10817864Y78950500D01*
X9922129Y78950500D01*
X9922123Y78950499D01*
X9862516Y78944092D01*
X9727671Y78893798D01*
X9727664Y78893794D01*
X9612455Y78807548D01*
X9612452Y78807545D01*
X9526206Y78692336D01*
X9526202Y78692329D01*
X9475908Y78557483D01*
X9469501Y78497884D01*
X9469501Y78497877D01*
X9469500Y78497865D01*
X9469500Y77402130D01*
X8900500Y77402130D01*
X8900500Y81275500D01*
X8920185Y81342539D01*
X8972989Y81388294D01*
X9024500Y81399500D01*
X13835931Y81399500D01*
X13835934Y81399499D01*
X13907895Y81399500D01*
X13943687Y81399500D01*
X13953677Y81399500D01*
X13953689Y81399501D01*
X13979854Y81399501D01*
X13979856Y81399501D01*
X14006048Y81407193D01*
X14023319Y81410950D01*
X14050345Y81414835D01*
X14075184Y81426180D01*
X14091756Y81432361D01*
X14117947Y81440050D01*
X14140911Y81454810D01*
X14156431Y81463285D01*
X14181261Y81474623D01*
X14201896Y81492505D01*
X14216048Y81503099D01*
X14239021Y81517862D01*
X14256893Y81538490D01*
X14269400Y81550997D01*
X14290031Y81568872D01*
X14304793Y81591845D01*
X14315390Y81606001D01*
X14333269Y81626633D01*
X14344609Y81651467D01*
X14353079Y81666979D01*
X14367841Y81689947D01*
X14375531Y81716141D01*
X14381712Y81732715D01*
X14393055Y81757550D01*
X14396938Y81784566D01*
X14400700Y81801858D01*
X14405704Y81818897D01*
X14408388Y81828039D01*
X14408388Y81971961D01*
X14408388Y81981941D01*
X14408385Y81981961D01*
X14408209Y94668162D01*
X14408153Y98784875D01*
X14427837Y98851915D01*
X14480640Y98897671D01*
X14532153Y98908877D01*
X14908018Y98908877D01*
X14975057Y98889192D01*
G37*
%TD.AperFunction*%
%TD*%
M02*
