%TF.GenerationSoftware,KiCad,Pcbnew,7.0.11*%
%TF.CreationDate,2025-03-07T22:39:12-08:00*%
%TF.ProjectId,enderman,656e6465-726d-4616-9e2e-6b696361645f,0.2*%
%TF.SameCoordinates,PX6ed1240PY84f1340*%
%TF.FileFunction,Profile,NP*%
%FSLAX46Y46*%
G04 Gerber Fmt 4.6, Leading zero omitted, Abs format (unit mm)*
G04 Created by KiCad (PCBNEW 7.0.11) date 2025-03-07 22:39:12*
%MOMM*%
%LPD*%
G01*
G04 APERTURE LIST*
%TA.AperFunction,Profile*%
%ADD10C,0.100000*%
%TD*%
%TA.AperFunction,Profile*%
%ADD11C,0.050000*%
%TD*%
G04 APERTURE END LIST*
D10*
X13907888Y81900000D02*
X13907644Y99409377D01*
X8400000Y81900000D02*
X13907888Y81900000D01*
X8400000Y15844237D02*
X8400000Y81900000D01*
X11972403Y15844237D02*
X8400000Y15844237D01*
X11972403Y46840224D02*
X11972403Y15844237D01*
X16106771Y46840224D02*
X11972403Y46840224D01*
X16106771Y2369452D02*
X16106771Y46840224D01*
X19591116Y2369452D02*
X16106771Y2369452D01*
X19591116Y46835265D02*
X19591116Y2369452D01*
X25271261Y46835265D02*
X19591116Y46835265D01*
X25271261Y2379980D02*
X25271261Y46835265D01*
X28768072Y2379980D02*
X25271261Y2379980D01*
X28768072Y46844252D02*
X28768072Y2379980D01*
X32895460Y46844252D02*
X28768072Y46844252D01*
X32895460Y15864821D02*
X32895460Y46844252D01*
X36432493Y15864821D02*
X32895460Y15864821D01*
X36432493Y81934332D02*
X36432493Y15864821D01*
X30952200Y81934332D02*
X36432493Y81934332D01*
X30952200Y99409377D02*
X30952200Y81934332D01*
X13907644Y99409377D02*
X30952200Y99409377D01*
D11*
X34821661Y80150000D02*
G75*
G03*
X33669661Y80150000I-576000J0D01*
G01*
X33669661Y80150000D02*
G75*
G03*
X34821661Y80150000I576000J0D01*
G01*
X10776000Y17750000D02*
G75*
G03*
X9624000Y17750000I-576000J0D01*
G01*
X9624000Y17750000D02*
G75*
G03*
X10776000Y17750000I576000J0D01*
G01*
M02*
